<svg width="65" height="63" viewBox="0 0 65 63" fill="none" xmlns="http://www.w3.org/2000/svg">
<path d="M32.2794 62.4351C50.0366 62.4351 64.4316 48.5989 64.4316 31.5311C64.4316 14.4634 50.0366 0.627228 32.2794 0.627228C14.5222 0.627228 0.127197 14.4634 0.127197 31.5311C0.127197 48.5989 14.5222 62.4351 32.2794 62.4351Z" fill="#86EEF5"/>
<path d="M53.9466 41.3998C52.13 40.7302 52.4533 40.974 51.3334 38.6854C50.2134 36.3985 49.5346 35.662 47.016 35.3941C44.4957 35.128 44.5903 35.3169 43.8901 34.1065C43.1899 32.8944 40.3498 34.4344 38.5314 35.1091C36.7077 35.7822 37.1578 37.2484 36.5969 37.111C36.0343 36.9771 34.6196 36.6286 33.2156 35.5538C31.8152 34.4756 34.257 33.6343 34.9589 32.963C35.6609 32.2883 33.6371 32.6557 32.9351 32.2488C32.2332 31.8471 30.9774 33.0575 29.8575 31.9775C28.7357 30.9011 29.4377 29.2855 29.2984 27.9394C29.1573 26.5917 31.1168 26.3238 32.3778 26.0543C33.6371 25.7865 34.616 26.056 34.616 27.6699C34.616 29.2855 36.1575 29.8246 35.7377 27.9377C35.318 26.0509 36.1575 25.5152 36.7202 24.5726C37.2793 23.63 38.2599 22.2823 39.5192 20.2632C40.7803 18.2442 41.6216 19.185 43.1613 19.3293C44.7029 19.4752 45.1226 19.1868 46.2426 19.3224C47.359 19.458 46.2426 17.9764 46.6641 16.4964C47.0821 15.0164 48.6237 15.2843 50.167 15.6895C51.7067 16.0929 48.6237 13.8026 48.0646 12.5922C47.5019 11.3801 45.9622 12.5922 44.9851 10.5731C43.9973 8.55409 42.6201 7.24754 41.359 7.06727C40.0979 6.88528 41.7609 9.63229 40.7803 11.1122C39.7961 12.5922 38.2885 12.3604 36.7434 12.3604C35.2054 12.3604 33.7765 11.1122 34.8982 9.22711C36.0164 7.34369 38.1545 7.53769 39.2745 5.92211C40.3963 4.30823 35.2912 4.45589 33.4692 3.9185C31.6473 3.3794 29.4609 3.38455 27.6407 4.73059C25.8188 6.07491 21.923 6.49555 20.3815 7.03293C18.8417 7.57031 18.5649 6.14015 18.2862 5.06195C18.1612 4.58294 17.5932 4.43185 16.7929 4.44902C12.8275 6.55049 9.39256 9.44859 6.67212 12.8978C7.09546 14.2833 9.14606 12.5733 9.54796 12.187C9.96772 11.7835 12.0683 12.3227 12.347 13.8026C12.6274 15.2826 12.4881 16.9016 11.929 18.2476C11.3681 19.5919 13.3294 21.4771 14.4494 23.3622C15.5711 25.2491 16.8304 25.2474 17.3913 25.2474C17.9504 25.2474 21.1728 26.4595 21.0317 27.9394C20.8923 29.4211 23.9736 30.7654 25.2347 31.708C26.4958 32.654 27.2924 33.5828 28.9286 33.8541C30.5666 34.1254 32.4814 36.699 33.321 36.9702C33.9658 37.1763 35.0572 38.1669 35.7163 38.4742C34.85 39.5284 33.1727 41.6934 33.1727 42.6909C33.1727 44.0404 35.0036 46.1607 35.7038 46.6981C36.4022 47.2338 38.4135 47.6424 38.8297 48.9867C39.2513 50.3328 38.5368 54.8636 37.2793 56.074C36.0146 57.2844 35.5556 60.1465 35.5556 60.1465C35.5556 60.1465 36.0003 61.0753 37.49 60.1465C39.137 59.1215 41.8949 56.2028 42.997 55.5675C45.0976 54.3537 47.1393 52.8806 49.1006 51.1328C51.0619 49.3833 50.3509 48.1575 51.3334 46.4114C52.314 44.6619 53.5822 44.7409 55.2613 43.2643C56.9439 41.7809 55.7686 42.0745 53.9466 41.3998V41.3998Z" fill="#2EC47C"/>
</svg>
