<svg width="84" height="87" viewBox="0 0 84 87" fill="none" xmlns="http://www.w3.org/2000/svg">
<path d="M71.2859 63.1212C71.2859 68.4172 66.992 72.711 61.6961 72.711H8.95222C3.65625 72.711 -0.637573 68.4172 -0.637573 63.1212V10.3774C-0.637573 5.08143 3.65625 0.787598 8.95222 0.787598H61.6961C66.992 0.787598 71.2859 5.08143 71.2859 10.3774V63.1212Z" fill="#D99E82"/>
<path d="M66.491 63.1213C66.491 65.768 64.3429 67.9161 61.6961 67.9161H8.95224C6.30546 67.9161 4.15735 65.768 4.15735 63.1213V10.3774C4.15735 7.72823 6.30546 5.58252 8.95224 5.58252H61.6961C64.3429 5.58252 66.491 7.72823 66.491 10.3774V63.1213Z" fill="#5C913B"/>
<path d="M17.3793 22.1199C17.1875 22.3501 16.9382 22.6953 16.9382 23.0981C16.9382 23.9803 17.5903 24.3639 18.4342 24.3639H24.8354C25.5642 24.3639 26.2163 23.9803 26.2163 23.0981C26.2163 22.2158 25.5666 21.8322 24.7203 21.8322H21.2128C22.8407 19.7824 25.8135 17.138 25.8135 14.4721C25.8135 12.0387 23.9148 10.4851 21.5581 10.4851C19.2014 10.4851 17.0533 12.4198 17.0533 14.8365C17.0533 15.5821 17.5328 16.2342 18.4534 16.2342C20.2946 16.2342 19.2397 13.1295 21.443 13.1295C22.2294 13.1295 22.8239 13.82 22.8239 14.6063C22.8239 15.2968 22.4979 15.8914 22.1526 16.39C20.695 18.4974 18.9712 20.2235 17.3793 22.1199ZM14.2459 35.1453H11.4672V32.3642C11.4672 31.6737 11.0261 31.2158 10.3164 31.2158C9.60919 31.2158 9.16806 31.6761 9.16806 32.3642V35.1453H6.38942C5.67978 35.1453 5.23865 35.6056 5.23865 36.2936C5.23865 36.9841 5.67978 37.4444 6.38942 37.4444H9.16806V40.223C9.16806 40.9135 9.60919 41.3714 10.3164 41.3714C11.0261 41.3714 11.4672 40.9135 11.4672 40.223V37.4444H14.2459C14.9555 37.4444 15.3966 36.9841 15.3966 36.2936C15.3966 35.6056 14.9555 35.1453 14.2459 35.1453ZM24.7203 38.6144H21.2104C22.8407 36.5645 25.8111 33.9202 25.8111 31.2542C25.8111 28.8208 23.9124 27.2672 21.5557 27.2672C19.199 27.2672 17.0509 29.2044 17.0509 31.6186C17.0509 32.3642 17.5304 33.0163 18.4486 33.0163C20.2898 33.0163 19.2349 29.9116 21.4406 29.9116C22.227 29.9116 22.8215 30.6021 22.8215 31.3885C22.8215 32.0789 22.4955 32.6735 22.1502 33.1722C20.6926 35.2795 18.9688 37.0057 17.3769 38.9044C17.1851 39.1346 16.9358 39.4798 16.9358 39.8826C16.9358 40.7649 17.5879 41.1485 18.4318 41.1485H24.833C25.5618 41.1485 26.2139 40.7649 26.2139 39.8826C26.2139 38.9979 25.5642 38.6144 24.7203 38.6144ZM26.7342 46.267H6.75383C6.09214 46.267 5.55511 45.73 5.55511 45.0683C5.55511 44.4066 6.09214 43.8696 6.75383 43.8696H26.7318C27.3935 43.8696 27.9305 44.4066 27.9305 45.0683C27.9329 45.73 27.3959 46.267 26.7342 46.267Z" fill="white"/>
<path d="M83.2731 87.0956V78.7045C83.2731 70.7594 74.4385 65.5186 66.491 65.5186H37.7216C29.7788 65.5186 20.9395 70.7594 20.9395 78.7045V87.0956H83.2731Z" fill="#9266CC"/>
<path d="M51.9721 12.9404C61.8161 12.9404 78.2194 17.8624 78.2194 39.1877C78.2194 60.513 78.2194 65.4349 73.2974 65.4349C68.3731 65.4349 61.8137 60.513 51.9697 60.513C42.1282 60.513 35.7055 65.4349 30.6444 65.4349C25.1615 65.4349 25.7225 45.7495 25.7225 39.1877C25.7273 17.8624 42.1306 12.9404 51.9721 12.9404Z" fill="#963B22"/>
<path d="M40.119 65.5186H63.7938C63.7938 65.5186 60.7826 73.9096 51.9552 73.9096C43.1278 73.9096 40.119 65.5186 40.119 65.5186Z" fill="#292F33"/>
<path d="M43.3029 65.5664C43.3029 69.1146 48.5101 71.5121 52.1063 71.5121C55.7025 71.5121 60.8809 69.1146 60.8809 65.5664V57.8826H43.3029V65.5664Z" fill="#D5AB88"/>
<path d="M43.2861 61.1527C45.7387 63.9217 48.7787 64.6721 52.0824 64.6721C55.3884 64.6721 58.4284 63.9241 60.881 61.1527V54.1138H43.2861V61.1527Z" fill="#CC9B7A"/>
<path d="M32.2889 38.4685C32.2889 24.4818 41.102 13.1443 51.972 13.1443C62.842 13.1443 71.6574 24.4818 71.6574 38.4685C71.6574 52.4528 62.842 63.1287 51.972 63.1287C41.102 63.1287 32.2889 52.4552 32.2889 38.4685Z" fill="#D5AB88"/>
<path d="M51.9721 57.231C48.1242 57.231 46.1079 55.3275 45.8922 55.1093C45.2496 54.4692 45.2496 53.4311 45.8922 52.791C46.5299 52.1556 47.5512 52.1509 48.1937 52.7742C48.2776 52.8509 49.5195 53.9513 51.9721 53.9513C54.463 53.9513 55.7049 52.8173 55.7529 52.7718C56.4074 52.158 57.4383 52.1772 58.0616 52.8197C58.6849 53.4647 58.6849 54.4764 58.052 55.1093C57.8386 55.3275 55.8248 57.231 51.9721 57.231Z" fill="#DF1F32"/>
<path d="M27.4725 46.3392C27.4222 43.9418 27.3671 45.8022 27.3671 45.2244C27.3671 37.0204 32.289 46.4088 32.289 40.5662C32.289 34.7188 35.5687 34.1338 38.8484 30.8541C40.4907 29.2119 43.7704 25.9969 43.7704 25.9969C43.7704 25.9969 51.9721 30.9524 58.5339 30.9524C65.0933 30.9524 71.6575 34.2489 71.6575 40.8107C71.6575 47.3725 76.5795 37.0132 76.5795 45.2148C76.5795 45.7998 76.5267 43.9418 76.4836 46.3392H78.2049C78.2217 41.5443 78.2217 41.7266 78.2217 38.6626C78.2217 17.3373 61.816 9.39697 51.9745 9.39697C42.1329 9.39697 25.7296 17.2055 25.7296 38.5308C25.7296 40.4319 25.6817 41.5443 25.7488 46.3392H27.4725Z" fill="#963B22"/>
<path d="M43.974 43.6687C42.8592 43.6687 41.9458 42.7553 41.9458 41.6405V39.6147C41.9458 38.4999 42.8592 37.5864 43.974 37.5864C45.0889 37.5864 46.0047 38.4999 46.0047 39.6147V41.6405C46.0047 42.7553 45.0889 43.6687 43.974 43.6687ZM60.1928 43.6687C59.078 43.6687 58.1645 42.7553 58.1645 41.6405V39.6147C58.1645 38.4999 59.078 37.5864 60.1928 37.5864C61.3076 37.5864 62.221 38.4999 62.221 39.6147V41.6405C62.221 42.7553 61.3076 43.6687 60.1928 43.6687Z" fill="#662113"/>
<path d="M54.113 49.9353H50.0589C49.5003 49.9353 49.0448 49.4798 49.0448 48.9212V48.5544C49.0448 47.9958 49.4979 47.5378 50.0589 47.5378H54.113C54.6692 47.5378 55.1271 47.9934 55.1271 48.5544V48.9212C55.1271 49.4798 54.6692 49.9353 54.113 49.9353Z" fill="#C1694F"/>
<path d="M36.3886 38.9933C36.3886 42.4648 34.6289 45.2794 32.4592 45.2794C30.2895 45.2794 28.5298 42.4648 28.5298 38.9933C28.5298 35.5218 30.2895 32.7048 32.4592 32.7048C34.6289 32.7024 36.3886 35.5194 36.3886 38.9933ZM75.6804 38.9933C75.6804 42.4648 73.9231 45.2794 71.751 45.2794C69.5813 45.2794 67.8215 42.4648 67.8215 38.9933C67.8215 35.5218 69.5789 32.7048 71.751 32.7048C73.9231 32.7024 75.6804 35.5194 75.6804 38.9933Z" fill="#D5AB88"/>
<path d="M52.1062 73.2433C52.1062 73.2433 60.212 79.2226 61.9214 79.9011C62.2954 80.0497 61.0415 71.136 61.0415 71.136H43.1733C43.1733 71.136 41.9195 80.2007 42.6123 79.8267C44.1467 79.0068 52.1062 73.2433 52.1062 73.2433Z" fill="#744EAA"/>
<path d="M40.8166 62.922C42.1688 64.279 52.1062 71.0326 52.1062 71.0326C52.1062 71.0326 47.0116 74.0102 42.3102 79.5076C41.8427 80.059 38.611 68.4194 38.5127 65.8206C38.4839 65.0941 40.1669 62.2723 40.8166 62.922ZM63.4461 62.922C62.0892 64.279 52.1566 71.0326 52.1566 71.0326C52.1566 71.0326 57.2511 74.0102 61.9477 79.5076C62.4152 80.059 65.6422 68.4194 65.7405 65.8206C65.7693 65.0941 64.0935 62.2723 63.4461 62.922Z" fill="#CBB7EA"/>
<path d="M49.7089 72.7109H54.5038V87.0956H49.7089V72.7109Z" fill="#744EAA"/>
<path d="M52.1063 85.8969C53.4304 85.8969 54.5038 84.8236 54.5038 83.4995C54.5038 82.1754 53.4304 81.1021 52.1063 81.1021C50.7822 81.1021 49.7089 82.1754 49.7089 83.4995C49.7089 84.8236 50.7822 85.8969 52.1063 85.8969Z" fill="#CBB7EA"/>
<path d="M52.1063 78.7046C53.4304 78.7046 54.5038 77.6312 54.5038 76.3071C54.5038 74.983 53.4304 73.9097 52.1063 73.9097C50.7822 73.9097 49.7089 74.983 49.7089 76.3071C49.7089 77.6312 50.7822 78.7046 52.1063 78.7046Z" fill="#CBB7EA"/>
</svg>
