<svg width="33" height="33" viewBox="0 0 33 33" fill="none" xmlns="http://www.w3.org/2000/svg">
<path d="M32.5151 32.6607V26.3359C32.5151 23.3407 29.1856 21.3665 26.1904 21.3665H15.3479C12.3545 21.3665 9.02319 23.3407 9.02319 26.3359V32.6607H32.5151Z" fill="#9266CC"/>
<path d="M20.7186 1.55103C24.4285 1.55103 30.6105 3.40599 30.6105 11.4429C30.6105 19.4799 30.6105 21.3349 28.7556 21.3349C26.8997 21.3349 24.4276 19.4799 20.7177 19.4799C17.0087 19.4799 14.5881 21.3349 12.6808 21.3349C10.6144 21.3349 10.8258 13.9159 10.8258 11.4429C10.8276 3.40599 17.0096 1.55103 20.7186 1.55103Z" fill="#60352A"/>
<path d="M17.4514 21.3845C17.4514 22.7218 19.4139 23.1735 20.7692 23.1735C22.1245 23.1735 24.0761 22.7218 24.0761 21.3845V18.4887H17.4514V21.3845Z" fill="#AF7E57"/>
<path d="M17.4451 19.7211C18.3694 20.7647 19.5151 21.0475 20.7602 21.0475C22.0062 21.0475 23.1519 20.7656 24.0762 19.7211V17.0684H17.4451V19.7211Z" fill="#9B6A49"/>
<path d="M13.3006 11.1719C13.3006 5.90066 16.622 1.62784 20.7186 1.62784C24.8153 1.62784 28.1376 5.90066 28.1376 11.1719C28.1376 16.4422 24.8153 20.4657 20.7186 20.4657C16.622 20.4657 13.3006 16.4431 13.3006 11.1719Z" fill="#AF7E57"/>
<path d="M20.7186 18.243C19.2684 18.243 18.5085 17.5256 18.4272 17.4433C18.1851 17.2021 18.1851 16.8109 18.4272 16.5696C18.6676 16.3302 19.0525 16.3284 19.2946 16.5633C19.3262 16.5922 19.7943 17.0069 20.7186 17.0069C21.6574 17.0069 22.1254 16.5795 22.1435 16.5624C22.3901 16.3311 22.7786 16.3383 23.0136 16.5805C23.2485 16.8235 23.2485 17.2048 23.01 17.4433C22.9295 17.5256 22.1706 18.243 20.7186 18.243Z" fill="#DF1F32"/>
<path d="M11.4854 14.1382C11.4664 13.2347 11.4456 13.9358 11.4456 13.7181C11.4456 10.6262 13.3006 14.1644 13.3006 11.9625C13.3006 9.75876 14.5366 9.5383 15.7727 8.30226C16.3916 7.68334 17.6276 6.47169 17.6276 6.47169C17.6276 6.47169 20.7186 8.3393 23.1916 8.3393C25.6637 8.3393 28.1376 9.58167 28.1376 12.0546C28.1376 14.5276 29.9925 10.6234 29.9925 13.7144C29.9925 13.9349 29.9726 13.2347 29.9564 14.1382H30.6051C30.6115 12.3311 30.6115 12.3998 30.6115 11.2451C30.6115 3.20812 24.4285 0.215607 20.7195 0.215607C17.0105 0.215607 10.8285 3.15843 10.8285 11.1954C10.8285 11.9119 10.8104 12.3311 10.8357 14.1382H11.4854Z" fill="#60352A"/>
<path d="M17.7044 13.1317C17.2843 13.1317 16.94 12.7874 16.94 12.3673V11.6038C16.94 11.1836 17.2843 10.8394 17.7044 10.8394C18.1245 10.8394 18.4697 11.1836 18.4697 11.6038V12.3673C18.4697 12.7874 18.1245 13.1317 17.7044 13.1317ZM23.8168 13.1317C23.3967 13.1317 23.0524 12.7874 23.0524 12.3673V11.6038C23.0524 11.1836 23.3967 10.8394 23.8168 10.8394C24.237 10.8394 24.5812 11.1836 24.5812 11.6038V12.3673C24.5812 12.7874 24.237 13.1317 23.8168 13.1317Z" fill="#60352A"/>
<path d="M21.5255 15.4935H19.9976C19.7871 15.4935 19.6154 15.3218 19.6154 15.1113V14.9731C19.6154 14.7625 19.7862 14.59 19.9976 14.59H21.5255C21.7351 14.59 21.9077 14.7616 21.9077 14.9731V15.1113C21.9077 15.3218 21.7351 15.4935 21.5255 15.4935Z" fill="#915A34"/>
<path d="M14.8456 12.2733C14.8456 13.5816 14.1824 14.6424 13.3647 14.6424C12.547 14.6424 11.8839 13.5816 11.8839 12.2733C11.8839 10.965 12.547 9.90332 13.3647 9.90332C14.1824 9.90242 14.8456 10.9641 14.8456 12.2733ZM29.6537 12.2733C29.6537 13.5816 28.9914 14.6424 28.1728 14.6424C27.3551 14.6424 26.6919 13.5816 26.6919 12.2733C26.6919 10.965 27.3542 9.90332 28.1728 9.90332C28.9914 9.90242 29.6537 10.9641 29.6537 12.2733Z" fill="#AF7E57"/>
<path d="M30.7081 31.7571C30.7081 32.2568 30.3042 32.6607 29.8046 32.6607H20.7692C20.2695 32.6607 19.8657 32.2568 19.8657 31.7571C19.8657 31.2575 20.2695 30.8536 20.7692 30.8536H29.8046C30.3042 30.8536 30.7081 31.2575 30.7081 31.7571Z" fill="#E1E8ED"/>
<path d="M19.179 20.0112H4.28783C2.91084 20.0112 1.14533 20.7078 2.04887 23.2016L4.82454 30.859C4.82544 30.859 5.18324 32.6607 7.2162 32.6607H25.2869L21.6728 22.5049C21.277 21.3105 20.5569 20.0112 19.179 20.0112Z" fill="#E1E8ED"/>
<path d="M18.2755 20.0112H3.38427C2.00728 20.0112 0.24177 20.7078 1.14531 23.2016L3.92097 30.859C3.92187 30.859 4.27967 32.6607 6.31263 32.6607H24.3834L20.7692 22.5049C20.3735 21.3105 19.6533 20.0112 18.2755 20.0112Z" fill="#99AAB5"/>
<path d="M13.5581 26.5916C14.0316 28.012 13.6485 29.4197 12.7006 29.735C11.7546 30.0513 10.6026 29.1559 10.1292 27.7355C9.65572 26.3151 10.0397 24.9074 10.9866 24.5921C11.9335 24.2768 13.0855 25.1713 13.5581 26.5916ZM18.0586 22.4959H3.60203C3.22797 22.4959 2.92438 22.1923 2.92438 21.8182C2.92438 21.4442 3.22797 21.1406 3.60203 21.1406H18.0586C18.4327 21.1406 18.7363 21.4442 18.7363 21.8182C18.7363 22.1923 18.4327 22.4959 18.0586 22.4959Z" fill="#E1E8ED"/>
</svg>
