<svg width="82" height="81" viewBox="0 0 82 81" fill="none" xmlns="http://www.w3.org/2000/svg">
<path d="M66.6163 56.6479H37.8469C29.9042 56.6479 20.7651 61.8888 20.7651 69.8339V80.6224H83.0988V69.8339C83.0988 61.8888 74.5639 56.6479 66.6163 56.6479Z" fill="#292F33"/>
<path d="M51.932 56.449L37.0966 57.8898L51.932 77.1773L64.4682 57.8898L51.932 56.449Z" fill="#7C543E"/>
<path d="M51.9296 80.6223H73.509C83.0988 72.2313 85.6952 65.0389 85.6952 65.0389C85.6952 65.0389 77.7045 56.6479 62.2698 53.9004C62.2698 56.8349 64.6384 61.4092 64.6384 61.4092L51.9296 77.1748V80.6223Z" fill="#A88DC1"/>
<path d="M51.9293 80.6223H30.3499C20.7601 72.2313 18.1637 65.0389 18.1637 65.0389C18.1637 65.0389 26.1544 56.6479 41.5892 53.9004C41.5892 56.8349 39.2205 61.4092 39.2205 61.4092L51.9293 77.1748V80.6223Z" fill="#A88DC1"/>
<path d="M78.903 60.0187C78.903 60.0187 74.2208 56.8349 68.9393 55.0752C61.6079 52.6322 63.2453 59.4386 63.2453 59.4386C63.2453 59.4386 54.0871 73.9048 51.9294 77.1773C51.9294 77.1773 67.5943 64.1591 78.903 60.0187ZM24.9557 60.0187C24.9557 60.0187 29.6379 56.8349 34.9195 55.0752C42.2509 52.6322 40.6134 59.4386 40.6134 59.4386C40.6134 59.4386 49.7717 73.9048 51.9294 77.1773C51.9294 77.1773 36.2644 64.1591 24.9557 60.0187Z" fill="#7355A2"/>
<path d="M51.932 77.1771C51.932 77.1771 69.5124 59.2466 81.001 57.1488C71.2122 48.9567 56.7269 49.8558 56.7269 49.8558C56.7269 52.7903 60.2943 54.3342 60.2943 57.964C60.2943 63.9216 54.0849 72.8353 51.9296 76.1054L51.932 77.1771Z" fill="#522E8D"/>
<path d="M51.927 77.1771C51.927 77.1771 34.3465 59.2466 22.8579 57.1488C32.6467 48.9567 47.1321 49.8558 47.1321 49.8558C47.1321 52.7903 43.5647 54.3342 43.5647 57.964C43.5647 63.9216 49.7741 72.8353 51.9294 76.1054L51.927 77.1771Z" fill="#522E8D"/>
<path d="M43.5409 57.8897C47.0556 60.443 50.2346 60.2392 51.932 60.2392C53.6294 60.2392 57.192 60.443 60.2943 57.964L60.323 48.0386H43.5409V57.8897Z" fill="#7C543E"/>
<path d="M43.5409 52.2245C45.8784 54.8665 48.7793 55.581 51.9296 55.581C55.0822 55.581 57.9855 54.8665 60.323 52.2245V45.5093H43.5409V52.2245Z" fill="#674232"/>
<path d="M73.8134 46.4564C73.3939 47.3411 72.5332 48.2281 72.0489 48.686C76.7695 49.7097 80.1019 50.954 80.1019 50.954C80.1019 50.954 78.944 49.3669 78.4381 46.4588C78.2607 45.4471 77.5007 44.4785 77.3401 43.1623C77.1507 41.6016 76.9469 39.8227 76.8414 37.8687C76.7168 35.5888 76.5513 33.5318 76.6424 30.7771C77.3353 9.46378 61.644 3.85376 51.8049 3.85376C41.9658 3.85376 24.8624 8.78531 25.5552 30.0986C25.6439 32.8533 25.6008 35.3874 25.4785 37.6674C25.373 39.6213 25.2076 41.3906 25.0158 42.9537C24.8552 44.2699 24.6778 45.4399 24.5003 46.4516C23.9921 49.3597 23.5006 50.9564 23.5006 50.9564C23.5006 50.9564 40.0574 44.7422 51.8025 48.6597C57.1584 46.8736 63.5044 47.1996 68.8363 48.0795C69.6683 47.8445 72.2815 47.1013 73.8134 46.4564Z" fill="#F4ABBA"/>
<path d="M51.8001 4.05737C40.9276 4.05737 32.1146 15.3949 32.1146 29.3816C32.1146 32.6373 32.6085 35.7013 33.4788 38.5039C33.5962 38.8803 33.7161 39.2519 33.8456 39.6163C34.4138 41.2058 35.1138 42.6946 35.9218 44.0732C36.4156 44.9171 36.9503 45.7178 37.5257 46.4706C41.1122 51.1672 46.1757 54.0394 51.8001 54.0394C62.6677 54.0394 71.4807 43.3659 71.4807 29.3816C71.4807 15.3949 62.6677 4.05737 51.8001 4.05737Z" fill="#7C543E"/>
<path d="M47.1755 28.1973L53.3633 19.3507L42.9056 15.0952L33.4764 38.5039C33.5939 38.8803 33.7138 39.2519 33.8432 39.6163L38.5087 37.7031L35.9194 44.0732C36.4133 44.9171 36.9479 45.7178 37.5233 46.4706L53.8787 26.7252L47.1755 28.1973Z" fill="#DD2E44"/>
<path d="M51.7998 48.1419C47.9495 48.1419 45.9333 46.2384 45.7175 46.0202C45.075 45.3801 45.075 44.342 45.7175 43.7019C46.3552 43.0665 47.3765 43.0617 48.0214 43.6851C48.1053 43.7618 49.3424 44.8622 51.7998 44.8622C54.2884 44.8622 55.5278 43.7282 55.5782 43.6827C56.2327 43.0689 57.2636 43.0881 57.8869 43.7282C58.5103 44.3731 58.5103 45.3849 57.8773 46.0178C57.664 46.2384 55.6501 48.1419 51.7998 48.1419Z" fill="#DE2032"/>
<path d="M53.9363 40.8462H49.8846C49.326 40.8462 48.8705 40.3931 48.8705 39.8321V39.4652C48.8705 38.9066 49.3236 38.4487 49.8846 38.4487H53.9363C54.4949 38.4487 54.9528 38.9042 54.9528 39.4652V39.8321C54.9528 40.3931 54.4949 40.8462 53.9363 40.8462Z" fill="#3E2E24"/>
<path d="M60.0185 34.5818C58.9036 34.5818 57.9902 33.6684 57.9902 32.5512V30.5253C57.9902 29.4105 58.9036 28.4971 60.0185 28.4971C61.1333 28.4971 62.0467 29.4105 62.0467 30.5253V32.5512C62.0467 33.6684 61.1333 34.5818 60.0185 34.5818ZM43.7997 34.5818C42.6849 34.5818 41.7715 33.6684 41.7715 32.5512V30.5253C41.7715 29.4105 42.6849 28.4971 43.7997 28.4971C44.9169 28.4971 45.8304 29.4105 45.8304 30.5253V32.5512C45.8304 33.6684 44.9169 34.5818 43.7997 34.5818Z" fill="black"/>
<path d="M78.1385 35.1236C78.1457 32.4552 78.1457 32.0812 78.1457 29.5735C78.1457 24.2104 77.1052 19.696 75.3958 15.9416C76.3116 16.1238 77.4217 16.2749 78.3782 16.167C76.5106 14.834 73.7943 12.3646 72.7346 11.3865C67.0767 3.54681 58.1654 0.307861 51.8984 0.307861C42.8984 0.307861 28.4442 6.87447 26.0372 24.3087L26.0012 24.0426C26.0012 24.0426 23.9873 28.9382 22.4985 31.5082C23.6373 31.1366 24.8336 30.3215 25.6536 29.691C25.6488 31.4459 25.6104 32.6734 25.6752 37.2501H27.4013C27.351 34.8527 27.2958 36.7131 27.2958 36.1353C27.2958 27.9312 32.2178 37.3197 32.2178 31.4771C32.2178 25.6321 35.4975 25.0447 38.7772 21.765C39.5708 20.9715 40.7455 19.8111 41.75 18.8233C45.0969 20.3385 49.5849 21.4821 55.497 21.7674C56.0676 21.9328 59.9251 23.1435 62.9746 26.3298C62.874 24.2751 62.054 22.8966 61.5266 22.2037C66.1944 23.1603 69.0714 26.3393 69.6923 31.724L69.7187 31.8966C69.6851 32.7933 69.431 36.1713 67.5274 39.3287C69.172 38.7941 70.1646 37.8447 70.6776 37.2166C73.5666 48.6644 80.1044 50.9587 80.1044 50.9587C78.7738 45.1713 78.3063 39.3791 78.1385 35.1236Z" fill="#F4ABBA"/>
<path d="M36.2143 29.9042C36.2143 33.3757 34.4546 36.1903 32.2849 36.1903C30.1152 36.1903 28.3555 33.3757 28.3555 29.9042C28.3555 26.4327 30.1152 23.6157 32.2849 23.6157C34.4546 23.6157 36.2143 26.4327 36.2143 29.9042Z" fill="#7C543E"/>
<path d="M24.9917 42.9631C20.9281 42.9631 17.634 46.2572 17.634 50.3233C17.634 51.4693 17.9193 52.5409 18.3868 53.5071L17.8306 52.9509C16.9987 52.119 15.6968 52.1669 14.9249 53.0588L1.76768 67.9757C0.463465 69.4813 -0.145487 71.9147 1.79405 73.8542C3.73358 75.7938 6.12624 75.2304 7.67738 73.8854L9.81591 71.9315V80.6222H14.093V68.0237L22.3474 60.4813C23.2392 59.7069 23.2896 58.4075 22.4552 57.578L21.8055 56.9283C22.7741 57.3982 23.8458 57.6835 24.9941 57.6835C29.0602 57.6835 32.3543 54.3894 32.3543 50.3233C32.3519 46.2572 29.0554 42.9631 24.9917 42.9631Z" fill="#424143"/>
<path d="M28.9427 57.432C28.583 57.7916 28.0005 57.7916 27.6409 57.432L17.8832 47.6744C17.5236 47.3148 17.5236 46.7346 17.8832 46.375L19.1851 45.0732C19.5447 44.7136 20.1272 44.7136 20.4869 45.0732L30.2445 54.8308C30.6041 55.1904 30.6041 55.773 30.2445 56.1326L28.9427 57.432Z" fill="#59595C"/>
</svg>
