<svg width="30" height="33" viewBox="0 0 30 33" fill="none" xmlns="http://www.w3.org/2000/svg">
<path d="M17.8455 0.101486C16.1245 0.101486 14.5025 0.462359 13.0525 1.089C12.6595 1.02856 12.2575 0.990335 11.8455 0.990335C7.97946 0.990335 4.84546 3.77599 4.84546 7.21227V17.8785H4.86346C5.04646 23.6266 10.3345 28.2389 16.8455 28.2389C23.3565 28.2389 28.6445 23.6266 28.8275 17.8785H28.8455V9.87882C28.8455 4.47907 23.9205 0.101486 17.8455 0.101486Z" fill="#60352A"/>
<path d="M7.84546 4.5457V15.2119C7.84546 19.6304 11.8745 23.2116 16.8455 23.2116C21.8165 23.2116 25.8455 19.6304 25.8455 15.2119V4.5457H7.84546Z" fill="#AF7E57"/>
<path d="M25.8445 4.54575V3.65691H6.84546V9.87878C12.8455 9.87878 12.8455 4.54575 12.8455 4.54575C12.8455 4.54575 14.8455 10.7676 26.8455 10.7676V4.54575H25.8445Z" fill="#60352A"/>
<path d="M11.2664 2.71026C10.6754 2.3645 9.87944 2.51116 9.49044 3.03647L8.84544 3.90932V1.87919C8.84544 0.897006 7.94944 0.101486 6.84544 0.101486H2.84545C1.74146 0.101486 0.845459 0.897895 0.845459 1.87919V8.98998C0.845459 8.98998 0.845459 9.87883 1.84546 9.87883H7.84544L8.84544 8.98998V8.06291L11.6344 4.28886C12.0234 3.76266 11.8594 3.05602 11.2664 2.71026Z" fill="#AF7E57"/>
<path d="M2.84546 0.101486H3.84546V4.5457H2.84546V0.101486ZM5.84546 0.101486H6.84546V4.5457H5.84546V0.101486Z" fill="#845636"/>
<path d="M25.8455 24.1005H7.84546L8.84546 8.99004H0.845459V24.1005C0.845459 24.1005 0.845459 32.1001 8.84546 32.1001H29.8455V27.6559C29.8455 25.6924 28.0545 24.1005 25.8455 24.1005Z" fill="#9268CA"/>
<path d="M17.8455 17.434H15.8455C15.5695 17.434 15.3455 17.2349 15.3455 16.9896C15.3455 16.7443 15.5695 16.5452 15.8455 16.5452H17.8455C18.1215 16.5452 18.3455 16.7443 18.3455 16.9896C18.3455 17.2349 18.1215 17.434 17.8455 17.434Z" fill="#915A34"/>
<path d="M12.8455 14.323C12.2935 14.323 11.8455 13.9248 11.8455 13.4342V12.5454C11.8455 12.0547 12.2935 11.6565 12.8455 11.6565C13.3975 11.6565 13.8455 12.0547 13.8455 12.5454V13.4342C13.8455 13.9248 13.3975 14.323 12.8455 14.323ZM20.8455 14.323C20.2925 14.323 19.8455 13.9248 19.8455 13.4342V12.5454C19.8455 12.0547 20.2925 11.6565 20.8455 11.6565C21.3985 11.6565 21.8455 12.0547 21.8455 12.5454V13.4342C21.8455 13.9248 21.3985 14.323 20.8455 14.323Z" fill="#60352A"/>
<path d="M13.8455 19.6562V24.9893C13.8455 26.4621 15.1885 27.6558 16.8455 27.6558C18.5025 27.6558 19.8455 26.4621 19.8455 24.9893V19.6562H13.8455Z" fill="#AF7E57"/>
<path d="M20.8455 19.6562H12.8455C12.8455 19.6562 13.8455 21.4339 16.8455 21.4339C19.8455 21.4339 20.8455 19.6562 20.8455 19.6562Z" fill="#DF1F32"/>
<path d="M24.8455 28.5447H25.8455V32.1001H24.8455V28.5447Z" fill="#7450A8"/>
</svg>
