<svg width="88" height="88" viewBox="0 0 88 88" fill="none" xmlns="http://www.w3.org/2000/svg">
<path d="M72.8078 63.1664C72.8078 68.4624 68.514 72.7562 63.218 72.7562H10.4742C5.17823 72.7562 0.884399 68.4624 0.884399 63.1664V10.4226C0.884399 5.12659 5.17823 0.832764 10.4742 0.832764H63.218C68.514 0.832764 72.8078 5.12659 72.8078 10.4226V63.1664Z" fill="#CCD6DC"/>
<path d="M68.0128 63.1664C68.0128 65.8132 65.8647 67.9613 63.2179 67.9613H10.4741C7.82731 67.9613 5.6792 65.8132 5.6792 63.1664V10.4226C5.6792 7.7758 7.82731 5.62769 10.4741 5.62769H63.2179C65.8647 5.62769 68.0128 7.7758 68.0128 10.4226V63.1664Z" fill="#F5F8FA"/>
<path d="M15.269 63.1663C13.9456 63.1663 12.8716 62.0947 12.8716 60.7689V31.9995C12.8716 30.6761 13.9456 29.6021 15.269 29.6021C16.5924 29.6021 17.6665 30.6761 17.6665 31.9995V60.7689C17.6665 62.0947 16.5924 63.1663 15.269 63.1663Z" fill="#50A5E6"/>
<path d="M24.8588 63.1665C23.5354 63.1665 22.4613 62.0948 22.4613 60.769V20.0124C22.4613 18.689 23.5354 17.615 24.8588 17.615C26.1821 17.615 27.2562 18.689 27.2562 20.0124V60.769C27.2562 62.0948 26.1821 63.1665 24.8588 63.1665Z" fill="#77B255"/>
<path d="M87.1924 87.141V76.3525C87.1924 68.4073 78.6551 63.1665 70.7099 63.1665H41.9406C33.9978 63.1665 24.8588 68.4073 24.8588 76.3525V87.141H87.1924Z" fill="#226798"/>
<path d="M68.6122 63.1665L60.9835 87.141H51.1755L44.6377 63.1665" fill="#F4F7F9"/>
<path d="M46.4358 63.1665H42.8396L40.4421 76.3525L47.6345 78.7499L46.4358 87.141H54.8268L46.4358 63.1665ZM66.8141 63.1665H70.4102L71.609 76.3525L64.4166 78.7499L65.6153 87.141H57.2243L66.8141 63.1665Z" fill="#3A87C2"/>
<path d="M56.5052 10.3723C66.3443 10.3723 82.75 15.2943 82.75 36.6172C82.75 57.9425 82.75 62.8644 77.8281 62.8644C72.9061 62.8644 66.3443 57.9425 56.5028 57.9425C46.6589 57.9425 40.2361 62.8644 35.1751 62.8644C29.6921 62.8644 30.2531 43.179 30.2531 36.6172C30.2579 15.2919 46.6637 10.3723 56.5052 10.3723Z" fill="#0B0200"/>
<path d="M48.2458 63.1664C50.6433 67.9181 54.9395 73.9549 56.6369 73.9549C58.3343 73.9549 62.6593 67.8438 65.028 63.1664V54.5571H48.2458V63.1664Z" fill="#7C543E"/>
<path d="M48.2458 58.5009C50.5834 61.1429 53.4843 61.8573 56.6345 61.8573C59.7872 61.8573 62.6905 61.1429 65.028 58.5009V51.7856H48.2458V58.5009Z" fill="#674232"/>
<path d="M36.8197 35.9002C36.8197 21.9135 45.6327 10.5759 56.5051 10.5759C67.3728 10.5759 76.1858 21.9135 76.1858 35.9002C76.1858 49.8845 67.3728 60.5579 56.5051 60.5579C45.6327 60.5579 36.8197 49.8845 36.8197 35.9002Z" fill="#7C543E"/>
<path d="M56.5051 54.6605C52.6548 54.6605 50.6386 52.7569 50.4228 52.5387C49.7803 51.8986 49.7803 50.8605 50.4228 50.2204C51.0605 49.5851 52.0818 49.5803 52.7268 50.2036C52.8107 50.2803 54.0477 51.3808 56.5051 51.3808C58.9937 51.3808 60.2332 50.2468 60.2835 50.2012C60.938 49.5875 61.9689 49.6067 62.5922 50.2468C63.2156 50.8917 63.2156 51.9034 62.5827 52.5363C62.3693 52.7569 60.3554 54.6605 56.5051 54.6605Z" fill="#DE2032"/>
<path d="M58.6412 47.3647H54.5896C54.031 47.3647 53.5754 46.9116 53.5754 46.3506V45.9838C53.5754 45.4252 54.0286 44.9673 54.5896 44.9673H58.6412C59.1998 44.9673 59.6578 45.4228 59.6578 45.9838V46.3506C59.6578 46.9116 59.1998 47.3647 58.6412 47.3647Z" fill="#3D2E24"/>
<path d="M64.7234 41.1003C63.6086 41.1003 62.6952 40.1869 62.6952 39.0697V37.0439C62.6952 35.9291 63.6086 35.0156 64.7234 35.0156C65.8382 35.0156 66.7517 35.9291 66.7517 37.0439V39.0697C66.7517 40.1869 65.8382 41.1003 64.7234 41.1003ZM48.5047 41.1003C47.3899 41.1003 46.4764 40.1869 46.4764 39.0697V37.0439C46.4764 35.9291 47.3899 35.0156 48.5047 35.0156C49.6219 35.0156 50.5353 35.9291 50.5353 37.0439V39.0697C50.5353 40.1869 49.6219 41.1003 48.5047 41.1003Z" fill="black"/>
<path d="M32.0032 43.7687C31.9528 41.3712 31.8977 43.2317 31.8977 42.6539C31.8977 34.4498 36.8197 43.8382 36.8197 37.9956C36.8197 32.1507 40.0994 31.5633 43.3791 28.2836C45.0213 26.6413 48.301 23.4263 48.301 23.4263C48.301 23.4263 56.5027 28.3819 63.0645 28.3819C69.6239 28.3819 76.1881 31.6784 76.1881 38.2402C76.1881 44.7996 81.1101 34.4426 81.1101 42.6443C81.1101 43.2293 81.0574 41.3712 81.0142 43.7687H82.738C82.7523 38.9738 82.7523 39.156 82.7523 36.0921C82.7523 14.7692 66.349 6.82642 56.5051 6.82642C46.666 6.82642 30.2602 14.6349 30.2602 35.9602C30.2602 37.8614 30.2123 38.9738 30.2794 43.7687H32.0032Z" fill="#0B0200"/>
<path d="M80.2111 36.4228C80.2111 39.8943 78.4538 42.7089 76.2817 42.7089C74.112 42.7089 72.3523 39.8943 72.3523 36.4228C72.3523 32.9513 74.1096 30.1343 76.2817 30.1343C78.4538 30.1343 80.2111 32.9513 80.2111 36.4228ZM40.9194 36.4228C40.9194 39.8943 39.1597 42.7089 36.99 42.7089C34.8203 42.7089 33.0605 39.8943 33.0605 36.4228C33.0605 32.9513 34.8203 30.1343 36.99 30.1343C39.1597 30.1343 40.9194 32.9513 40.9194 36.4228Z" fill="#7C543E"/>
</svg>
