<svg width="28" height="28" viewBox="0 0 28 28" fill="none" xmlns="http://www.w3.org/2000/svg">
<g clip-path="url(#clip0)">
<path d="M23.6422 3.88586L22.3042 7.29236L20.9662 3.88586H17.8559L16.4114 7.56311L14.9662 3.88586H12.0689L10.6244 7.56311L9.17919 3.88586H6.06819L4.73019 7.29236L3.39219 3.88586H1.61694L4.41819 24.8956H22.6154L25.4174 3.88586H23.6422ZM19.4107 5.14436L21.2549 9.96311L19.3042 14.9289L17.4614 10.2384L19.4107 5.14436ZM13.5172 5.42261L15.3599 10.2376L13.5172 14.9281L11.6744 10.2376L13.5172 5.42261ZM7.62369 5.14436L9.57294 10.2384L7.73019 14.9289L5.77944 9.96311L7.62369 5.14436ZM4.48569 13.3441L4.73019 12.7044L6.64194 17.6994L5.46219 20.7024L4.48569 13.3441ZM6.06819 24.8859L7.73019 20.5434L9.39219 24.8859H6.06819ZM8.81919 17.6994L10.6244 12.9834L12.4289 17.6994L10.6244 22.2939L8.81919 17.6994ZM11.8552 24.8859L13.5172 20.5434L15.1792 24.8859H11.8552ZM14.6054 17.6994L16.4099 12.9834L18.2144 17.6994L16.4099 22.2939L14.6054 17.6994ZM17.6422 24.8859L19.3042 20.5434L20.9662 24.8859H17.6422ZM21.6862 20.9919L20.3924 17.6994L22.3042 12.7051L22.6124 13.5106L21.6862 20.9919Z" fill="#9AAAB4"/>
<path d="M24.0171 26.3859C24.0171 25.988 23.8591 25.6065 23.5777 25.3252C23.2964 25.0439 22.9149 24.8859 22.5171 24.8859H4.51709C4.11927 24.8859 3.73773 25.0439 3.45643 25.3252C3.17513 25.6065 3.01709 25.988 3.01709 26.3859C3.01709 26.7837 3.17513 27.1652 3.45643 27.4465C3.73773 27.7278 4.11927 27.8859 4.51709 27.8859H22.5171C22.9149 27.8859 23.2964 27.7278 23.5777 27.4465C23.8591 27.1652 24.0171 26.7837 24.0171 26.3859ZM27.0171 2.38586C27.0171 1.98804 26.8591 1.60651 26.5778 1.3252C26.2964 1.0439 25.9149 0.885864 25.5171 0.885864H1.51709C1.11927 0.885864 0.737734 1.0439 0.45643 1.3252C0.175125 1.60651 0.0170898 1.98804 0.0170898 2.38586C0.0170898 2.78369 0.175125 3.16522 0.45643 3.44652C0.737734 3.72783 1.11927 3.88586 1.51709 3.88586H25.5171C25.9149 3.88586 26.2964 3.72783 26.5778 3.44652C26.8591 3.16522 27.0171 2.78369 27.0171 2.38586Z" fill="#67757F"/>
</g>
<defs>
<clipPath id="clip0">
<rect width="27" height="27" fill="white" transform="translate(0.0170898 0.885864)"/>
</clipPath>
</defs>
</svg>
