<svg width="56" height="56" viewBox="0 0 56 56" fill="none" xmlns="http://www.w3.org/2000/svg">
<path d="M4.11205 4.1333L51.4322 51.4535" stroke="#292929" stroke-width="2"/>
<circle cx="4.11205" cy="4.13329" r="2.58328" transform="rotate(45 4.11205 4.13329)" fill="#292929"/>
<circle cx="4.11205" cy="4.13329" r="2.58328" transform="rotate(45 4.11205 4.13329)" fill="#292929"/>
<circle cx="4.11205" cy="4.13329" r="2.58328" transform="rotate(45 4.11205 4.13329)" fill="#292929"/>
<circle cx="4.11205" cy="4.13329" r="2.58328" transform="rotate(45 4.11205 4.13329)" fill="#292929"/>
<circle cx="51.6324" cy="51.6536" r="2.58328" transform="rotate(45 51.6324 51.6536)" fill="#292929"/>
<circle cx="51.6324" cy="51.6536" r="2.58328" transform="rotate(45 51.6324 51.6536)" fill="#292929"/>
<circle cx="51.6324" cy="51.6536" r="2.58328" transform="rotate(45 51.6324 51.6536)" fill="#292929"/>
<circle cx="51.6324" cy="51.6536" r="2.58328" transform="rotate(45 51.6324 51.6536)" fill="#292929"/>
<path d="M4.11206 51.6537L51.4323 4.33349" stroke="#292929" stroke-width="2"/>
<circle cx="4.11205" cy="51.6537" r="2.58328" transform="rotate(-45 4.11205 51.6537)" fill="#292929"/>
<circle cx="4.11205" cy="51.6537" r="2.58328" transform="rotate(-45 4.11205 51.6537)" fill="#292929"/>
<circle cx="4.11205" cy="51.6537" r="2.58328" transform="rotate(-45 4.11205 51.6537)" fill="#292929"/>
<circle cx="4.11205" cy="51.6537" r="2.58328" transform="rotate(-45 4.11205 51.6537)" fill="#292929"/>
<circle cx="51.6324" cy="4.13333" r="2.58328" transform="rotate(-45 51.6324 4.13333)" fill="#292929"/>
<circle cx="51.6324" cy="4.13333" r="2.58328" transform="rotate(-45 51.6324 4.13333)" fill="#292929"/>
<circle cx="51.6324" cy="4.13333" r="2.58328" transform="rotate(-45 51.6324 4.13333)" fill="#292929"/>
<circle cx="51.6324" cy="4.13333" r="2.58328" transform="rotate(-45 51.6324 4.13333)" fill="#292929"/>
</svg>
