<svg width="21" height="23" viewBox="0 0 21 23" fill="none" xmlns="http://www.w3.org/2000/svg">
<path d="M7.38707 22.877C5.78562 22.877 4.27527 22.3661 3.01929 21.3993C2.78468 21.2188 2.5591 21.0216 2.34855 20.8136C0.882455 19.3647 0.144682 17.435 0.271439 15.3798C0.36726 13.8264 0.992885 12.329 2.03402 11.1632C3.41288 9.61937 5.31382 8.76902 7.38749 8.76902C7.74371 8.76902 8.10335 8.79566 8.45742 8.84809L9.00742 8.92973V13.8105L8.1605 13.5308C7.91386 13.4492 7.65734 13.4079 7.39781 13.4079C6.7421 13.4079 6.12808 13.6649 5.66874 14.1311C5.21156 14.5952 4.96535 15.2088 4.9748 15.8597C4.98726 16.6989 5.42941 17.4595 6.1573 17.8952C6.49246 18.0954 6.87402 18.2127 7.2616 18.2342C7.56753 18.2509 7.8696 18.211 8.16007 18.1152C9.15308 17.7873 9.82039 16.8661 9.82039 15.8232L9.82468 10.7615V0.876953H14.4894L14.495 1.51547C14.4975 1.80465 14.5272 2.09383 14.583 2.37398C14.8022 3.4757 15.4201 4.45754 16.3228 5.13816C17.1242 5.74273 18.0807 6.06199 19.0879 6.06199C19.1115 6.06199 19.1115 6.06199 19.3268 6.07703L19.9262 6.11914V10.0723V10.7168L19.7114 10.7164H19.283C19.2795 10.7164 19.2761 10.7164 19.2722 10.7164H19.0664C19.0655 10.7164 19.0643 10.7164 19.063 10.7164C17.8207 10.7164 16.6567 10.4796 15.503 9.99277C15.1593 9.84754 14.8245 9.68168 14.5014 9.49648L14.516 15.8477C14.5083 17.7263 13.7658 19.4884 12.4256 20.8132C11.338 21.8878 9.96562 22.5745 8.45656 22.7979C8.10464 22.8503 7.74499 22.877 7.38707 22.877V22.877ZM7.38707 10.0581C5.68593 10.0581 4.12617 10.7555 2.99523 12.0218C2.14617 12.9727 1.6357 14.1934 1.55749 15.4588C1.45437 17.1368 2.05679 18.7129 3.25433 19.8962C3.42749 20.0672 3.61269 20.2292 3.80519 20.3775C4.83386 21.1694 6.07265 21.5879 7.38707 21.5879C7.68183 21.5879 7.97789 21.566 8.26792 21.523C9.50414 21.34 10.6286 20.7775 11.5198 19.8966C12.6146 18.8147 13.2209 17.3765 13.2274 15.8468L13.2072 6.97852L14.2483 7.7816C14.7859 8.19625 15.3771 8.54086 16.0049 8.80598C16.863 9.1682 17.7279 9.3693 18.6367 9.41699V7.33516C17.5135 7.25094 16.4526 6.85176 15.5464 6.16812C14.3905 5.29672 13.5995 4.03859 13.3185 2.62621C13.2884 2.47453 13.2639 2.32113 13.2459 2.16645H11.1133V10.7619L11.109 15.8236C11.109 17.4234 10.0864 18.8362 8.56398 19.3389C8.12011 19.4854 7.6582 19.5464 7.1907 19.5211C6.59515 19.4884 6.00906 19.3084 5.49515 19.0012C4.38097 18.3347 3.70421 17.1673 3.68531 15.8786C3.6707 14.88 4.04839 13.9382 4.74964 13.2262C5.45304 12.512 6.3932 12.1189 7.39695 12.1189C7.50437 12.1189 7.61093 12.1236 7.71749 12.1326V10.0671C7.60749 10.0611 7.49707 10.0581 7.38707 10.0581V10.0581Z" fill="white" stroke="white" stroke-width="0.5"/>
</svg>
