<svg width="136" height="92" viewBox="0 0 136 92" fill="none" xmlns="http://www.w3.org/2000/svg">
<path d="M67.4001 32.3C68.9001 32.3 70.1001 31.1 70.1001 29.6V19C70.1001 18.3 69.8001 17.6 69.3001 17.1L53.3001 0.899979C52.8001 0.399979 52.1001 0.0999756 51.4001 0.0999756H8.6001C4.2001 0.0999756 0.600098 3.69998 0.600098 8.09998V29.7C0.600098 31.2 1.8001 32.4 3.3001 32.4H6.0001V37.7H3.3001C1.8001 37.7 0.600098 38.9 0.600098 40.4V83.3C0.600098 87.7 4.2001 91.3 8.6001 91.3H62.1001C66.5001 91.3 70.1001 87.7 70.1001 83.3V40.4C70.1001 39.7 69.8001 39 69.3001 38.5C68.8001 38 68.1001 37.7 67.4001 37.7H64.7001V32.4H67.4001V32.3ZM56.9001 77.9H14.0001V50.5H56.9001V77.9Z" fill="#5BD6DE"/>
<path d="M67.4001 32.3C68.9001 32.3 70.1001 31.1 70.1001 29.6V19C70.1001 18.3 69.8001 17.6 69.3001 17.1L53.3001 0.899979C52.8001 0.399979 52.1001 0.0999756 51.4001 0.0999756H8.6001C4.2001 0.0999756 0.600098 3.69998 0.600098 8.09998V29.7C0.600098 31.2 1.8001 32.4 3.3001 32.4H6.0001V37.7H3.3001C1.8001 37.7 0.600098 38.9 0.600098 40.4V83.3C0.600098 87.7 4.2001 91.3 8.6001 91.3H62.1001C66.5001 91.3 70.1001 87.7 70.1001 83.3V40.4C70.1001 39.7 69.8001 39 69.3001 38.5C68.8001 38 68.1001 37.7 67.4001 37.7H64.7001V32.4H67.4001V32.3ZM60.2001 42.2C60.7001 42.7 61.4001 43 62.1001 43H64.8001V83.3C64.8001 84.8 63.6001 86 62.1001 86H8.6001C7.1001 86 5.9001 84.8 5.9001 83.3V43H8.6001C10.1001 43 11.3001 41.8 11.3001 40.3V29.6C11.3001 28.1 10.1001 26.9 8.6001 26.9H6.0001V7.99998C6.0001 6.49998 7.2001 5.29998 8.7001 5.29998H50.4001L64.9001 19.9V26.8H62.2001C60.7001 26.8 59.5001 28 59.5001 29.5V40.2C59.4001 41.1 59.7001 41.7 60.2001 42.2Z" fill="black"/>
<path d="M14.0003 10.8C12.5003 10.8 11.3003 12 11.3003 13.5V19C11.3003 20.5 12.5003 21.7 14.0003 21.7C15.5003 21.7 16.7003 20.5 16.7003 19V13.5C16.7003 12 15.5003 10.8 14.0003 10.8Z" fill="black"/>
<path d="M24.7 10.8C23.2 10.8 22 12 22 13.5V19C22 20.5 23.2 21.7 24.7 21.7C26.2 21.7 27.4 20.5 27.4 19V13.5C27.4 12 26.2 10.8 24.7 10.8Z" fill="black"/>
<path d="M35.4002 10.8C33.9002 10.8 32.7002 12 32.7002 13.5V19C32.7002 20.5 33.9002 21.7 35.4002 21.7C36.9002 21.7 38.1002 20.5 38.1002 19V13.5C38.0002 12 36.8002 10.8 35.4002 10.8Z" fill="black"/>
<path d="M46.0999 10.8C44.5999 10.8 43.3999 12 43.3999 13.5V19C43.3999 20.5 44.5999 21.7 46.0999 21.7C47.5999 21.7 48.7999 20.5 48.7999 19V13.5C48.6999 12 47.4999 10.8 46.0999 10.8Z" fill="black"/>
<path d="M56.8003 48.4H14.0003C12.5003 48.4 11.3003 49.6 11.3003 51.1V78C11.3003 79.5 12.5003 80.7 14.0003 80.7H56.8003C58.3003 80.7 59.5003 79.5 59.5003 78V51C59.4003 49.6 58.2003 48.4 56.8003 48.4ZM38.0003 53.7H43.3003V64.4H38.0003V53.7ZM27.4003 53.7H32.7003V64.4H27.4003V53.7V53.7ZM16.7003 53.7H22.0003V64.4H16.7003V53.7ZM54.1003 75.3H16.7003V69.8H54.1003V75.3V75.3ZM54.1003 64.4H48.8003V53.7H54.1003V64.4Z" fill="black"/>
<path d="M83.3003 88.2C81.3003 86.4 80.3003 83.7 80.3003 80V57C80.3003 53.4 81.3003 50.7 83.3003 48.8C85.3003 47 88.1003 46.1 91.8003 46.1H100.8V51H91.1003C89.5003 51 88.2003 51.5 87.3003 52.4C86.3003 53.3 85.8003 54.5 85.8003 55.8V81.3C85.8003 82.6 86.3003 83.8 87.3003 84.7C88.3003 85.6 89.6003 86.1 91.1003 86.1H97.4003V72.2H91.8003V67.4H102.7V91H91.8003C88.1003 91 85.3003 90.1 83.3003 88.2Z" fill="#231F20" stroke="black" stroke-width="0.72" stroke-miterlimit="10"/>
<path d="M132.4 88.7C130.7 90.2 127.9 91 124 91H111.2V46.2H123.2C127 46.2 129.8 47 131.6 48.5C133.4 50 134.3 52.6 134.3 56.2V59.8C134.3 63.1 133.1 65.6 130.8 67.2C133.6 68.7 135 71.4 135 75.1V80.8999C135 84.4999 134.1 87.1 132.4 88.7ZM127.6 52.1C126.9 51.4 125.7 51 124 51H116.8V65.1H124C125.3 65.1 126.4 64.7 127.3 63.8C128.2 62.9 128.6 61.7999 128.6 60.3999V55.5C128.8 54 128.4 52.8 127.6 52.1ZM128.1 71.2C127.2 70.4 126.1 70 124.7 70H116.8V86.3H124.6C126.2 86.3 127.4 85.9 128.2 85.2C129 84.5 129.4 83.3 129.4 81.6V74.6C129.4 73.1 129 72 128.1 71.2Z" fill="#231F20" stroke="black" stroke-width="0.72" stroke-miterlimit="10"/>
</svg>
