<svg width="135" height="92" viewBox="0 0 135 92" fill="none" xmlns="http://www.w3.org/2000/svg">
<path d="M66.8 32.7C68.3 32.7 69.5 31.5 69.5 30V19.3C69.5 18.6 69.2 17.9 68.7 17.4L52.7 1.20004C52.2 0.700043 51.5 0.400024 50.8 0.400024H8C3.6 0.400024 0 4.00002 0 8.40002V30C0 31.5 1.2 32.7 2.7 32.7H5.4V38H2.7C1.2 38 0 39.2 0 40.7V83.6C0 88 3.6 91.6 8 91.6H61.5C65.9 91.6 69.5 88 69.5 83.6V40.7C69.5 40 69.2 39.3 68.7 38.8C68.2 38.3 67.5 38 66.8 38H64.1V32.7H66.8ZM56.3 78.3H13.4V50.9H56.3V78.3Z" fill="#F6A5C6"/>
<path d="M66.8 32.7C68.3 32.7 69.5 31.5 69.5 30V19.3C69.5 18.6 69.2 17.9 68.7 17.4L52.7 1.20004C52.2 0.700043 51.5 0.400024 50.8 0.400024H8C3.6 0.400024 0 4.00002 0 8.40002V30C0 31.5 1.2 32.7 2.7 32.7H5.4V38H2.7C1.2 38 0 39.2 0 40.7V83.6C0 88 3.6 91.6 8 91.6H61.5C65.9 91.6 69.5 88 69.5 83.6V40.7C69.5 40 69.2 39.3 68.7 38.8C68.2 38.3 67.5 38 66.8 38H64.1V32.7H66.8ZM59.6 42.6C60.1 43.1 60.8 43.4 61.5 43.4H64.2V83.7C64.2 85.2 63 86.4 61.5 86.4H8C6.5 86.4 5.3 85.2 5.3 83.7V43.4H8C9.5 43.4 10.7 42.2 10.7 40.7V30C10.7 28.5 9.5 27.3 8 27.3H5.3V8.40002C5.3 6.90002 6.5 5.70004 8 5.70004H49.7L64.2 20.3V27.2H61.5C60 27.2 58.8 28.4 58.8 29.9V40.6C58.8 41.4 59.1 42.1 59.6 42.6Z" fill="black"/>
<path d="M13.4002 11.1001C11.9002 11.1001 10.7002 12.3001 10.7002 13.8001V19.3001C10.7002 20.8001 11.9002 22.0001 13.4002 22.0001C14.9002 22.0001 16.1002 20.8001 16.1002 19.3001V13.8001C16.0002 12.3001 14.8002 11.1001 13.4002 11.1001Z" fill="black"/>
<path d="M24.0999 11.1001C22.5999 11.1001 21.3999 12.3001 21.3999 13.8001V19.3001C21.3999 20.8001 22.5999 22.0001 24.0999 22.0001C25.5999 22.0001 26.7999 20.8001 26.7999 19.3001V13.8001C26.6999 12.3001 25.4999 11.1001 24.0999 11.1001Z" fill="black"/>
<path d="M34.7 11.1001C33.2 11.1001 32 12.3001 32 13.8001V19.3001C32 20.8001 33.2 22.0001 34.7 22.0001C36.2 22.0001 37.4 20.8001 37.4 19.3001V13.8001C37.4 12.3001 36.2 11.1001 34.7 11.1001Z" fill="black"/>
<path d="M45.4002 11.1001C43.9002 11.1001 42.7002 12.3001 42.7002 13.8001V19.3001C42.7002 20.8001 43.9002 22.0001 45.4002 22.0001C46.9002 22.0001 48.1002 20.8001 48.1002 19.3001V13.8001C48.1002 12.3001 46.9002 11.1001 45.4002 11.1001Z" fill="black"/>
<path d="M56.1002 48.7001H13.4002C11.9002 48.7001 10.7002 49.9001 10.7002 51.4001V78.3C10.7002 79.8 11.9002 81.0001 13.4002 81.0001H56.2002C57.7002 81.0001 58.9002 79.8 58.9002 78.3V51.4001C58.8002 49.9001 57.6002 48.7001 56.1002 48.7001ZM37.4002 54.1001H42.7002V64.8H37.4002V54.1001ZM26.7002 54.1001H32.0002V64.8H26.7002V54.1001ZM16.0002 54.1001H21.3002V64.8H16.0002V54.1001ZM53.5002 75.6001H16.0002V70.1001H53.4002V75.6001H53.5002ZM53.5002 64.7001H48.2002V54.0001H53.5002V64.7001Z" fill="black"/>
<path d="M84.3998 74.8V91.3H78.7998V46.5H84.3998V65.8L96.5998 46.5H102.7L90.2998 66.3L103.4 91.3H96.9998L86.7998 71.1L84.3998 74.8Z" fill="#231F20" stroke="black" stroke-width="0.72" stroke-miterlimit="10"/>
<path d="M131.8 89C130.1 90.5 127.3 91.3 123.4 91.3H110.6V46.5H122.6C126.4 46.5 129.2 47.3 131 48.8C132.8 50.3 133.7 52.9 133.7 56.5V60.1C133.7 63.4 132.5 65.9 130.2 67.5C133 69 134.4 71.7 134.4 75.4V81.2C134.3 84.9 133.5 87.5 131.8 89ZM127 52.4C126.3 51.7 125.1 51.3 123.4 51.3H116.2V65.4H123.4C124.7 65.4 125.8 65 126.7 64.1C127.6 63.2 128 62.1 128 60.7V55.8C128.1 54.3 127.8 53.1 127 52.4ZM127.5 71.5C126.6 70.7 125.5 70.3 124.1 70.3H116.2V86.6H124C125.6 86.6 126.8 86.2 127.6 85.5C128.4 84.8 128.8 83.6 128.8 81.9V74.9C128.8 73.5 128.3 72.3 127.5 71.5Z" fill="#231F20" stroke="black" stroke-width="0.72" stroke-miterlimit="10"/>
</svg>
