<svg width="25" height="25" viewBox="0 0 25 25" fill="none" xmlns="http://www.w3.org/2000/svg">
<path fill-rule="evenodd" clip-rule="evenodd" d="M8.2408 4.17303C9.4228 2.76903 11.0968 2.10303 12.9928 2.10303C14.9328 2.10303 16.5968 2.88703 17.7568 4.31603C18.7868 5.58603 19.3698 7.30003 19.4758 9.29303L19.5678 9.30703L19.5878 9.31003C19.7578 9.33403 19.9608 9.36403 20.1718 9.40503C20.9528 9.55603 22.2858 9.93803 22.7448 11.369C22.9748 12.088 22.8598 12.754 22.4568 13.282C22.1098 13.737 21.6138 14 21.2588 14.159C21.0828 14.239 20.9068 14.307 20.7588 14.364C21.1048 15.3 21.7068 16.263 22.3728 17.135C22.9998 17.957 22.8338 18.998 22.5098 19.677C22.1848 20.357 21.4828 21.134 20.4608 21.178C19.8828 21.203 19.2758 21.263 18.6718 21.373C18.3988 21.423 18.0768 21.532 17.6768 21.697C17.4378 21.795 17.2188 21.893 16.9828 21.998C16.7948 22.082 16.5968 22.17 16.3678 22.268C15.4278 22.672 14.2728 23.103 12.9928 23.103C11.7128 23.103 10.5578 22.672 9.6178 22.268C9.3888 22.17 9.1898 22.082 9.0028 21.998C8.77288 21.8945 8.54153 21.7941 8.3088 21.697C7.9088 21.532 7.5868 21.422 7.3138 21.372C6.7098 21.262 6.1028 21.203 5.5238 21.178C4.5028 21.134 3.7998 20.357 3.4758 19.677C3.1518 18.998 2.9858 17.957 3.6128 17.135C4.2828 16.257 4.8878 15.287 5.2328 14.345C5.08141 14.2855 4.93169 14.2218 4.7838 14.154C4.4378 13.992 3.9678 13.733 3.6208 13.299C3.2338 12.813 3.0628 12.186 3.2148 11.468C3.5388 9.93103 4.9848 9.54803 5.7488 9.40403C5.9658 9.36403 6.1768 9.33403 6.3538 9.30903L6.3888 9.30403L6.5088 9.28703C6.6078 7.16203 7.1868 5.42403 8.2408 4.17303ZM9.7708 5.46103C9.0078 6.36603 8.4928 7.82103 8.4928 9.96103V10.065L8.4708 10.168C8.3598 10.692 7.9568 10.937 7.7568 11.031C7.5468 11.13 7.3198 11.179 7.1598 11.209C7.0038 11.238 6.8298 11.262 6.6748 11.283L6.6288 11.29C6.45785 11.3126 6.28747 11.3393 6.1178 11.37C5.3528 11.513 5.2078 11.703 5.1708 11.88C5.1448 12.007 5.1678 12.033 5.1808 12.047L5.1848 12.051C5.2378 12.118 5.3658 12.218 5.6318 12.342C5.7558 12.4 5.8868 12.453 6.0318 12.512L6.0678 12.526C6.1948 12.576 6.3458 12.637 6.4788 12.7C6.6098 12.76 6.8288 12.87 7.0148 13.048C7.2308 13.255 7.4918 13.659 7.3648 14.192C7.0008 15.723 6.0818 17.197 5.2038 18.347C5.19044 18.3807 5.18496 18.4169 5.1878 18.453C5.1878 18.548 5.2148 18.678 5.2798 18.815C5.3458 18.952 5.4298 19.057 5.5078 19.12C5.5718 19.172 5.6078 19.18 5.6118 19.18C6.2628 19.208 6.9618 19.276 7.6718 19.405C8.1548 19.493 8.6318 19.667 9.0718 19.849C9.3148 19.949 9.5938 20.073 9.8648 20.193C10.0538 20.277 10.2388 20.359 10.4048 20.43C11.3038 20.815 12.1428 21.103 12.9928 21.103C13.8428 21.103 14.6828 20.815 15.5808 20.43C15.7468 20.359 15.9318 20.276 16.1208 20.193C16.3908 20.073 16.6708 19.949 16.9128 19.849C17.3528 19.667 17.8298 19.493 18.3128 19.405C19.0228 19.275 19.7228 19.208 20.3728 19.18C20.3788 19.18 20.4138 19.172 20.4778 19.12C20.5745 19.0356 20.6522 18.9317 20.7058 18.815C20.7619 18.7023 20.7933 18.5789 20.7978 18.453C20.7978 18.36 20.7748 18.338 20.7828 18.349C19.9048 17.199 18.9848 15.724 18.6198 14.192C18.4848 13.622 18.7938 13.212 19.0068 13.022C19.1968 12.854 19.4188 12.749 19.5538 12.69C19.6888 12.63 19.8408 12.573 19.9708 12.524L20.0188 12.505C20.1718 12.448 20.3088 12.395 20.4378 12.336C20.7078 12.215 20.8228 12.122 20.8618 12.075C20.8583 12.0427 20.8512 12.0108 20.8408 11.98C20.7498 11.696 20.4928 11.504 19.7908 11.368C19.6318 11.338 19.4708 11.314 19.3008 11.288L19.2628 11.283C19.1045 11.2615 18.9468 11.2362 18.7898 11.207C18.5861 11.1713 18.388 11.1088 18.2008 11.021C17.9908 10.917 17.6208 10.668 17.5148 10.168L17.4928 10.065V9.96003C17.4928 8.01003 16.9858 6.54003 16.2038 5.57703C15.4388 4.63303 14.3538 4.10303 12.9928 4.10303C11.5878 4.10303 10.5128 4.57903 9.7698 5.46103H9.7708Z" fill="white"/>
</svg>
