<svg width="25" height="25" viewBox="0 0 25 25" fill="none" xmlns="http://www.w3.org/2000/svg">
<path fill-rule="evenodd" clip-rule="evenodd" d="M14.9544 5.7609C14.4976 5.76071 14.0464 5.86195 13.6334 6.05731C13.2205 6.25268 12.856 6.53729 12.5664 6.89061C12.2768 7.24393 12.0693 7.65715 11.9588 8.10042C11.8483 8.5437 11.8375 9.00598 11.9274 9.4539C11.9583 9.60909 11.952 9.76942 11.9089 9.92169C11.8658 10.074 11.7872 10.2138 11.6795 10.3298C11.5719 10.4458 11.4382 10.5345 11.2895 10.5888C11.1409 10.6431 10.9815 10.6613 10.8244 10.6419C8.67414 10.3778 6.64713 9.49385 4.99041 8.0979C5.02141 8.6999 5.23041 9.3399 5.68341 10.0099L6.36241 11.0139L5.24741 11.4889L5.03241 11.5809C5.19241 11.7639 5.38441 11.9509 5.59941 12.1359C5.88682 12.3819 6.19088 12.6078 6.50941 12.8119L6.52041 12.8189H6.52141L8.06941 13.7579L6.44941 14.5679C6.36941 14.6079 6.28941 14.6439 6.20941 14.6759C6.55775 14.9653 6.94149 15.2093 7.35141 15.4019L8.74141 16.0589L7.57741 17.0629C6.94241 17.6109 6.30341 18.0199 5.47441 18.2359C6.74584 18.9131 8.16485 19.2659 9.60541 19.2629C14.4114 19.2629 18.2814 15.4279 18.2814 10.7289V10.2089L18.7064 9.9099C19.3704 9.4439 19.8394 8.8139 20.1754 8.0929H18.0154L17.7434 7.5229C17.4929 6.99556 17.098 6.55009 16.6045 6.23821C16.111 5.92632 15.5392 5.76081 14.9554 5.7609H14.9544ZM3.67441 13.0609C3.58004 13.169 3.51004 13.2961 3.46914 13.4336C3.42825 13.5711 3.41743 13.7158 3.43741 13.8579C3.55041 14.6589 4.02941 15.3489 4.55941 15.8759C4.70341 16.0189 4.85741 16.1559 5.01941 16.2869L4.94441 16.3069C4.46341 16.4269 3.81441 16.4519 2.73341 16.3469C2.52927 16.3269 2.3239 16.3701 2.14516 16.4707C1.96642 16.5714 1.82295 16.7245 1.73419 16.9094C1.64544 17.0944 1.61571 17.3021 1.64902 17.5045C1.68233 17.7069 1.77707 17.8942 1.92041 18.0409C2.92118 19.0638 4.1167 19.8759 5.43643 20.4293C6.75616 20.9827 8.17336 21.2661 9.60441 21.2629C15.3174 21.2629 20.0034 16.8269 20.2684 11.2289C21.5584 10.1459 22.2034 8.6789 22.5514 7.3459C22.5901 7.19795 22.5943 7.0431 22.5638 6.89325C22.5333 6.7434 22.4688 6.60256 22.3753 6.48154C22.2818 6.36052 22.1618 6.26256 22.0245 6.19518C21.8872 6.12781 21.7363 6.09281 21.5834 6.0929H19.2304C18.6549 5.19922 17.8138 4.50834 16.8253 4.11733C15.8368 3.72632 14.7507 3.65484 13.7196 3.91294C12.6884 4.17104 11.764 4.74573 11.0763 5.55627C10.3886 6.36682 9.97211 7.37246 9.88541 8.4319C8.04206 7.95205 6.39274 6.9127 5.16441 5.4569C5.05563 5.32828 4.91612 5.22922 4.75883 5.16893C4.60154 5.10863 4.43156 5.08904 4.26468 5.11199C4.0978 5.13493 3.93942 5.19966 3.80423 5.30016C3.66905 5.40067 3.56144 5.5337 3.49141 5.6869C2.88541 7.0089 2.76941 8.5329 3.44541 10.0829L3.21141 10.1829C2.98748 10.2783 2.80604 10.4521 2.70111 10.6718C2.59618 10.8914 2.57495 11.1417 2.64141 11.3759C2.82741 12.0279 3.24541 12.6039 3.67341 13.0609H3.67441Z" fill="white"/>
</svg>
