<?xml version="1.0" encoding="utf-8"?>
<!-- Generator: Adobe Illustrator 25.4.1, SVG Export Plug-In . SVG Version: 6.00 Build 0)  -->
<svg version="1.1" id="Layer_1" xmlns="http://www.w3.org/2000/svg" xmlns:xlink="http://www.w3.org/1999/xlink" x="0px" y="0px"
	 viewBox="0 0 283.3 292.6" style="enable-background:new 0 0 283.3 292.6;" xml:space="preserve">
<style type="text/css">
	.st0{fill:#FFFFFF;}
</style>
<g>
	<path class="st0" d="M141.6,36.3c29.4,0,57,11.4,77.8,32.2c20.8,20.8,32.2,48.4,32.2,77.8s-11.4,57-32.2,77.8
		c-20.8,20.8-48.4,32.2-77.8,32.2s-57-11.4-77.8-32.2c-20.8-20.8-32.2-48.4-32.2-77.8s11.4-57,32.2-77.8
		C84.6,47.7,112.2,36.3,141.6,36.3 M141.6,18.3c-70.7,0-128,57.3-128,128s57.3,128,128,128s128-57.3,128-128S212.3,18.3,141.6,18.3
		L141.6,18.3z"/>
	<path class="st0" d="M131.1,101c19.3-4.3,38.6,3.6,49.3,18.6l-85.3,19.3C98,120.6,111.8,105.3,131.1,101z M180.9,171.8
		c-6.7,9.8-16.9,16.7-28.6,19.3c-19.3,4.3-38.8-3.6-49.6-18.8l85.5-19.3l13.8-3.1l26.7-6c-0.2-5.7-1-11.4-2.1-16.9
		C215.9,81,169,52.2,122.1,62.9s-76.2,56.5-65.3,102.7s57.7,74.8,104.6,64.1c27.6-6.2,49.1-24.8,60-48.4L180.9,171.8L180.9,171.8z"
		/>
</g>
</svg>
