<svg width="25" height="25" viewBox="0 0 25 25" fill="none" xmlns="http://www.w3.org/2000/svg">
<path fill-rule="evenodd" clip-rule="evenodd" d="M2.33044 6.10303C2.33044 5.04216 2.75187 4.02475 3.50202 3.2746C4.25216 2.52445 5.26958 2.10303 6.33044 2.10303H18.3304C19.3913 2.10303 20.4087 2.52445 21.1589 3.2746C21.909 4.02475 22.3304 5.04216 22.3304 6.10303V18.103C22.3304 19.1639 21.909 20.1813 21.1589 20.9315C20.4087 21.6816 19.3913 22.103 18.3304 22.103H6.33044C5.26958 22.103 4.25216 21.6816 3.50202 20.9315C2.75187 20.1813 2.33044 19.1639 2.33044 18.103V6.10303ZM6.33044 4.10303C5.80001 4.10303 5.2913 4.31374 4.91623 4.68881C4.54116 5.06389 4.33044 5.57259 4.33044 6.10303V18.103C4.33044 18.6335 4.54116 19.1422 4.91623 19.5172C5.2913 19.8923 5.80001 20.103 6.33044 20.103H12.3304V13.103H11.3304C11.0652 13.103 10.8109 12.9977 10.6233 12.8101C10.4358 12.6226 10.3304 12.3682 10.3304 12.103C10.3304 11.8378 10.4358 11.5835 10.6233 11.3959C10.8109 11.2084 11.0652 11.103 11.3304 11.103H12.3304V9.60303C12.3304 8.67477 12.6992 7.78453 13.3556 7.12815C14.0119 6.47178 14.9022 6.10303 15.8304 6.10303H16.4304C16.6957 6.10303 16.95 6.20838 17.1376 6.39592C17.3251 6.58346 17.4304 6.83781 17.4304 7.10303C17.4304 7.36824 17.3251 7.6226 17.1376 7.81013C16.95 7.99767 16.6957 8.10303 16.4304 8.10303H15.8304C15.6335 8.10303 15.4384 8.14183 15.2564 8.21721C15.0744 8.29259 14.9091 8.40308 14.7698 8.54237C14.6305 8.68165 14.52 8.84701 14.4446 9.029C14.3692 9.21099 14.3304 9.40604 14.3304 9.60303V11.103H16.4304C16.6957 11.103 16.95 11.2084 17.1376 11.3959C17.3251 11.5835 17.4304 11.8378 17.4304 12.103C17.4304 12.3682 17.3251 12.6226 17.1376 12.8101C16.95 12.9977 16.6957 13.103 16.4304 13.103H14.3304V20.103H18.3304C18.8609 20.103 19.3696 19.8923 19.7447 19.5172C20.1197 19.1422 20.3304 18.6335 20.3304 18.103V6.10303C20.3304 5.57259 20.1197 5.06389 19.7447 4.68881C19.3696 4.31374 18.8609 4.10303 18.3304 4.10303H6.33044Z" fill="white"/>
</svg>
