<svg width="120" height="82" viewBox="0 0 120 82" fill="none" xmlns="http://www.w3.org/2000/svg">
<path d="M59.9672 29.1204C61.2894 29.1204 62.3471 28.0626 62.3471 26.7404V17.3088C62.3471 16.6917 62.0827 16.0747 61.6419 15.634L47.5385 1.35422C47.0096 0.913488 46.3926 0.649048 45.7755 0.649048H8.13695C4.17035 0.649048 0.99707 3.82233 0.99707 7.70078V26.7404C0.99707 28.0626 2.05483 29.1204 3.37703 29.1204H5.75699V33.7922H3.37703C2.05483 33.7922 0.99707 34.8499 0.99707 36.1721V73.987C0.99707 77.8655 4.17035 81.0387 8.0488 81.0387H55.2072C59.0857 81.0387 62.259 77.8655 62.259 73.987V36.1721C62.259 35.5551 61.9945 34.9381 61.5538 34.4973C61.1131 34.0566 60.496 33.7922 59.879 33.7922H57.499V29.1204H59.9672V29.1204ZM50.6236 69.3153H12.8087V45.1631H50.6236V69.3153Z" fill="#68E8AA"/>
<path d="M59.9672 29.1204C61.2894 29.1204 62.3471 28.0626 62.3471 26.7404V17.3088C62.3471 16.6917 62.0827 16.0747 61.6419 15.634L47.5385 1.35422C47.0096 0.913488 46.3926 0.649048 45.7755 0.649048H8.13695C4.17035 0.649048 0.99707 3.82233 0.99707 7.70078V26.7404C0.99707 28.0626 2.05483 29.1204 3.37703 29.1204H5.75699V33.7922H3.37703C2.05483 33.7922 0.99707 34.8499 0.99707 36.1721V73.987C0.99707 77.8655 4.17035 81.0387 8.0488 81.0387H55.2072C59.0857 81.0387 62.259 77.8655 62.259 73.987V36.1721C62.259 35.5551 61.9945 34.9381 61.5538 34.4973C61.1131 34.0566 60.496 33.7922 59.879 33.7922H57.499V29.1204H59.9672V29.1204ZM53.5324 37.8469C53.9732 38.2876 54.5902 38.5521 55.2072 38.5521H57.5872V74.0752C57.5872 75.3974 56.5294 76.4551 55.2072 76.4551H8.13695C6.81475 76.4551 5.75699 75.3974 5.75699 74.0752V38.4639H8.13695C9.45915 38.4639 10.5169 37.4062 10.5169 36.084V26.7404C10.5169 25.4182 9.45915 24.3605 8.13695 24.3605H5.75699V7.70078C5.75699 6.37858 6.81475 5.32082 8.13695 5.32082H44.8941L57.5872 18.2784V24.3605H55.2072C53.885 24.3605 52.8273 25.4182 52.8273 26.7404V36.1721C52.8273 36.7892 53.0917 37.4062 53.5324 37.8469Z" fill="black"/>
<path d="M12.8087 10.0807C11.4865 10.0807 10.4287 11.1384 10.4287 12.4606V17.3087C10.4287 18.6309 11.4865 19.6887 12.8087 19.6887C14.1309 19.6887 15.1886 18.6309 15.1886 17.3087V12.4606C15.1886 11.1384 14.1309 10.0807 12.8087 10.0807Z" fill="black"/>
<path d="M22.2403 10.0807C20.9181 10.0807 19.8604 11.1384 19.8604 12.4606V17.3087C19.8604 18.6309 20.9181 19.6887 22.2403 19.6887C23.5625 19.6887 24.6203 18.6309 24.6203 17.3087V12.4606C24.6203 11.1384 23.5625 10.0807 22.2403 10.0807Z" fill="black"/>
<path d="M31.672 10.0807C30.3498 10.0807 29.292 11.1384 29.292 12.4606V17.3087C29.292 18.6309 30.3498 19.6887 31.672 19.6887C32.9942 19.6887 34.0519 18.6309 34.0519 17.3087V12.4606C34.0519 11.1384 32.9942 10.0807 31.672 10.0807Z" fill="black"/>
<path d="M41.1036 10.0807C39.7814 10.0807 38.7236 11.1384 38.7236 12.4606V17.3087C38.7236 18.6309 39.7814 19.6887 41.1036 19.6887C42.4258 19.6887 43.4836 18.6309 43.4836 17.3087V12.4606C43.4836 11.1384 42.4258 10.0807 41.1036 10.0807Z" fill="black"/>
<path d="M50.5354 43.2239H12.8087C11.4865 43.2239 10.4287 44.2816 10.4287 45.6038V69.3153C10.4287 70.6375 11.4865 71.6952 12.8087 71.6952H50.5354C51.8576 71.6952 52.9154 70.6375 52.9154 69.3153V45.6038C52.8272 44.2816 51.7695 43.2239 50.5354 43.2239ZM34.052 47.8956H38.7238V57.3273H34.052V47.8956ZM24.6203 47.8956H29.2921V57.3273H24.6203V47.8956ZM15.1886 47.8956H19.8604V57.3273H15.1886V47.8956ZM48.1555 66.9353H15.1886V62.0872H48.1555V66.9353ZM48.1555 57.3273H43.4837V47.8956H48.1555V57.3273Z" fill="black"/>
<path d="M78.7424 80.7744V45.6039H69.7515V41.2847H92.5814V45.6039H83.5905V80.7744H78.7424Z" fill="#231F20" stroke="black" stroke-width="0.72" stroke-miterlimit="10"/>
<path d="M117.263 78.747C115.764 80.0692 113.296 80.7744 109.858 80.7744H98.5757V41.2847H109.153C112.503 41.2847 114.971 41.9898 116.558 43.312C118.144 44.6342 118.938 46.9261 118.938 50.0993V53.2726C118.938 56.1814 117.88 58.3851 115.852 59.7955C118.321 61.1177 119.555 63.4976 119.555 66.759V71.8715C119.466 75.0448 118.673 77.4248 117.263 78.747ZM113.032 46.4853C112.415 45.8683 111.357 45.5157 109.858 45.5157H103.512V57.9444H109.858C111.004 57.9444 111.974 57.5918 112.767 56.7985C113.561 56.0052 113.913 55.0355 113.913 53.8015V49.4823C114.001 48.1601 113.649 47.1023 113.032 46.4853ZM113.384 63.3213C112.591 62.6161 111.621 62.2636 110.387 62.2636H103.424V76.6315H110.299C111.71 76.6315 112.767 76.2789 113.472 75.6618C114.178 75.0448 114.53 73.9871 114.53 72.4886V66.3183C114.53 64.9961 114.178 64.0265 113.384 63.3213Z" fill="#231F20" stroke="black" stroke-width="0.72" stroke-miterlimit="10"/>
</svg>
