<svg width="138" height="92" viewBox="0 0 138 92" fill="none" xmlns="http://www.w3.org/2000/svg">
<path d="M66.8 32.8C68.3 32.8 69.5 31.6 69.5 30.1V19.4C69.5 18.7 69.2 18 68.7 17.5L52.7 1.3C52.2 0.800003 51.5 0.5 50.8 0.5H8C3.6 0.5 0 4.1 0 8.5V30.1C0 31.6 1.2 32.8 2.7 32.8H5.4V38.1H2.7C1.2 38.1 0 39.3 0 40.8V83.7C0 88.1 3.6 91.7 8 91.7H61.5C65.9 91.7 69.5 88.1 69.5 83.7V40.8C69.5 40.1 69.2 39.4 68.7 38.9C68.2 38.4 67.5 38.1 66.8 38.1H64.1V32.8H66.8ZM56.3 78.4H13.4V51H56.3V78.4Z" fill="#9E99DC"/>
<path d="M66.8 32.8C68.3 32.8 69.5 31.6 69.5 30.1V19.4C69.5 18.7 69.2 18 68.7 17.5L52.7 1.3C52.2 0.800003 51.5 0.5 50.8 0.5H8C3.6 0.5 0 4.1 0 8.5V30.1C0 31.6 1.2 32.8 2.7 32.8H5.4V38.1H2.7C1.2 38.1 0 39.3 0 40.8V83.7C0 88.1 3.6 91.7 8 91.7H61.5C65.9 91.7 69.5 88.1 69.5 83.7V40.8C69.5 40.1 69.2 39.4 68.7 38.9C68.2 38.4 67.5 38.1 66.8 38.1H64.1V32.8H66.8ZM59.6 42.7C60.1 43.2 60.8 43.5 61.5 43.5H64.2V83.8C64.2 85.3 63 86.5 61.5 86.5H8C6.5 86.5 5.3 85.3 5.3 83.8V43.5H8C9.5 43.5 10.7 42.3 10.7 40.8V30.1C10.7 28.6 9.5 27.4 8 27.4H5.3V8.5C5.3 7 6.5 5.8 8 5.8H49.7L64.2 20.4V27.3H61.5C60 27.3 58.8 28.5 58.8 30V40.7C58.8 41.5 59.1 42.2 59.6 42.7Z" fill="black"/>
<path d="M13.4002 11.2C11.9002 11.2 10.7002 12.3999 10.7002 13.8999V19.3999C10.7002 20.8999 11.9002 22.1 13.4002 22.1C14.9002 22.1 16.1002 20.8999 16.1002 19.3999V13.8999C16.0002 12.3999 14.8002 11.2 13.4002 11.2Z" fill="black"/>
<path d="M24.0999 11.2C22.5999 11.2 21.3999 12.3999 21.3999 13.8999V19.3999C21.3999 20.8999 22.5999 22.1 24.0999 22.1C25.5999 22.1 26.7999 20.8999 26.7999 19.3999V13.8999C26.6999 12.3999 25.4999 11.2 24.0999 11.2Z" fill="black"/>
<path d="M34.7 11.2C33.2 11.2 32 12.3999 32 13.8999V19.3999C32 20.8999 33.2 22.1 34.7 22.1C36.2 22.1 37.4 20.8999 37.4 19.3999V13.8999C37.4 12.3999 36.2 11.2 34.7 11.2Z" fill="black"/>
<path d="M45.4002 11.2C43.9002 11.2 42.7002 12.3999 42.7002 13.8999V19.3999C42.7002 20.8999 43.9002 22.1 45.4002 22.1C46.9002 22.1 48.1002 20.8999 48.1002 19.3999V13.8999C48.1002 12.3999 46.9002 11.2 45.4002 11.2Z" fill="black"/>
<path d="M56.1002 48.8H13.4002C11.9002 48.8 10.7002 50.0001 10.7002 51.5001V78.4001C10.7002 79.9001 11.9002 81.1001 13.4002 81.1001H56.2002C57.7002 81.1001 58.9002 79.9001 58.9002 78.4001V51.5001C58.8002 50.0001 57.6002 48.8 56.1002 48.8ZM37.4002 54.2001H42.7002V64.9001H37.4002V54.2001ZM26.7002 54.2001H32.0002V64.9001H26.7002V54.2001ZM16.0002 54.2001H21.3002V64.9001H16.0002V54.2001ZM53.5002 75.7001H16.0002V70.2001H53.4002V75.7001H53.5002ZM53.5002 64.9001H48.2002V54.2001H53.5002V64.9001Z" fill="black"/>
<path d="M96.5 76.4H91.2L84.9 51.2V91.4H80V46.6H89L94.1 69.5L99.3 46.6H107.9V91.4H102.9V51.2L96.5 76.4Z" fill="#231F20" stroke="black" stroke-width="0.72" stroke-miterlimit="10"/>
<path d="M134.8 89.1C133.1 90.6 130.3 91.4 126.4 91.4H113.6V46.6H125.6C129.4 46.6 132.2 47.4 134 48.9C135.8 50.4 136.7 53 136.7 56.6V60.2C136.7 63.5 135.5 66 133.2 67.6C136 69.1 137.4 71.8 137.4 75.5V81.3C137.3 85 136.5 87.6 134.8 89.1ZM130 52.5C129.3 51.8 128.1 51.4 126.4 51.4H119.2V65.5H126.4C127.7 65.5 128.8 65.1 129.7 64.2C130.6 63.3 131 62.2 131 60.8V56C131.1 54.4 130.8 53.2 130 52.5ZM130.5 71.6C129.6 70.8 128.5 70.4 127.1 70.4H119.2V86.7H127C128.6 86.7 129.8 86.3 130.6 85.6C131.4 84.9 131.8 83.7 131.8 82V75C131.8 73.6 131.3 72.4 130.5 71.6Z" fill="#231F20" stroke="black" stroke-width="0.72" stroke-miterlimit="10"/>
</svg>
