<svg width="25" height="25" viewBox="0 0 25 25" fill="none" xmlns="http://www.w3.org/2000/svg">
<path fill-rule="evenodd" clip-rule="evenodd" d="M6.75625 5.66691C8.90625 4.54891 11.6543 3.65691 14.0513 3.29691C16.1353 2.98391 18.3443 4.10891 19.3163 5.97891C20.4343 8.12891 21.3263 10.8769 21.6863 13.2749C21.9993 15.3579 20.8743 17.5669 19.0043 18.5389C16.8543 19.6569 14.1063 20.5489 11.7093 20.9089C9.62526 21.2219 7.41625 20.0969 6.44425 18.2269C5.32625 16.0769 4.43426 13.3289 4.07425 10.9319C3.76126 8.84791 4.88625 6.63891 6.75625 5.66691ZM13.7553 1.31891C11.1393 1.71091 8.18025 2.67291 5.83326 3.89191C3.20526 5.25791 1.65625 8.29891 2.09625 11.2279C2.48825 13.8439 3.44925 16.8029 4.66926 19.1499C6.03525 21.7779 9.07625 23.3269 12.0053 22.8879C14.6213 22.4949 17.5803 21.5329 19.9273 20.3139C22.5553 18.9479 24.1043 15.9069 23.6653 12.9779C23.2723 10.3619 22.3103 7.40291 21.0913 5.05591C19.7253 2.42791 16.6843 0.878911 13.7553 1.31891ZM9.75425 7.33591C9.71476 7.20971 9.65063 7.0926 9.56557 6.99135C9.48051 6.8901 9.37622 6.80672 9.25872 6.74605C9.14122 6.68538 9.01286 6.64861 8.88106 6.63788C8.74926 6.62715 8.61664 6.64266 8.49088 6.68352C8.36512 6.72439 8.24871 6.78979 8.14839 6.87594C8.04807 6.96209 7.96583 7.06729 7.90644 7.18544C7.84705 7.30358 7.81168 7.43234 7.80237 7.56425C7.79307 7.69616 7.81003 7.8286 7.85225 7.95391L8.47025 9.85591L6.56825 10.4739C6.31871 10.558 6.1124 10.7371 5.99413 10.9724C5.87585 11.2077 5.85515 11.4801 5.93653 11.7306C6.01791 11.981 6.19478 12.1893 6.42876 12.3101C6.66274 12.4309 6.93494 12.4546 7.18625 12.3759L9.08825 11.7579L10.0153 14.6109L8.11325 15.2289C7.86371 15.313 7.6574 15.4921 7.53913 15.7274C7.42085 15.9627 7.40015 16.2351 7.48153 16.4856C7.5629 16.736 7.73978 16.9443 7.97376 17.0651C8.20774 17.1859 8.47994 17.2096 8.73125 17.1309L10.6333 16.5129L11.2513 18.4149C11.3353 18.6645 11.5145 18.8708 11.7498 18.989C11.985 19.1073 12.2575 19.128 12.5079 19.0466C12.7584 18.9653 12.9666 18.7884 13.0874 18.5544C13.2083 18.3204 13.2319 18.0482 13.1533 17.7969L12.5353 15.8949L15.3883 14.9679L16.0063 16.8699C16.0903 17.1195 16.2695 17.3258 16.5048 17.444C16.74 17.5623 17.0125 17.583 17.2629 17.5016C17.5134 17.4203 17.7216 17.2434 17.8424 17.0094C17.9633 16.7754 17.9869 16.5032 17.9083 16.2519L17.2903 14.3499L19.1923 13.7319C19.3185 13.6924 19.4356 13.6283 19.5368 13.5432C19.6381 13.4582 19.7214 13.3539 19.7821 13.2364C19.8428 13.1189 19.8796 12.9905 19.8903 12.8587C19.901 12.7269 19.8855 12.5943 19.8446 12.4685C19.8038 12.3428 19.7384 12.2264 19.6522 12.126C19.5661 12.0257 19.4609 11.9435 19.3427 11.8841C19.2246 11.8247 19.0958 11.7893 18.9639 11.78C18.832 11.7707 18.6996 11.7877 18.5743 11.8299L16.6723 12.4479L15.7453 9.59491L17.6473 8.97691C17.8968 8.89282 18.1031 8.71369 18.2214 8.47841C18.3397 8.24313 18.3604 7.9707 18.279 7.72025C18.1976 7.4698 18.0207 7.26156 17.7867 7.14074C17.5528 7.01992 17.2806 6.99626 17.0293 7.07491L15.1273 7.69291L14.5093 5.79091C14.4698 5.66471 14.4056 5.5476 14.3206 5.44635C14.2355 5.3451 14.1312 5.26172 14.0137 5.20105C13.8962 5.14038 13.7679 5.10361 13.6361 5.09288C13.5043 5.08215 13.3716 5.09766 13.2459 5.13852C13.1201 5.17939 13.0037 5.24479 12.9034 5.33094C12.8031 5.41709 12.7208 5.52229 12.6614 5.64044C12.602 5.75858 12.5667 5.88734 12.5574 6.01925C12.5481 6.15115 12.565 6.2836 12.6073 6.40891L13.2253 8.31091L10.3723 9.23791L9.75425 7.33591ZM11.9173 13.9929L10.9903 11.1399L13.8433 10.2129L14.7703 13.0659L11.9173 13.9929Z" fill="white"/>
</svg>
