<svg width="25" height="25" viewBox="0 0 25 25" fill="none" xmlns="http://www.w3.org/2000/svg">
<path fill-rule="evenodd" clip-rule="evenodd" d="M2.2179 6.10303C2.2179 5.04216 2.63932 4.02475 3.38947 3.2746C4.13961 2.52445 5.15703 2.10303 6.2179 2.10303H18.2179C19.2788 2.10303 20.2962 2.52445 21.0463 3.2746C21.7965 4.02475 22.2179 5.04216 22.2179 6.10303V18.103C22.2179 19.1639 21.7965 20.1813 21.0463 20.9315C20.2962 21.6816 19.2788 22.103 18.2179 22.103H6.2179C5.15703 22.103 4.13961 21.6816 3.38947 20.9315C2.63932 20.1813 2.2179 19.1639 2.2179 18.103V6.10303ZM6.2179 4.10303C5.68746 4.10303 5.17875 4.31374 4.80368 4.68881C4.42861 5.06389 4.2179 5.57259 4.2179 6.10303V18.103C4.2179 18.6335 4.42861 19.1422 4.80368 19.5172C5.17875 19.8923 5.68746 20.103 6.2179 20.103H18.2179C18.7483 20.103 19.257 19.8923 19.6321 19.5172C20.0072 19.1422 20.2179 18.6335 20.2179 18.103V6.10303C20.2179 5.57259 20.0072 5.06389 19.6321 4.68881C19.257 4.31374 18.7483 4.10303 18.2179 4.10303H6.2179ZM12.2179 9.10303C11.4222 9.10303 10.6592 9.4191 10.0966 9.98171C9.53397 10.5443 9.2179 11.3074 9.2179 12.103C9.2179 12.8987 9.53397 13.6617 10.0966 14.2243C10.6592 14.787 11.4222 15.103 12.2179 15.103C13.0135 15.103 13.7766 14.787 14.3392 14.2243C14.9018 13.6617 15.2179 12.8987 15.2179 12.103C15.2179 11.3074 14.9018 10.5443 14.3392 9.98171C13.7766 9.4191 13.0135 9.10303 12.2179 9.10303ZM7.2179 12.103C7.2179 10.7769 7.74468 9.50518 8.68236 8.56749C9.62004 7.62981 10.8918 7.10303 12.2179 7.10303C13.544 7.10303 14.8157 7.62981 15.7534 8.56749C16.6911 9.50518 17.2179 10.7769 17.2179 12.103C17.2179 13.4291 16.6911 14.7009 15.7534 15.6386C14.8157 16.5762 13.544 17.103 12.2179 17.103C10.8918 17.103 9.62004 16.5762 8.68236 15.6386C7.74468 14.7009 7.2179 13.4291 7.2179 12.103ZM17.7179 8.10303C18.1157 8.10303 18.4972 7.94499 18.7786 7.66369C19.0599 7.38238 19.2179 7.00085 19.2179 6.60303C19.2179 6.2052 19.0599 5.82367 18.7786 5.54237C18.4972 5.26106 18.1157 5.10303 17.7179 5.10303C17.3201 5.10303 16.9385 5.26106 16.6572 5.54237C16.3759 5.82367 16.2179 6.2052 16.2179 6.60303C16.2179 7.00085 16.3759 7.38238 16.6572 7.66369C16.9385 7.94499 17.3201 8.10303 17.7179 8.10303Z" fill="white"/>
</svg>
