<svg width="490" height="147" viewBox="0 0 490 147" fill="none" xmlns="http://www.w3.org/2000/svg">
<path d="M28.5053 69.4792V68.4589C26.901 69.0419 25.2966 69.3334 23.6923 69.3334C21.7962 69.3334 20.046 69.0419 18.2958 68.6046C13.337 67.4385 9.25317 64.9606 6.04448 61.3165C2.68994 57.5267 0.793896 52.2792 0.502197 45.4284C0.793896 38.5775 2.68994 33.1843 5.89863 29.5402C9.25317 25.8962 13.337 23.4182 18.15 22.2521C19.9002 21.8148 21.6504 21.5233 23.5464 21.5233C25.5883 21.5233 27.4844 21.9606 29.0887 22.8351C29.0887 22.2521 29.0887 21.669 29.0887 21.086C29.0887 20.5029 29.0887 19.9199 29.0887 19.3368C28.797 12.3402 27.4844 8.5504 25.1508 7.96735C24.5674 7.96735 24.1298 7.82158 23.8381 7.67582C23.5464 7.53006 23.4006 6.94701 23.4006 6.07243C23.4006 5.05209 23.5464 4.46904 23.8381 4.32328C24.1298 4.17752 24.4215 4.03175 24.7132 4.03175C24.8591 4.03175 25.2966 4.03175 25.88 4.03175C26.4634 4.03175 27.1927 4.03175 28.2136 4.03175H28.5053C33.3183 3.88599 38.1314 2.71989 43.0902 0.67921C43.2361 0.67921 43.3819 0.533447 43.5278 0.533447C43.6736 0.533447 43.8195 0.533447 43.9653 0.533447C44.4029 0.533447 44.8404 0.67921 45.278 0.970735C45.7155 1.26226 46.0072 1.84531 46.0072 2.57413L45.4238 11.4657L45.278 17.7334C45.278 19.6284 45.1321 21.8148 45.1321 24.0012C45.1321 26.1877 45.1321 28.6656 45.1321 31.1436C45.1321 35.9538 45.1321 40.6182 45.278 45.1368C45.4238 49.6555 45.4238 53.8826 45.5697 57.964C45.7155 59.4216 46.1531 61.025 46.7365 62.6284C47.3199 64.5233 48.3408 65.5436 49.5076 65.5436C49.9452 65.5436 50.2369 65.6894 50.5286 65.8351C50.6744 65.9809 50.8203 66.564 50.8203 67.4385C50.8203 68.0216 50.6744 68.6046 50.5286 68.8962C50.3827 69.1877 50.091 69.3334 49.5076 69.3334H28.5053V69.4792ZM24.1298 63.9402C24.8591 63.9402 25.7342 63.6487 26.6093 63.2114C27.4844 62.6284 28.3594 61.8995 28.9428 60.8792C29.0887 57.964 29.2345 54.0284 29.3804 49.2182C29.5262 44.408 29.5262 38.4317 29.6721 31.4351C29.0887 29.8317 28.3594 28.6656 27.1927 27.9368C26.1717 27.208 25.2966 26.9165 24.2757 26.9165H23.984C20.3377 27.3538 18.5875 33.4758 18.5875 45.4284C18.5875 51.1131 19.0251 55.486 19.9002 58.547C20.4836 62.1911 21.9421 63.9402 24.1298 63.9402Z" fill="#292929"/>
<path d="M56.2167 69.4792C55.925 69.4792 55.7791 69.4792 55.6333 69.4792C55.4874 69.4792 55.3416 69.3335 55.1957 69.0419C55.0499 68.7504 54.904 68.3131 54.904 67.5843C54.904 66.7097 55.0499 66.1267 55.3416 65.9809C55.4874 65.8352 55.925 65.6894 56.3625 65.6894C57.2376 65.6894 57.9669 65.1064 58.6961 63.7945C59.5712 62.0453 60.1546 59.7131 60.4463 56.9436C60.4463 56.3606 60.4463 55.9233 60.4463 55.486C60.4463 55.0487 60.4463 54.7572 60.4463 54.6114C60.4463 52.5708 60.5922 50.9674 60.5922 49.5097C60.5922 48.0521 60.5922 46.886 60.5922 45.8657C60.5922 41.0555 60.3005 37.5572 59.8629 35.3708C59.1337 31.8725 57.9669 29.8318 56.5084 29.5403C55.925 29.5403 55.4874 29.3945 55.1957 29.2487C54.904 29.103 54.7582 28.5199 54.7582 27.6453C54.7582 26.625 54.904 26.0419 55.1957 25.8962C55.4874 25.7504 55.7791 25.6047 56.0708 25.6047H56.5084H61.3214C65.8427 25.1674 70.2182 24.147 74.4479 22.2521C74.5937 22.2521 74.7396 22.1064 74.8854 22.1064C75.0313 22.1064 75.1771 22.1064 75.323 22.1064C75.7605 22.1064 76.1981 22.2521 76.6356 22.5436C77.0732 22.8352 77.3649 23.4182 77.3649 24.147L76.9273 32.3097C76.7815 35.808 76.6356 38.5775 76.4898 40.9097C76.3439 43.0962 76.3439 44.8453 76.3439 45.8657C76.3439 47.0318 76.3439 48.6352 76.3439 50.5301C76.3439 52.425 76.4898 54.6114 76.6356 57.0894C76.7815 58.547 77.0731 59.7131 77.219 60.8792C77.3648 62.0453 77.8024 63.0657 78.2399 63.9403C78.8233 65.2521 79.5526 65.8352 80.5735 65.8352C81.0111 65.8352 81.3028 65.9809 81.4486 66.1267C81.7403 66.2725 81.8862 66.8555 81.8862 67.7301C81.8862 68.3131 81.7403 68.8962 81.5945 69.1877C81.4486 69.4792 81.1569 69.625 80.5735 69.625H56.2167V69.4792ZM67.0095 21.8148C64.2384 21.8148 61.9048 20.7945 59.8629 18.8996C57.821 17.0047 56.9459 14.5267 56.9459 11.7572C56.9459 8.98771 57.9669 6.65551 59.8629 4.76059C61.759 2.86568 64.2384 1.84534 67.0095 1.84534C69.7807 1.84534 72.1143 2.86568 74.1562 4.76059C76.0522 6.65551 77.0732 8.98771 77.0732 11.7572C77.0732 14.5267 76.0522 16.8589 74.1562 18.8996C72.1143 20.7945 69.7807 21.8148 67.0095 21.8148Z" fill="#292929"/>
<path d="M117.182 86.3877C115.432 86.3877 113.827 86.0961 112.515 85.3673C110.181 84.2012 109.014 82.3063 109.014 79.9741C109.014 78.9538 109.16 78.0792 109.452 77.4961C110.181 76.0385 111.202 75.0182 112.515 74.4351C113.39 74.1436 114.119 73.9978 114.848 73.9978C115.577 73.9978 116.453 74.1436 117.328 74.4351C118.786 75.0182 120.391 75.4555 122.141 75.4555C124.766 75.4555 126.662 74.4351 127.829 72.3944C128.121 71.8114 128.266 71.3741 128.266 70.9368C128.266 70.3538 127.975 69.7707 127.391 69.4792C126.662 69.0419 125.641 68.7504 124.328 68.7504C123.891 68.7504 123.307 68.7504 122.141 68.8961C121.12 69.0419 119.515 69.4792 117.619 70.3538C116.598 70.9368 115.577 71.3741 114.702 71.9572C113.827 72.5402 112.952 73.1233 112.077 73.7063C111.202 74.2894 110.473 74.8724 109.598 75.4555C108.723 76.0385 107.847 76.4758 106.972 76.9131C105.222 77.7877 103.18 78.225 100.555 78.225C98.0755 78.225 95.8878 77.6419 93.7 76.33C91.5123 75.0182 89.908 73.4148 88.887 71.2283C88.1578 69.7707 87.7202 68.0216 87.7202 66.1266C87.7202 64.9605 88.0119 63.0656 88.5953 60.5877C89.0329 58.1097 91.3664 55.1944 95.5961 51.6961C90.4914 48.6351 87.8661 44.1165 87.8661 38.4317C87.8661 34.7877 88.887 31.7266 91.0748 29.2487C93.1166 26.7707 95.8878 24.8758 99.534 23.5639C103.034 22.2521 106.972 21.5233 111.202 21.5233C113.536 21.5233 115.723 21.8148 117.911 22.2521C119.078 20.0656 120.682 18.025 122.432 16.13C125.058 13.5063 128.121 12.3402 131.767 12.3402C132.934 12.3402 134.1 12.486 135.121 12.9233C135.413 13.069 135.559 13.069 135.851 13.2148C136.142 13.3605 136.434 13.5063 136.58 13.5063C138.33 14.6724 139.205 16.4216 139.205 18.608C139.205 18.8995 139.205 19.1911 139.205 19.4826C139.205 19.7741 139.059 20.0656 139.059 20.3572C138.622 21.8148 137.601 22.9809 136.288 23.7097C135.413 24.2928 134.392 24.4385 133.371 24.4385C132.788 24.4385 132.204 24.2928 131.475 24.147C130.454 23.8555 129.287 23.5639 127.975 23.5639C126.662 23.5639 125.495 23.7097 124.183 24.147C127.245 25.6046 129.725 27.4995 131.475 29.9775C133.225 32.4555 134.246 35.225 134.246 38.286C134.246 42.0758 133.225 45.1368 131.038 47.6148C128.996 50.0928 126.224 51.9877 122.578 53.2995C119.078 54.6114 115.14 55.1944 110.91 55.1944C107.118 55.1944 103.618 54.7572 100.409 53.7368C99.0965 54.6114 97.9297 55.486 97.2004 56.3605C96.7629 56.7978 96.617 57.2351 96.617 57.8182C96.617 58.4012 96.9087 58.8385 97.3463 59.4216C97.7838 59.8589 98.5131 60.1504 99.534 60.1504C100.993 60.1504 103.18 59.7131 106.535 58.6927C107.556 58.4012 108.431 58.1097 109.452 57.8182C110.473 57.5266 111.494 57.2351 112.66 57.0894C115.432 56.5063 117.911 56.2148 120.39 56.2148C122.578 56.2148 124.62 56.6521 126.808 57.3809C128.85 58.1097 130.6 59.5673 131.913 61.8995C132.058 62.1911 132.204 62.6283 132.35 62.9199C132.496 63.2114 132.642 63.6487 132.788 63.9402L133.079 65.2521C133.225 65.6894 133.225 65.9809 133.225 66.4182V67.4385C133.225 68.7504 133.079 70.208 132.642 71.8114C132.058 75.6012 129.579 79.3911 125.204 83.1809C123.162 85.3673 120.245 86.3877 117.182 86.3877ZM111.202 49.8012C112.952 49.8012 114.411 48.4894 115.577 45.7199C116.453 43.3877 116.89 40.9097 116.89 38.4317C116.89 35.808 116.453 33.33 115.723 31.1436C114.702 28.3741 113.244 27.0622 111.348 27.0622C110.035 27.0622 108.868 27.6453 107.993 28.9572C107.118 30.1233 106.535 31.7267 106.243 33.4758C105.66 35.0792 105.514 36.8283 105.514 38.4317C105.514 41.0555 105.951 43.5334 106.681 45.7199C107.702 48.4894 109.16 49.8012 111.202 49.8012Z" fill="#292929"/>
<path d="M142.414 69.4792C142.122 69.4792 141.976 69.4792 141.83 69.4792C141.685 69.4792 141.539 69.3335 141.393 69.0419C141.247 68.7504 141.101 68.3131 141.101 67.5843C141.101 66.7097 141.247 66.1267 141.539 65.9809C141.685 65.8352 142.122 65.6894 142.56 65.6894C143.435 65.6894 144.164 65.1064 144.893 63.7945C145.768 62.0453 146.352 59.7131 146.643 56.9436C146.643 56.3606 146.643 55.9233 146.643 55.486C146.643 55.0487 146.643 54.7572 146.643 54.6114C146.643 52.5708 146.789 50.9674 146.789 49.5097C146.789 48.0521 146.789 46.886 146.789 45.8657C146.789 41.0555 146.498 37.5572 146.06 35.3708C145.331 31.8725 144.164 29.8318 142.705 29.5403C142.122 29.5403 141.685 29.3945 141.393 29.2487C141.101 29.103 140.955 28.5199 140.955 27.6453C140.955 26.625 141.101 26.0419 141.393 25.8962C141.685 25.7504 141.976 25.6047 142.268 25.6047H142.705H147.518C152.04 25.1674 156.415 24.147 160.645 22.2521C160.791 22.2521 160.937 22.1064 161.082 22.1064C161.228 22.1064 161.374 22.1064 161.52 22.1064C161.958 22.1064 162.395 22.2521 162.833 22.5436C163.27 22.8352 163.562 23.4182 163.562 24.147L163.124 32.3097C162.979 35.808 162.833 38.5775 162.687 40.9097C162.541 43.0962 162.541 44.8453 162.541 45.8657C162.541 47.0318 162.541 48.6352 162.541 50.5301C162.541 52.425 162.687 54.6114 162.833 57.0894C162.979 58.547 163.27 59.7131 163.416 60.8792C163.562 62.0453 163.999 63.0657 164.437 63.9403C165.02 65.2521 165.75 65.8352 166.771 65.8352C167.208 65.8352 167.5 65.9809 167.646 66.1267C167.937 66.2725 168.083 66.8555 168.083 67.7301C168.083 68.3131 167.937 68.8962 167.792 69.1877C167.646 69.4792 167.354 69.625 166.771 69.625H142.414V69.4792ZM153.352 21.8148C150.581 21.8148 148.248 20.7945 146.206 18.8996C144.164 17.0047 143.289 14.5267 143.289 11.7572C143.289 8.98771 144.31 6.65551 146.206 4.76059C148.102 2.86568 150.581 1.84534 153.352 1.84534C156.124 1.84534 158.457 2.86568 160.499 4.76059C162.395 6.65551 163.416 8.98771 163.416 11.7572C163.416 14.5267 162.395 16.8589 160.499 18.8996C158.311 20.7945 155.978 21.8148 153.352 21.8148Z" fill="#292929"/>
<path d="M188.794 70.0622C180.772 70.0622 176.688 66.2724 176.397 58.547V58.4012C176.397 57.9639 176.397 57.5266 176.397 56.9436C176.397 56.3605 176.543 55.7775 176.543 55.0487C176.834 50.0927 176.98 46.1572 177.126 42.9504C177.272 39.7436 177.272 37.4114 177.272 35.808C177.272 34.6419 177.272 33.1843 177.126 31.8724C176.98 30.4148 176.98 28.9572 176.834 27.208H169.833C169.396 27.208 168.958 27.0622 168.667 26.7707C168.375 26.4792 168.229 26.0419 168.229 25.6046V23.2724C168.229 22.8351 168.375 22.5436 168.667 22.1063C168.958 21.8148 169.396 21.669 169.833 21.669H176.397C178.147 21.5233 179.751 20.3572 181.501 18.1707C183.106 15.9843 184.71 13.6521 186.169 11.0283C186.606 10.2995 187.19 9.42495 187.627 8.69613C188.065 7.96732 188.502 7.23851 188.94 6.65546C190.107 5.05207 191.127 4.17749 192.003 4.17749C192.44 4.17749 192.878 4.32325 193.315 4.61478C193.753 4.9063 194.044 5.48935 194.044 6.21817L193.461 21.669H200.608C201.045 21.669 201.337 21.8148 201.774 22.1063C202.066 22.3978 202.212 22.8351 202.212 23.2724V25.6046C202.212 26.0419 202.066 26.4792 201.774 26.7707C201.483 27.0622 201.045 27.208 200.608 27.208H193.315C193.315 29.2487 193.169 30.9978 193.169 32.4555C193.169 33.9131 193.169 35.0792 193.169 35.808C193.169 40.7639 193.461 48.3436 193.899 58.2555C193.899 58.2555 193.899 58.4012 194.044 58.6927C194.044 58.8385 194.044 59.2758 194.19 59.5673C194.336 61.025 194.628 62.1911 195.357 63.2114C195.941 64.2317 196.816 64.669 197.837 64.669C198.566 64.669 198.858 65.1063 198.858 65.9809C198.858 67.0012 198.42 67.73 197.545 68.1673C195.941 69.0419 193.899 69.625 191.419 69.9165C190.982 69.9165 190.544 70.0622 190.107 70.0622C189.669 70.0622 189.231 70.0622 188.794 70.0622Z" fill="#292929"/>
<path d="M244.8 70.2081C240.133 70.2081 236.633 68.7504 234.445 65.981C233.861 65.2521 233.424 64.2318 232.986 63.0657C232.257 64.5233 230.653 65.981 228.173 67.4386C225.256 69.042 221.902 69.9165 218.401 69.9165C215.484 69.9165 212.567 69.042 209.65 67.4386C205.421 64.6691 203.233 60.8793 203.233 55.9233C203.233 54.1742 203.525 52.425 204.254 50.6759C205.858 46.7403 209.067 43.6793 214.172 41.3471C217.818 39.7437 221.902 38.8691 226.569 38.8691C227.444 38.8691 228.465 38.8691 229.486 39.0149C230.507 39.0149 231.382 39.1606 232.403 39.3064C231.965 35.3708 231.236 32.3098 230.069 30.1233C228.903 27.9369 227.444 26.9165 225.548 26.9165H224.819C223.214 27.4996 221.902 28.6657 220.881 30.1233C219.86 31.7267 219.276 33.3301 219.131 34.7877C218.839 36.3911 217.964 37.703 216.797 38.7233C215.776 39.4521 214.609 39.8894 213.297 39.8894C212.422 39.8894 211.692 39.7437 211.255 39.4521C208.775 38.4318 207.463 36.5369 207.463 33.7674V32.8928C207.608 31.581 208.046 30.2691 208.921 28.8115C210.38 26.3335 212.713 24.5843 215.922 23.1267C218.401 21.9606 221.902 21.3776 226.569 21.3776C231.236 21.3776 235.174 21.9606 238.237 22.981C241.3 24.1471 243.779 26.042 245.821 28.9572C247.28 30.9979 248.446 33.1843 249.176 35.5165C249.905 37.8488 250.342 41.7843 250.342 47.1776V59.5674C250.342 61.025 250.634 62.1911 251.363 63.2115C252.093 64.2318 252.968 64.6691 253.989 64.6691C254.718 64.6691 255.01 65.1064 255.01 65.981C255.01 67.0013 254.572 67.7301 253.697 68.1674C252.093 69.042 250.051 69.625 247.571 69.9165C247.134 69.9165 246.696 70.0623 246.259 70.0623C245.675 70.2081 245.238 70.2081 244.8 70.2081ZM229.778 60.7335C230.799 60.7335 231.674 60.5877 232.403 60.442C232.403 60.1504 232.403 59.7132 232.403 59.4216C232.403 59.1301 232.403 58.6928 232.403 58.4013V48.0521V44.5538C228.611 44.5538 225.694 45.4284 223.506 47.3233C221.902 48.781 221.027 50.3843 221.027 52.5708C221.027 53.0081 221.027 53.2996 221.172 53.7369C221.172 54.1742 221.318 54.4657 221.464 54.903C222.048 56.6521 222.923 57.964 223.944 58.8386C225.402 60.1504 227.444 60.7335 229.778 60.7335Z" fill="#292929"/>
<path d="M258.364 69.4792C258.072 69.4792 257.927 69.4792 257.781 69.4792C257.635 69.4792 257.489 69.3334 257.343 69.0419C257.197 68.7504 257.051 68.3131 257.051 67.5843C257.051 66.7097 257.197 66.1266 257.489 65.9809C257.635 65.8351 258.072 65.6894 258.51 65.6894H258.802C260.552 65.2521 261.719 62.7741 262.302 58.2555C262.448 54.1741 262.594 49.8012 262.594 45.4283C262.74 40.9097 262.74 36.2453 262.74 31.4351C262.74 26.9165 262.74 22.8351 262.594 19.4826C262.302 12.486 260.989 8.69615 258.656 8.1131C258.072 8.1131 257.635 7.96733 257.489 7.82157C257.197 7.67581 257.051 7.09276 257.051 6.21818C257.051 5.19784 257.197 4.61479 257.489 4.46903C257.781 4.32327 258.072 4.1775 258.364 4.1775H258.802H262.156C266.969 4.03174 271.782 2.86564 276.741 0.824962C276.887 0.824962 277.033 0.679199 277.179 0.679199C277.325 0.679199 277.47 0.679199 277.616 0.679199C278.054 0.679199 278.491 0.824962 278.929 1.11649C279.366 1.40801 279.658 1.99106 279.658 2.71988L279.075 11.4656L278.783 17.7334C278.783 19.6283 278.637 21.8148 278.637 24.0012C278.637 26.1877 278.637 28.6656 278.637 31.1436C278.637 35.9538 278.637 40.6182 278.783 45.1368C278.929 49.6555 278.929 53.8826 279.075 57.9639C279.366 59.5673 279.658 61.025 280.242 62.6283C280.825 64.5233 281.846 65.5436 283.013 65.5436C283.45 65.5436 283.742 65.6894 284.034 65.8351C284.325 65.9809 284.471 66.5639 284.471 67.4385C284.471 68.0216 284.325 68.6046 284.179 68.8961C284.034 69.1877 283.742 69.3334 283.158 69.3334H258.364V69.4792Z" fill="#292929"/>
<path d="M211.078 145.785L199.684 110.297L188.664 145.785H167.745L150.748 92.9261C149.814 90.8715 148.693 89.564 147.199 89.1905H146.825C146.265 89.1905 145.892 89.0037 145.518 88.8169C145.144 88.6301 144.958 87.883 144.958 86.9491C144.958 86.0152 145.144 85.4549 145.331 85.0813C145.518 84.7078 145.892 84.521 146.639 84.521H171.667H178.018C178.391 84.521 178.578 84.521 178.765 84.521C178.951 84.521 179.325 84.7078 179.325 85.0813C179.512 85.4549 179.512 86.0152 179.512 86.9491C179.512 88.0698 179.325 88.6301 178.951 88.8169C178.578 89.0037 178.204 89.1905 177.644 89.1905H177.27C175.776 89.564 175.029 90.8715 175.029 93.2996C175.029 94.4203 175.216 95.7277 175.589 97.222L186.049 128.227L195.388 98.7162L193.52 92.9261C192.586 90.8715 191.466 89.564 189.971 89.1905H189.598C189.038 89.1905 188.664 89.0037 188.29 88.8169C187.917 88.6301 187.73 87.883 187.73 86.9491C187.73 86.0152 187.917 85.4549 188.104 85.0813C188.29 84.7078 188.664 84.521 189.411 84.521H214.44H220.977C221.35 84.521 221.537 84.521 221.724 84.521C221.911 84.521 222.097 84.7078 222.284 85.0813C222.471 85.4549 222.471 86.0152 222.471 86.9491C222.471 88.0698 222.284 88.6301 222.097 88.8169C221.724 89.0037 221.35 89.1905 220.79 89.1905H220.603H220.416C218.922 89.564 218.362 90.8715 218.362 93.2996C218.362 94.4203 218.549 95.7277 218.922 97.222L229.382 128.227L238.908 97.7823C239.655 95.1674 240.028 93.2996 240.028 91.8054C240.028 90.3112 239.468 89.564 238.347 89.1905C237.6 89.1905 237.04 89.0037 236.853 88.8169C236.479 88.6301 236.293 87.883 236.293 86.9491C236.293 86.202 236.479 85.4549 236.666 85.0813C236.853 84.7078 237.227 84.521 237.974 84.521H252.729C253.103 84.521 253.29 84.521 253.476 84.521C253.85 84.521 254.037 84.7078 254.223 85.0813C254.41 85.4549 254.41 86.0152 254.41 86.9491C254.41 88.0698 254.224 88.6301 253.85 88.8169C253.663 89.0037 253.103 89.1905 252.169 89.1905C251.048 89.564 249.928 90.4979 248.994 91.9922C248.433 92.7393 248.06 93.6732 247.686 94.4203C247.313 95.1674 246.939 96.1013 246.566 97.0352L231.436 145.785H211.078Z" fill="#292929"/>
<path d="M301.292 146.718C295.315 146.718 290.832 144.851 288.031 141.302C287.284 140.368 286.723 139.061 286.163 137.566C285.229 139.434 283.174 141.302 279.999 143.17C276.264 145.224 271.968 146.345 267.485 146.345C263.749 146.345 260.014 145.224 256.278 143.17C250.862 139.621 248.06 134.765 248.06 128.414C248.06 126.173 248.433 123.931 249.367 121.69C251.422 116.647 255.531 112.725 262.068 109.736C266.738 107.682 271.968 106.561 277.945 106.561C279.065 106.561 280.373 106.561 281.68 106.748C282.988 106.748 284.108 106.935 285.416 107.121C284.855 102.078 283.922 98.1559 282.427 95.3542C280.933 92.5525 279.065 91.2451 276.637 91.2451H275.703C273.649 91.9922 271.968 93.4864 270.66 95.3542C269.353 97.4088 268.606 99.4634 268.419 101.331C268.045 103.386 266.925 105.067 265.43 106.374C264.123 107.308 262.629 107.868 260.948 107.868C259.827 107.868 258.893 107.682 258.333 107.308C255.158 106.001 253.476 103.572 253.476 100.024V98.903C253.663 97.222 254.224 95.541 255.344 93.6732C257.212 90.498 260.201 88.2566 264.31 86.3888C267.485 84.8946 271.968 84.1475 277.945 84.1475C283.922 84.1475 288.965 84.8946 292.887 86.202C296.809 87.6963 299.984 90.1244 302.599 93.86C304.467 96.4749 305.961 99.2766 306.895 102.265C307.829 105.254 308.39 110.297 308.39 117.207V133.084C308.39 134.951 308.763 136.446 309.697 137.753C310.631 139.061 311.752 139.621 313.059 139.621C313.993 139.621 314.367 140.181 314.367 141.302C314.367 142.609 313.806 143.543 312.686 144.104C310.631 145.224 308.016 145.971 304.841 146.345C304.28 146.345 303.72 146.532 303.16 146.532C302.413 146.532 301.852 146.718 301.292 146.718ZM282.054 134.578C283.361 134.578 284.482 134.391 285.416 134.204C285.416 133.831 285.416 133.27 285.416 132.897C285.416 132.523 285.416 131.963 285.416 131.589V118.328V113.845C280.559 113.845 276.824 114.966 274.022 117.394C271.968 119.262 270.847 121.317 270.847 124.118C270.847 124.679 270.847 125.052 271.034 125.612C271.034 126.173 271.221 126.546 271.407 127.107C272.154 129.348 273.275 131.029 274.583 132.15C276.637 133.644 279.065 134.578 282.054 134.578Z" fill="#292929"/>
<path d="M331.55 145.598L314.553 92.7393C313.619 90.6847 312.499 89.3773 311.004 89.0037H310.631C310.07 89.0037 309.697 88.8169 309.323 88.6302C308.95 88.4434 308.763 87.6963 308.763 86.7624C308.763 85.8285 308.95 85.2681 309.137 84.8946C309.323 84.521 309.697 84.3342 310.444 84.3342H335.472H342.01C342.383 84.3342 342.57 84.3342 342.757 84.3342C342.944 84.3342 343.13 84.521 343.317 84.8946C343.504 85.2681 343.504 85.8285 343.504 86.7624C343.504 87.883 343.317 88.4434 343.13 88.6302C342.757 88.8169 342.383 89.0037 341.823 89.0037H341.449C339.955 89.3773 339.395 90.6847 339.395 93.1129C339.395 94.2335 339.582 95.541 339.955 97.0352L350.415 127.854L359.941 97.4088C360.688 94.7939 361.061 92.7393 361.061 91.4319C361.061 89.9376 360.501 89.1905 359.38 88.8169C358.633 88.8169 358.073 88.6302 357.886 88.4434C357.512 88.2566 357.326 87.5095 357.326 86.5756C357.326 85.8285 357.512 85.0814 357.699 84.7078C357.886 84.3342 358.26 84.1475 359.007 84.1475H373.762C374.136 84.1475 374.322 84.1475 374.509 84.1475C374.696 84.1475 375.07 84.3342 375.07 84.7078C375.256 85.0814 375.256 85.6417 375.256 86.5756C375.256 87.6963 375.07 88.2566 374.696 88.4434C374.509 88.6302 373.949 88.8169 373.202 88.8169C372.081 89.1905 370.96 90.1244 370.027 91.6186C369.466 92.3657 369.093 93.2996 368.719 94.0468C368.346 94.7939 367.972 95.7278 367.598 96.6617L352.469 145.598H331.55Z" fill="#292929"/>
<path d="M403.647 145.411C394.681 144.851 387.584 141.675 381.98 135.885C376.564 130.282 373.762 123.184 373.762 114.779C373.762 109.176 375.07 104.133 377.871 99.2766C380.486 94.6071 384.035 91.0583 388.518 88.2566C393 85.4549 398.043 84.1475 403.46 83.9607C408.877 83.9607 413.733 85.0814 417.842 87.5095C421.951 89.9376 425.313 93.4864 427.555 98.3427C429.796 103.199 431.103 109.363 431.103 116.647C431.103 117.768 430.543 118.141 429.609 118.141H408.503H396.362C397.67 125.986 400.658 131.216 405.701 133.457C407.756 134.391 409.624 134.765 411.305 134.765C415.414 134.765 419.336 132.523 423.072 128.041C424.006 126.92 424.94 126.36 425.874 126.36C426.06 126.36 426.434 126.36 427.181 126.546C427.928 126.733 428.488 127.293 428.862 128.601C429.049 128.974 429.049 129.348 429.049 129.908C429.049 130.842 428.675 131.776 428.115 132.897C422.885 141.115 415.04 145.411 404.954 145.411H403.647ZM408.877 111.23C408.877 108.989 408.877 106.935 408.877 105.067C408.877 103.199 408.69 101.518 408.69 100.024C408.503 97.0352 407.943 94.7939 407.196 93.2997C406.449 91.8054 405.328 91.0583 403.647 91.0583C398.791 91.2451 396.362 97.7824 396.362 110.67V111.23H408.877Z" fill="#292929"/>
<path d="M461.362 145.598C449.781 145.598 442.123 142.609 438.575 136.446C437.454 134.578 436.894 132.897 436.707 131.216V129.908V129.348C437.08 126.36 438.761 124.305 441.563 123.184C442.497 122.811 443.431 122.624 444.365 122.624C446.046 122.624 447.54 123.184 449.034 124.305C450.528 125.426 451.462 126.92 451.836 128.974C452.023 130.842 452.583 132.897 453.704 134.951C454.824 137.006 456.692 138.127 459.12 138.5H459.307C460.241 138.687 461.175 138.687 461.922 138.687C464.163 138.687 465.844 138.313 467.152 137.38C468.086 136.819 468.646 135.885 468.646 134.951C468.646 134.204 468.086 132.897 466.965 131.029C465.844 129.348 461.922 127.107 455.385 124.118C448.847 121.317 444.551 118.888 442.497 116.834C438.575 113.098 436.52 108.429 436.52 103.199C436.52 102.825 436.52 102.452 436.52 102.078C436.52 101.705 436.52 101.331 436.52 100.958C436.707 96.8484 438.761 93.1129 442.31 89.7508C445.485 87.1359 449.034 85.6417 452.957 85.0813C456.132 84.521 458.747 84.3342 461.175 84.3342H462.482C468.086 84.3342 472.568 84.8946 475.744 86.202C479.853 88.0698 483.028 90.4979 484.896 93.6732C485.83 95.541 486.577 97.222 486.577 98.903V100.21V100.771C486.203 103.759 484.522 105.814 481.721 106.935C480.973 107.308 480.039 107.495 479.106 107.495C477.425 107.495 475.744 106.935 474.436 105.814C472.942 104.693 472.008 103.199 471.634 101.144C471.634 100.21 471.261 99.2766 470.887 98.1559C470.514 97.0352 469.953 96.2881 469.393 95.1674C468.086 93.2996 466.405 91.9922 464.35 91.0583C463.976 91.0583 463.79 90.8715 463.603 90.8715C463.416 90.8715 462.856 90.6847 461.922 90.6847C458.933 90.6847 456.505 91.6186 455.011 93.6732C454.451 94.4203 454.077 95.1674 454.077 96.1013C454.077 97.222 454.638 98.5294 455.945 100.397C457.066 102.265 460.988 104.133 467.339 106.187C472.942 108.055 477.425 109.923 480.787 111.978C484.149 114.032 486.39 116.273 487.884 118.515C489.378 120.943 489.939 123.371 489.939 126.173C489.939 128.601 489.378 131.029 488.071 133.457C485.643 138.313 481.907 141.675 476.677 143.356C473.129 144.477 468.646 145.224 463.603 145.224H461.362V145.598Z" fill="#292929"/>
</svg>
