<svg width="73" height="37" viewBox="0 0 73 37" fill="none" xmlns="http://www.w3.org/2000/svg">
<path d="M2.66049 2.89346H69.5814" stroke="white" stroke-width="2"/>
<circle cx="2.66049" cy="2.89346" r="2.58328" fill="white"/>
<circle cx="2.66049" cy="2.89346" r="2.58328" fill="white"/>
<circle cx="2.66049" cy="2.89346" r="2.58328" fill="white"/>
<circle cx="2.66049" cy="2.89346" r="2.58328" fill="white"/>
<circle cx="69.8644" cy="2.89346" r="2.58328" fill="white"/>
<circle cx="69.8644" cy="2.89346" r="2.58328" fill="white"/>
<circle cx="69.8644" cy="2.89346" r="2.58328" fill="white"/>
<circle cx="69.8644" cy="2.89346" r="2.58328" fill="white"/>
<path d="M2.66049 18.8935H69.5814" stroke="white" stroke-width="2"/>
<circle cx="2.66049" cy="18.8935" r="2.58328" fill="white"/>
<circle cx="2.66049" cy="18.8935" r="2.58328" fill="white"/>
<circle cx="2.66049" cy="18.8935" r="2.58328" fill="white"/>
<circle cx="2.66049" cy="18.8935" r="2.58328" fill="white"/>
<circle cx="69.8644" cy="18.8935" r="2.58328" fill="white"/>
<circle cx="69.8644" cy="18.8935" r="2.58328" fill="white"/>
<circle cx="69.8644" cy="18.8935" r="2.58328" fill="white"/>
<circle cx="69.8644" cy="18.8935" r="2.58328" fill="white"/>
<path d="M2.66049 33.8935H69.5814" stroke="white" stroke-width="2"/>
<circle cx="2.66049" cy="33.8935" r="2.58328" fill="white"/>
<circle cx="2.66049" cy="33.8935" r="2.58328" fill="white"/>
<circle cx="2.66049" cy="33.8935" r="2.58328" fill="white"/>
<circle cx="2.66049" cy="33.8935" r="2.58328" fill="white"/>
<circle cx="69.8644" cy="33.8935" r="2.58328" fill="white"/>
<circle cx="69.8644" cy="33.8935" r="2.58328" fill="white"/>
<circle cx="69.8644" cy="33.8935" r="2.58328" fill="white"/>
<circle cx="69.8644" cy="33.8935" r="2.58328" fill="white"/>
</svg>
