<svg width="491" height="147" viewBox="0 0 491 147" fill="none" xmlns="http://www.w3.org/2000/svg">
<path d="M28.9792 68.9458V67.9254C27.3748 68.5085 25.7705 68.8 24.1661 68.8C22.2701 68.8 20.5199 68.5085 18.7697 68.0712C13.8108 66.9051 9.72704 64.4271 6.51835 60.783C3.16382 56.9932 1.26777 51.7458 0.976074 44.8949C1.26777 38.0441 3.16382 32.6508 6.37251 29.0068C9.72704 25.3627 13.8108 22.8847 18.6239 21.7186C20.3741 21.2814 22.1243 20.9898 24.0203 20.9898C26.0622 20.9898 27.9582 21.4271 29.5626 22.3017C29.5626 21.7186 29.5626 21.1356 29.5626 20.5525C29.5626 19.9695 29.5626 19.3864 29.5626 18.8034C29.2709 11.8068 27.9582 8.01695 25.6246 7.4339C25.0412 7.4339 24.6037 7.28814 24.312 7.14237C24.0203 6.99661 23.8744 6.41356 23.8744 5.53898C23.8744 4.51864 24.0203 3.93559 24.312 3.78983C24.6037 3.64407 24.8954 3.49831 25.1871 3.49831C25.3329 3.49831 25.7705 3.49831 26.3539 3.49831C26.9373 3.49831 27.6665 3.49831 28.6875 3.49831H28.9792C33.7922 3.35254 38.6052 2.18644 43.5641 0.145763C43.71 0.145763 43.8558 0 44.0017 0C44.1475 0 44.2934 0 44.4392 0C44.8768 0 45.3143 0.145763 45.7519 0.437288C46.1894 0.728814 46.4811 1.31186 46.4811 2.04068L45.8977 10.9322L45.7519 17.2C45.7519 19.0949 45.606 21.2814 45.606 23.4678C45.606 25.6542 45.606 28.1322 45.606 30.6102C45.606 35.4203 45.606 40.0847 45.7519 44.6034C45.8977 49.122 45.8977 53.3492 46.0436 57.4305C46.1894 58.8881 46.627 60.4915 47.2104 62.0949C47.7938 63.9898 48.8147 65.0102 49.9815 65.0102C50.419 65.0102 50.7107 65.1559 51.0024 65.3017C51.1483 65.4475 51.2941 66.0305 51.2941 66.9051C51.2941 67.4881 51.1483 68.0712 51.0024 68.3627C50.8566 68.6542 50.5649 68.8 49.9815 68.8H28.9792V68.9458ZM24.6037 63.4068C25.3329 63.4068 26.208 63.1153 27.0831 62.678C27.9582 62.0949 28.8333 61.3661 29.4167 60.3458C29.5626 57.4305 29.7084 53.4949 29.8543 48.6847C30.0001 43.8746 30.0001 37.8983 30.146 30.9017C29.5626 29.2983 28.8333 28.1322 27.6665 27.4034C26.6456 26.6746 25.7705 26.3831 24.7495 26.3831H24.4578C20.8116 26.8203 19.0614 32.9424 19.0614 44.8949C19.0614 50.5797 19.499 54.9525 20.3741 58.0136C20.9575 61.6576 22.416 63.4068 24.6037 63.4068Z" fill="white"/>
<path d="M56.6904 68.9458C56.3987 68.9458 56.2529 68.9458 56.107 68.9458C55.9612 68.9458 55.8153 68.8 55.6695 68.5085C55.5236 68.2169 55.3778 67.7797 55.3778 67.0508C55.3778 66.1763 55.5236 65.5932 55.8153 65.4475C55.9612 65.3017 56.3987 65.1559 56.8363 65.1559C57.7114 65.1559 58.4406 64.5729 59.1699 63.261C60.045 61.5119 60.6284 59.1797 60.9201 56.4102C60.9201 55.8271 60.9201 55.3898 60.9201 54.9525C60.9201 54.5152 60.9201 54.2237 60.9201 54.078C60.9201 52.0373 61.0659 50.4339 61.0659 48.9763C61.0659 47.5186 61.0659 46.3525 61.0659 45.3322C61.0659 40.522 60.7742 37.0237 60.3367 34.8373C59.6074 31.339 58.4406 29.2983 56.9821 29.0068C56.3987 29.0068 55.9612 28.861 55.6695 28.7152C55.3778 28.5695 55.2319 27.9864 55.2319 27.1119C55.2319 26.0915 55.3778 25.5085 55.6695 25.3627C55.9612 25.2169 56.2529 25.0712 56.5446 25.0712H56.9821H61.7952C66.3165 24.6339 70.692 23.6136 74.9216 21.7186C75.0675 21.7186 75.2133 21.5729 75.3592 21.5729C75.505 21.5729 75.6509 21.5729 75.7967 21.5729C76.2343 21.5729 76.6718 21.7186 77.1094 22.0102C77.5469 22.3017 77.8386 22.8847 77.8386 23.6136L77.4011 31.7763C77.2552 35.2746 77.1094 38.0441 76.9635 40.3763C76.8177 42.5627 76.8177 44.3119 76.8177 45.3322C76.8177 46.4983 76.8177 48.1017 76.8177 49.9966C76.8177 51.8915 76.9635 54.078 77.1094 56.5559C77.2552 58.0136 77.5469 59.1797 77.6928 60.3458C77.8386 61.5119 78.2762 62.5322 78.7137 63.4068C79.2971 64.7186 80.0264 65.3017 81.0473 65.3017C81.4848 65.3017 81.7765 65.4475 81.9224 65.5932C82.2141 65.739 82.3599 66.322 82.3599 67.1966C82.3599 67.7797 82.2141 68.3627 82.0682 68.6542C81.9224 68.9458 81.6307 69.0915 81.0473 69.0915H56.6904V68.9458ZM67.4833 21.2814C64.7121 21.2814 62.3786 20.261 60.3367 18.3661C58.2948 16.4712 57.4197 13.9932 57.4197 11.2237C57.4197 8.45423 58.4406 6.12203 60.3367 4.22711C62.2327 2.3322 64.7121 1.31186 67.4833 1.31186C70.2544 1.31186 72.588 2.3322 74.6299 4.22711C76.526 6.12203 77.5469 8.45423 77.5469 11.2237C77.5469 13.9932 76.526 16.3254 74.6299 18.3661C72.588 20.261 70.2544 21.2814 67.4833 21.2814Z" fill="white"/>
<path d="M117.656 85.8542C115.906 85.8542 114.301 85.5627 112.989 84.8339C110.655 83.6678 109.488 81.7729 109.488 79.4407C109.488 78.4203 109.634 77.5458 109.926 76.9627C110.655 75.5051 111.676 74.4847 112.989 73.9017C113.864 73.6102 114.593 73.4644 115.322 73.4644C116.052 73.4644 116.927 73.6102 117.802 73.9017C119.26 74.4847 120.865 74.922 122.615 74.922C125.24 74.922 127.136 73.9017 128.303 71.861C128.595 71.278 128.74 70.8407 128.74 70.4034C128.74 69.8203 128.449 69.2373 127.865 68.9458C127.136 68.5085 126.115 68.2169 124.803 68.2169C124.365 68.2169 123.782 68.2169 122.615 68.3627C121.594 68.5085 119.99 68.9458 118.093 69.8203C117.073 70.4034 116.052 70.8407 115.176 71.4237C114.301 72.0068 113.426 72.5898 112.551 73.1729C111.676 73.7559 110.947 74.339 110.072 74.922C109.197 75.5051 108.322 75.9424 107.446 76.3797C105.696 77.2542 103.654 77.6915 101.029 77.6915C98.5496 77.6915 96.3619 77.1085 94.1742 75.7966C91.9864 74.4847 90.3821 72.8813 89.3611 70.6949C88.6319 69.2373 88.1943 67.4881 88.1943 65.5932C88.1943 64.4271 88.486 62.5322 89.0694 60.0542C89.507 57.5763 91.8406 54.661 96.0702 51.1627C90.9655 48.1017 88.3402 43.5831 88.3402 37.8983C88.3402 34.2542 89.3611 31.1932 91.5489 28.7153C93.5908 26.2373 96.3619 24.3424 100.008 23.0305C103.509 21.7186 107.446 20.9898 111.676 20.9898C114.01 20.9898 116.197 21.2814 118.385 21.7186C119.552 19.5322 121.156 17.4915 122.907 15.5966C125.532 12.9729 128.595 11.8068 132.241 11.8068C133.408 11.8068 134.574 11.9525 135.595 12.3898C135.887 12.5356 136.033 12.5356 136.325 12.6814C136.616 12.8271 136.908 12.9729 137.054 12.9729C138.804 14.139 139.679 15.8881 139.679 18.0746C139.679 18.3661 139.679 18.6576 139.679 18.9492C139.679 19.2407 139.533 19.5322 139.533 19.8237C139.096 21.2814 138.075 22.4475 136.762 23.1763C135.887 23.7593 134.866 23.9051 133.845 23.9051C133.262 23.9051 132.678 23.7593 131.949 23.6136C130.928 23.322 129.761 23.0305 128.449 23.0305C127.136 23.0305 125.969 23.1763 124.657 23.6136C127.72 25.0712 130.199 26.9661 131.949 29.4441C133.699 31.922 134.72 34.6915 134.72 37.7525C134.72 41.5424 133.699 44.6034 131.512 47.0814C129.47 49.5593 126.699 51.4542 123.052 52.7661C119.552 54.078 115.614 54.661 111.384 54.661C107.592 54.661 104.092 54.2237 100.883 53.2034C99.5706 54.078 98.4038 54.9525 97.6746 55.8271C97.237 56.2644 97.0912 56.7017 97.0912 57.2847C97.0912 57.8678 97.3829 58.3051 97.8204 58.8881C98.258 59.3254 98.9872 59.6169 100.008 59.6169C101.467 59.6169 103.654 59.1797 107.009 58.1593C108.03 57.8678 108.905 57.5763 109.926 57.2847C110.947 56.9932 111.968 56.7017 113.135 56.5559C115.906 55.9729 118.385 55.6814 120.865 55.6814C123.052 55.6814 125.094 56.1186 127.282 56.8475C129.324 57.5763 131.074 59.0339 132.387 61.3661C132.533 61.6576 132.678 62.0949 132.824 62.3864C132.97 62.678 133.116 63.1152 133.262 63.4068L133.554 64.7186C133.699 65.1559 133.699 65.4475 133.699 65.8847V66.9051C133.699 68.2169 133.554 69.6746 133.116 71.278C132.533 75.0678 130.053 78.8576 125.678 82.6475C123.636 84.8339 120.719 85.8542 117.656 85.8542ZM111.676 49.2678C113.426 49.2678 114.885 47.9559 116.052 45.1864C116.927 42.8542 117.364 40.3763 117.364 37.8983C117.364 35.2746 116.927 32.7966 116.197 30.6102C115.176 27.8407 113.718 26.5288 111.822 26.5288C110.509 26.5288 109.343 27.1119 108.467 28.4237C107.592 29.5898 107.009 31.1932 106.717 32.9424C106.134 34.5458 105.988 36.2949 105.988 37.8983C105.988 40.522 106.426 43 107.155 45.1864C108.176 47.9559 109.634 49.2678 111.676 49.2678Z" fill="white"/>
<path d="M142.888 68.9458C142.596 68.9458 142.45 68.9458 142.304 68.9458C142.158 68.9458 142.013 68.8 141.867 68.5085C141.721 68.2169 141.575 67.7797 141.575 67.0508C141.575 66.1763 141.721 65.5932 142.013 65.4475C142.158 65.3017 142.596 65.1559 143.034 65.1559C143.909 65.1559 144.638 64.5729 145.367 63.261C146.242 61.5119 146.826 59.1797 147.117 56.4102C147.117 55.8271 147.117 55.3898 147.117 54.9525C147.117 54.5152 147.117 54.2237 147.117 54.078C147.117 52.0373 147.263 50.4339 147.263 48.9763C147.263 47.5186 147.263 46.3525 147.263 45.3322C147.263 40.522 146.971 37.0237 146.534 34.8373C145.805 31.339 144.638 29.2983 143.179 29.0068C142.596 29.0068 142.158 28.861 141.867 28.7152C141.575 28.5695 141.429 27.9864 141.429 27.1119C141.429 26.0915 141.575 25.5085 141.867 25.3627C142.158 25.2169 142.45 25.0712 142.742 25.0712H143.179H147.992C152.514 24.6339 156.889 23.6136 161.119 21.7186C161.265 21.7186 161.411 21.5729 161.556 21.5729C161.702 21.5729 161.848 21.5729 161.994 21.5729C162.432 21.5729 162.869 21.7186 163.307 22.0102C163.744 22.3017 164.036 22.8847 164.036 23.6136L163.598 31.7763C163.452 35.2746 163.307 38.0441 163.161 40.3763C163.015 42.5627 163.015 44.3119 163.015 45.3322C163.015 46.4983 163.015 48.1017 163.015 49.9966C163.015 51.8915 163.161 54.078 163.307 56.5559C163.452 58.0136 163.744 59.1797 163.89 60.3458C164.036 61.5119 164.473 62.5322 164.911 63.4068C165.494 64.7186 166.224 65.3017 167.245 65.3017C167.682 65.3017 167.974 65.4475 168.12 65.5932C168.411 65.739 168.557 66.322 168.557 67.1966C168.557 67.7797 168.411 68.3627 168.266 68.6542C168.12 68.9458 167.828 69.0915 167.245 69.0915H142.888V68.9458ZM153.826 21.2814C151.055 21.2814 148.722 20.261 146.68 18.3661C144.638 16.4712 143.763 13.9932 143.763 11.2237C143.763 8.45423 144.784 6.12203 146.68 4.22711C148.576 2.3322 151.055 1.31186 153.826 1.31186C156.598 1.31186 158.931 2.3322 160.973 4.22711C162.869 6.12203 163.89 8.45423 163.89 11.2237C163.89 13.9932 162.869 16.3254 160.973 18.3661C158.785 20.261 156.452 21.2814 153.826 21.2814Z" fill="white"/>
<path d="M189.268 69.5288C181.246 69.5288 177.162 65.739 176.871 58.0136V57.8678C176.871 57.4305 176.871 56.9932 176.871 56.4102C176.871 55.8271 177.017 55.2441 177.017 54.5153C177.308 49.5593 177.454 45.6237 177.6 42.417C177.746 39.2102 177.746 36.878 177.746 35.2746C177.746 34.1085 177.746 32.6509 177.6 31.339C177.454 29.8814 177.454 28.4237 177.308 26.6746H170.307C169.87 26.6746 169.432 26.5288 169.141 26.2373C168.849 25.9458 168.703 25.5085 168.703 25.0712V22.739C168.703 22.3017 168.849 22.0102 169.141 21.5729C169.432 21.2814 169.87 21.1356 170.307 21.1356H176.871C178.621 20.9898 180.225 19.8237 181.975 17.6373C183.58 15.4509 185.184 13.1187 186.643 10.4949C187.08 9.76611 187.664 8.89153 188.101 8.16272C188.539 7.4339 188.976 6.70509 189.414 6.12204C190.581 4.51865 191.601 3.64407 192.477 3.64407C192.914 3.64407 193.352 3.78984 193.789 4.08136C194.227 4.37289 194.518 4.95594 194.518 5.68475L193.935 21.1356H201.082C201.519 21.1356 201.811 21.2814 202.248 21.5729C202.54 21.8644 202.686 22.3017 202.686 22.739V25.0712C202.686 25.5085 202.54 25.9458 202.248 26.2373C201.957 26.5288 201.519 26.6746 201.082 26.6746H193.789C193.789 28.7153 193.643 30.4644 193.643 31.922C193.643 33.3797 193.643 34.5458 193.643 35.2746C193.643 40.2305 193.935 47.8102 194.373 57.722C194.373 57.722 194.373 57.8678 194.518 58.1593C194.518 58.3051 194.518 58.7424 194.664 59.0339C194.81 60.4915 195.102 61.6576 195.831 62.678C196.415 63.6983 197.29 64.1356 198.311 64.1356C199.04 64.1356 199.332 64.5729 199.332 65.4475C199.332 66.4678 198.894 67.1966 198.019 67.6339C196.415 68.5085 194.373 69.0915 191.893 69.3831C191.456 69.3831 191.018 69.5288 190.581 69.5288C190.143 69.5288 189.705 69.5288 189.268 69.5288Z" fill="white"/>
<path d="M245.274 69.6746C240.607 69.6746 237.107 68.2169 234.919 65.4474C234.335 64.7186 233.898 63.6983 233.46 62.5322C232.731 63.9898 231.127 65.4474 228.647 66.9051C225.73 68.5085 222.376 69.383 218.875 69.383C215.958 69.383 213.041 68.5085 210.124 66.9051C205.895 64.1356 203.707 60.3457 203.707 55.3898C203.707 53.6407 203.999 51.8915 204.728 50.1424C206.332 46.2068 209.541 43.1458 214.646 40.8135C218.292 39.2102 222.376 38.3356 227.043 38.3356C227.918 38.3356 228.939 38.3356 229.96 38.4813C230.981 38.4813 231.856 38.6271 232.877 38.7729C232.439 34.8373 231.71 31.7763 230.543 29.5898C229.377 27.4034 227.918 26.383 226.022 26.383H225.293C223.688 26.9661 222.376 28.1322 221.355 29.5898C220.334 31.1932 219.75 32.7966 219.605 34.2542C219.313 35.8576 218.438 37.1695 217.271 38.1898C216.25 38.9186 215.083 39.3559 213.771 39.3559C212.896 39.3559 212.166 39.2102 211.729 38.9186C209.249 37.8983 207.937 36.0034 207.937 33.2339V32.3593C208.083 31.0474 208.52 29.7356 209.395 28.278C210.854 25.8 213.187 24.0508 216.396 22.5932C218.875 21.4271 222.376 20.8441 227.043 20.8441C231.71 20.8441 235.648 21.4271 238.711 22.4474C241.774 23.6135 244.253 25.5085 246.295 28.4237C247.754 30.4644 248.92 32.6508 249.65 34.983C250.379 37.3152 250.816 41.2508 250.816 46.6441V59.0339C250.816 60.4915 251.108 61.6576 251.837 62.678C252.567 63.6983 253.442 64.1356 254.463 64.1356C255.192 64.1356 255.484 64.5729 255.484 65.4474C255.484 66.4678 255.046 67.1966 254.171 67.6339C252.567 68.5085 250.525 69.0915 248.045 69.383C247.608 69.383 247.17 69.5288 246.733 69.5288C246.149 69.6746 245.712 69.6746 245.274 69.6746ZM230.252 60.2C231.273 60.2 232.148 60.0542 232.877 59.9085C232.877 59.6169 232.877 59.1796 232.877 58.8881C232.877 58.5966 232.877 58.1593 232.877 57.8678V47.5186V44.0203C229.085 44.0203 226.168 44.8949 223.98 46.7898C222.376 48.2474 221.501 49.8508 221.501 52.0373C221.501 52.4746 221.501 52.7661 221.647 53.2034C221.647 53.6407 221.792 53.9322 221.938 54.3695C222.522 56.1186 223.397 57.4305 224.418 58.3051C225.876 59.6169 227.918 60.2 230.252 60.2Z" fill="white"/>
<path d="M258.838 68.9458C258.546 68.9458 258.4 68.9458 258.255 68.9458C258.109 68.9458 257.963 68.8 257.817 68.5085C257.671 68.2169 257.525 67.7797 257.525 67.0508C257.525 66.1763 257.671 65.5932 257.963 65.4475C258.109 65.3017 258.546 65.1559 258.984 65.1559H259.276C261.026 64.7186 262.193 62.2407 262.776 57.722C262.922 53.6407 263.068 49.2678 263.068 44.8949C263.214 40.3763 263.214 35.7119 263.214 30.9017C263.214 26.3831 263.214 22.3017 263.068 18.9492C262.776 11.9525 261.463 8.16272 259.13 7.57967C258.546 7.57967 258.109 7.4339 257.963 7.28814C257.671 7.14238 257.525 6.55933 257.525 5.68475C257.525 4.66441 257.671 4.08136 257.963 3.9356C258.255 3.78983 258.546 3.64407 258.838 3.64407H259.276H262.63C267.443 3.49831 272.256 2.33221 277.215 0.29153C277.361 0.29153 277.507 0.145767 277.653 0.145767C277.798 0.145767 277.944 0.145767 278.09 0.145767C278.528 0.145767 278.965 0.29153 279.403 0.583055C279.84 0.874581 280.132 1.45763 280.132 2.18644L279.549 10.9322L279.257 17.2C279.257 19.0949 279.111 21.2814 279.111 23.4678C279.111 25.6542 279.111 28.1322 279.111 30.6102C279.111 35.4203 279.111 40.0847 279.257 44.6034C279.403 49.122 279.403 53.3491 279.549 57.4305C279.84 59.0339 280.132 60.4915 280.715 62.0949C281.299 63.9898 282.32 65.0102 283.487 65.0102C283.924 65.0102 284.216 65.1559 284.507 65.3017C284.799 65.4475 284.945 66.0305 284.945 66.9051C284.945 67.4881 284.799 68.0712 284.653 68.3627C284.507 68.6542 284.216 68.8 283.632 68.8H258.838V68.9458Z" fill="white"/>
<path d="M211.551 145.251L200.158 109.763L189.138 145.251H168.219L151.222 92.3926C150.288 90.3381 149.167 89.0306 147.673 88.6571H147.299C146.739 88.6571 146.366 88.4703 145.992 88.2835C145.618 88.0967 145.432 87.3496 145.432 86.4157C145.432 85.4818 145.618 84.9215 145.805 84.5479C145.992 84.1744 146.366 83.9876 147.113 83.9876H172.141H178.492C178.865 83.9876 179.052 83.9876 179.239 83.9876C179.425 83.9876 179.799 84.1744 179.799 84.5479C179.986 84.9215 179.986 85.4818 179.986 86.4157C179.986 87.5364 179.799 88.0967 179.425 88.2835C179.052 88.4703 178.678 88.6571 178.118 88.6571H177.744C176.25 89.0306 175.503 90.3381 175.503 92.7662C175.503 93.8869 175.69 95.1943 176.063 96.6886L186.523 127.694L195.862 98.1828L193.994 92.3926C193.06 90.3381 191.94 89.0306 190.445 88.6571H190.072C189.512 88.6571 189.138 88.4703 188.764 88.2835C188.391 88.0967 188.204 87.3496 188.204 86.4157C188.204 85.4818 188.391 84.9215 188.578 84.5479C188.764 84.1744 189.138 83.9876 189.885 83.9876H214.914H221.451C221.824 83.9876 222.011 83.9876 222.198 83.9876C222.385 83.9876 222.571 84.1744 222.758 84.5479C222.945 84.9215 222.945 85.4818 222.945 86.4157C222.945 87.5364 222.758 88.0967 222.571 88.2835C222.198 88.4703 221.824 88.6571 221.264 88.6571H221.077H220.89C219.396 89.0306 218.836 90.3381 218.836 92.7662C218.836 93.8869 219.023 95.1943 219.396 96.6886L229.856 127.694L239.382 97.2489C240.129 94.634 240.502 92.7662 240.502 91.272C240.502 89.7777 239.942 89.0306 238.821 88.6571C238.074 88.6571 237.514 88.4703 237.327 88.2835C236.953 88.0967 236.767 87.3496 236.767 86.4157C236.767 85.6686 236.953 84.9215 237.14 84.5479C237.327 84.1744 237.701 83.9876 238.448 83.9876H253.203C253.577 83.9876 253.764 83.9876 253.95 83.9876C254.324 83.9876 254.511 84.1744 254.697 84.5479C254.884 84.9215 254.884 85.4818 254.884 86.4157C254.884 87.5364 254.698 88.0967 254.324 88.2835C254.137 88.4703 253.577 88.6571 252.643 88.6571C251.522 89.0306 250.402 89.9645 249.468 91.4587C248.907 92.2059 248.534 93.1398 248.16 93.8869C247.787 94.634 247.413 95.5679 247.04 96.5018L231.91 145.251H211.551Z" fill="white"/>
<path d="M301.766 146.185C295.789 146.185 291.306 144.317 288.504 140.768C287.757 139.835 287.197 138.527 286.637 137.033C285.703 138.901 283.648 140.768 280.473 142.636C276.737 144.691 272.441 145.812 267.959 145.812C264.223 145.812 260.488 144.691 256.752 142.636C251.335 139.087 248.534 134.231 248.534 127.881C248.534 125.639 248.907 123.398 249.841 121.157C251.896 116.114 256.005 112.191 262.542 109.203C267.212 107.148 272.441 106.028 278.418 106.028C279.539 106.028 280.846 106.028 282.154 106.214C283.461 106.214 284.582 106.401 285.89 106.588C285.329 101.545 284.395 97.6225 282.901 94.8208C281.407 92.0191 279.539 90.7117 277.111 90.7117H276.177C274.122 91.4588 272.441 92.953 271.134 94.8208C269.827 96.8754 269.079 98.9299 268.893 100.798C268.519 102.852 267.398 104.533 265.904 105.841C264.597 106.775 263.102 107.335 261.421 107.335C260.301 107.335 259.367 107.148 258.807 106.775C255.631 105.467 253.95 103.039 253.95 99.4903V98.3696C254.137 96.6886 254.697 95.0076 255.818 93.1398C257.686 89.9645 260.674 87.7232 264.783 85.8554C267.959 84.3612 272.441 83.614 278.418 83.614C284.395 83.614 289.438 84.3612 293.361 85.6686C297.283 87.1628 300.458 89.591 303.073 93.3266C304.941 95.9415 306.435 98.7432 307.369 101.732C308.303 104.72 308.863 109.763 308.863 116.674V132.55C308.863 134.418 309.237 135.912 310.171 137.22C311.105 138.527 312.225 139.087 313.533 139.087C314.467 139.087 314.84 139.648 314.84 140.768C314.84 142.076 314.28 143.01 313.159 143.57C311.105 144.691 308.49 145.438 305.315 145.812C304.754 145.812 304.194 145.998 303.634 145.998C302.886 145.998 302.326 146.185 301.766 146.185ZM282.527 134.044C283.835 134.044 284.956 133.858 285.89 133.671C285.89 133.297 285.89 132.737 285.89 132.363C285.89 131.99 285.89 131.43 285.89 131.056V117.795V113.312C281.033 113.312 277.298 114.433 274.496 116.861C272.441 118.729 271.321 120.783 271.321 123.585C271.321 124.145 271.321 124.519 271.508 125.079C271.508 125.639 271.694 126.013 271.881 126.573C272.628 128.815 273.749 130.496 275.056 131.616C277.111 133.111 279.539 134.044 282.527 134.044Z" fill="white"/>
<path d="M332.024 145.064L315.027 92.2059C314.093 90.1513 312.972 88.8439 311.478 88.4703H311.105C310.544 88.4703 310.171 88.2835 309.797 88.0967C309.424 87.91 309.237 87.1629 309.237 86.229C309.237 85.2951 309.424 84.7347 309.61 84.3612C309.797 83.9876 310.171 83.8008 310.918 83.8008H335.946H342.483C342.857 83.8008 343.044 83.8008 343.231 83.8008C343.417 83.8008 343.604 83.9876 343.791 84.3612C343.978 84.7347 343.978 85.2951 343.978 86.229C343.978 87.3496 343.791 87.91 343.604 88.0967C343.231 88.2835 342.857 88.4703 342.297 88.4703H341.923C340.429 88.8439 339.869 90.1513 339.869 92.5794C339.869 93.7001 340.055 95.0076 340.429 96.5018L350.889 127.32L360.414 96.8754C361.161 94.2605 361.535 92.2059 361.535 90.8984C361.535 89.4042 360.975 88.6571 359.854 88.2835C359.107 88.2835 358.547 88.0967 358.36 87.91C357.986 87.7232 357.799 86.9761 357.799 86.0422C357.799 85.2951 357.986 84.5479 358.173 84.1744C358.36 83.8008 358.733 83.614 359.48 83.614H374.236C374.61 83.614 374.796 83.614 374.983 83.614C375.17 83.614 375.543 83.8008 375.543 84.1744C375.73 84.5479 375.73 85.1083 375.73 86.0422C375.73 87.1629 375.543 87.7232 375.17 87.91C374.983 88.0967 374.423 88.2835 373.676 88.2835C372.555 88.6571 371.434 89.591 370.5 91.0852C369.94 91.8323 369.567 92.7662 369.193 93.5133C368.819 94.2605 368.446 95.1944 368.072 96.1283L352.943 145.064H332.024Z" fill="white"/>
<path d="M404.121 144.878C395.156 144.317 388.058 141.142 382.455 135.352C377.038 129.748 374.236 122.651 374.236 114.246C374.236 108.642 375.544 103.599 378.345 98.7431C380.96 94.0737 384.509 90.5249 388.992 87.7232C393.475 84.9215 398.518 83.614 403.934 83.4272C409.351 83.4272 414.207 84.5479 418.316 86.9761C422.425 89.4042 425.787 92.953 428.029 97.8092C430.27 102.666 431.578 108.829 431.578 116.114C431.578 117.234 431.017 117.608 430.083 117.608H408.977H396.837C398.144 125.453 401.133 130.682 406.176 132.924C408.23 133.858 410.098 134.231 411.779 134.231C415.888 134.231 419.81 131.99 423.546 127.507C424.48 126.386 425.414 125.826 426.348 125.826C426.534 125.826 426.908 125.826 427.655 126.013C428.402 126.2 428.963 126.76 429.336 128.067C429.523 128.441 429.523 128.815 429.523 129.375C429.523 130.309 429.149 131.243 428.589 132.363C423.359 140.582 415.515 144.878 405.428 144.878H404.121ZM409.351 110.697C409.351 108.456 409.351 106.401 409.351 104.533C409.351 102.666 409.164 100.984 409.164 99.4903C408.977 96.5018 408.417 94.2604 407.67 92.7662C406.923 91.272 405.802 90.5249 404.121 90.5249C399.265 90.7116 396.837 97.2489 396.837 110.137V110.697H409.351Z" fill="white"/>
<path d="M461.836 145.064C450.255 145.064 442.598 142.076 439.049 135.912C437.928 134.044 437.368 132.363 437.181 130.682V129.375V128.815C437.554 125.826 439.236 123.772 442.037 122.651C442.971 122.277 443.905 122.091 444.839 122.091C446.52 122.091 448.014 122.651 449.508 123.772C451.003 124.892 451.937 126.386 452.31 128.441C452.497 130.309 453.057 132.363 454.178 134.418C455.299 136.473 457.166 137.593 459.594 137.967H459.781C460.715 138.154 461.649 138.154 462.396 138.154C464.637 138.154 466.318 137.78 467.626 136.846C468.56 136.286 469.12 135.352 469.12 134.418C469.12 133.671 468.56 132.363 467.439 130.496C466.318 128.815 462.396 126.573 455.859 123.585C449.322 120.783 445.026 118.355 442.971 116.3C439.049 112.565 436.994 107.895 436.994 102.666C436.994 102.292 436.994 101.918 436.994 101.545C436.994 101.171 436.994 100.798 436.994 100.424C437.181 96.315 439.236 92.5794 442.784 89.2174C445.96 86.6025 449.508 85.1083 453.431 84.5479C456.606 83.9876 459.221 83.8008 461.649 83.8008H462.956C468.56 83.8008 473.043 84.3611 476.218 85.6686C480.327 87.5364 483.502 89.9645 485.37 93.1398C486.304 95.0076 487.051 96.6886 487.051 98.3696V99.677V100.237C486.677 103.226 484.996 105.28 482.195 106.401C481.448 106.775 480.514 106.961 479.58 106.961C477.899 106.961 476.218 106.401 474.91 105.28C473.416 104.16 472.482 102.666 472.109 100.611C472.109 99.677 471.735 98.7431 471.362 97.6225C470.988 96.5018 470.428 95.7547 469.867 94.634C468.56 92.7662 466.879 91.4588 464.824 90.5249C464.451 90.5249 464.264 90.3381 464.077 90.3381C463.89 90.3381 463.33 90.1513 462.396 90.1513C459.408 90.1513 456.98 91.0852 455.485 93.1398C454.925 93.8869 454.551 94.634 454.551 95.5679C454.551 96.6886 455.112 97.996 456.419 99.8638C457.54 101.732 461.462 103.599 467.813 105.654C473.416 107.522 477.899 109.39 481.261 111.444C484.623 113.499 486.864 115.74 488.358 117.981C489.853 120.41 490.413 122.838 490.413 125.639C490.413 128.067 489.853 130.496 488.545 132.924C486.117 137.78 482.381 141.142 477.152 142.823C473.603 143.944 469.12 144.691 464.077 144.691H461.836V145.064Z" fill="white"/>
</svg>
