<svg width="206" height="406" viewBox="0 0 206 406" fill="none" xmlns="http://www.w3.org/2000/svg">
<path d="M203.193 372.928V85.314L172.462 41.93H65.8099L2.97791 3.22101" stroke="white" stroke-width="2"/>
<path d="M195.773 402.872V88.2578L170.043 49.8738H63.3907L13.776 19.1434" stroke="white" stroke-width="2"/>
<circle cx="2.97781" cy="3.22097" r="2.58328" fill="white"/>
<circle cx="2.97781" cy="3.22097" r="2.58328" fill="white"/>
<circle cx="2.97781" cy="3.22097" r="2.58328" fill="white"/>
<circle cx="2.97781" cy="3.22097" r="2.58328" fill="white"/>
<circle cx="13.7759" cy="19.1434" r="2.58328" fill="white"/>
<circle cx="13.7759" cy="19.1434" r="2.58328" fill="white"/>
<circle cx="13.7759" cy="19.1434" r="2.58328" fill="white"/>
<circle cx="13.7759" cy="19.1434" r="2.58328" fill="white"/>
<circle cx="195.773" cy="403.267" r="2.58328" fill="white"/>
<circle cx="195.773" cy="403.267" r="2.58328" fill="white"/>
<circle cx="195.773" cy="403.267" r="2.58328" fill="white"/>
<circle cx="195.773" cy="403.267" r="2.58328" fill="white"/>
<circle cx="203.193" cy="372.267" r="2.58328" fill="white"/>
<circle cx="203.193" cy="372.267" r="2.58328" fill="white"/>
<circle cx="203.193" cy="372.267" r="2.58328" fill="white"/>
<circle cx="203.193" cy="372.267" r="2.58328" fill="white"/>
</svg>
