<svg width="75" height="502" viewBox="0 0 75 502" fill="none" xmlns="http://www.w3.org/2000/svg">
<path d="M72.0867 498.446V161.39L9.91138 110.668V1.0434" stroke="white" stroke-width="2"/>
<path d="M65.0867 452.446V165.39L2.91138 114.668V45.0434" stroke="white" stroke-width="2"/>
<circle cx="65.0506" cy="452.979" r="2.58328" fill="white"/>
<circle cx="65.0506" cy="452.979" r="2.58328" fill="white"/>
<circle cx="65.0506" cy="452.979" r="2.58328" fill="white"/>
<circle cx="65.0506" cy="452.979" r="2.58328" fill="white"/>
<circle cx="72.0506" cy="498.979" r="2.58328" fill="white"/>
<circle cx="72.0506" cy="498.979" r="2.58328" fill="white"/>
<circle cx="72.0506" cy="498.979" r="2.58328" fill="white"/>
<circle cx="72.0506" cy="498.979" r="2.58328" fill="white"/>
<circle cx="10.044" cy="2.62667" r="2.58328" fill="white"/>
<circle cx="10.044" cy="2.62667" r="2.58328" fill="white"/>
<circle cx="10.044" cy="2.62667" r="2.58328" fill="white"/>
<circle cx="10.044" cy="2.62667" r="2.58328" fill="white"/>
<circle cx="3.04397" cy="43.6267" r="2.58328" fill="white"/>
<circle cx="3.04397" cy="43.6267" r="2.58328" fill="white"/>
<circle cx="3.04397" cy="43.6267" r="2.58328" fill="white"/>
<circle cx="3.04397" cy="43.6267" r="2.58328" fill="white"/>
</svg>
