<?xml version="1.0" encoding="utf-8"?>
<!-- Generator: Adobe Illustrator 24.3.0, SVG Export Plug-In . SVG Version: 6.00 Build 0)  -->
<svg version="1.1" id="Layer_1" xmlns="http://www.w3.org/2000/svg" xmlns:xlink="http://www.w3.org/1999/xlink" x="0px" y="0px"
	 viewBox="0 0 155.4 124.9" style="enable-background:new 0 0 155.4 124.9;" xml:space="preserve">
<style type="text/css">
	.st0{fill:#FFFFFF;}
	.st1{fill-rule:evenodd;clip-rule:evenodd;fill:#FFFFFF;}
</style>
<g>
	<path class="st0" d="M87.1,110.1c0,0.1-0.2,0.9-0.7,2.5l1.5-0.2C87.5,111,87.2,110.2,87.1,110.1L87.1,110.1z"/>
	<path class="st0" d="M30.2,116c-0.3,0-0.5,0.1-0.7,0.1c0,0.3,0,0.8,0,1.8c0.2,0,0.3,0,0.4,0c0.9-0.1,1.4-0.5,1.3-1.2
		C31.2,116.2,30.9,115.9,30.2,116z"/>
	<path class="st0" d="M73.2,111.5c0,0.1-0.2,0.9-0.7,2.5l1.5-0.2C73.5,112.4,73.3,111.6,73.2,111.5L73.2,111.5z"/>
	<path class="st0" d="M52.3,113.7c0,0.1-0.2,0.9-0.7,2.5l1.5-0.2C52.6,114.6,52.4,113.8,52.3,113.7L52.3,113.7z"/>
	<path class="st0" d="M59.9,112.9c-0.3,0-0.5,0.1-0.7,0.1c0,0.3,0,0.8,0,1.8c0.2,0,0.3,0,0.4,0c0.9-0.1,1.4-0.5,1.3-1.2
		C60.9,113.1,60.6,112.9,59.9,112.9z"/>
	<path class="st0" d="M111.6,107.6c-0.3,0-0.5,0.1-0.7,0.1c0,0.3,0,0.8,0,1.8c0.2,0,0.3,0,0.4,0c0.9-0.1,1.4-0.5,1.3-1.2
		C112.6,107.7,112.3,107.5,111.6,107.6z"/>
	<path class="st0" d="M108.4,9.3c-0.2,0-0.5-0.1-0.8-0.1C107.8,9.3,108.1,9.3,108.4,9.3C108.4,9.3,108.4,9.3,108.4,9.3z"/>
	<path class="st0" d="M130.5,106.1c-0.3-0.3-0.6-0.4-1-0.4c-0.5,0.1-0.9,0.3-1.1,0.8c-0.3,0.5-0.4,1.1-0.3,1.6
		c0.1,0.5,0.2,0.9,0.5,1.2c0.3,0.3,0.6,0.4,1,0.4c0.5-0.1,0.9-0.3,1.1-0.9c0.3-0.5,0.4-1.1,0.3-1.6
		C131,106.8,130.8,106.4,130.5,106.1z"/>
	<path class="st0" d="M28.1,96.2c-0.4,0.7-0.5,1.5-0.4,2.4c0.2,1.5,0.7,2.1,1.7,2c0.6-0.1,1.1-0.5,1.5-1.3c0.4-0.8,0.6-1.6,0.6-2.5
		l0-1.6C31,95,30.5,94.9,30,94.9C29.1,95,28.5,95.4,28.1,96.2z"/>
	<path class="st0" d="M87.8,72.6c-0.6,0.1-1.2,0.4-1.8,0.9c-0.5,0.5-0.8,1.2-0.9,2.1c3.1-0.4,4.6-1.1,4.5-2.1
		C89.5,72.8,88.9,72.5,87.8,72.6z"/>
	<path class="st0" d="M147.1,87.6c0,0,0,0.2-0.1,0.3c-0.1,0.1-0.2,0.1-0.3,0.1c-0.1,0-0.3,0-0.4-0.1c-0.3-0.2-0.5-0.5-0.5-0.6l0,0
		c0,0,0,0,0,0c0,0,0,0,0,0l0,0c0-0.1,0.1-0.2,0.1-0.3c0-0.1,0.2-0.1,0.3-0.1c0.1,0,0.3,0,0.4,0.1c0.1,0.1,0.2,0.1,0.3,0.2l1.3-0.1
		c-0.1-0.5-0.3-0.8-0.7-1.1c-0.4-0.3-0.8-0.4-1.3-0.3c-0.6,0.1-1.1,0.3-1.5,0.8c-0.4,0.5-0.5,1-0.5,1.7c0.1,0.6,0.3,1,0.7,1.2
		c0.4,0.3,0.8,0.4,1.3,0.3c0.6-0.1,1.1-0.3,1.5-0.8c0.4-0.5,0.5-1,0.5-1.7c0-0.1,0-0.1,0-0.2l-1.3,0.2
		C147,87.4,147.1,87.5,147.1,87.6z"/>
	<path class="st0" d="M97.9,90.8c-0.6,0.1-1.2,0.4-1.8,0.9c-0.5,0.5-0.8,1.2-0.9,2.1c3.1-0.4,4.6-1.1,4.5-2.1
		C99.7,91,99.1,90.7,97.9,90.8z"/>
	<path class="st0" d="M56.2,77c-0.1-0.7-0.7-1-1.8-0.9c-0.6,0.1-1.2,0.4-1.8,0.9c-0.5,0.5-0.8,1.2-0.9,2.1
		C54.8,78.7,56.3,78,56.2,77z"/>
	<path class="st0" d="M74.2,54.6c-0.1-0.8-0.8-1.2-2.1-1.1c-0.8,0.1-1.4,0.4-2,1c-0.6,0.6-1,1.4-1.1,2.5
		C72.5,56.6,74.3,55.8,74.2,54.6z"/>
	<path class="st0" d="M143.6,97.7c0.1,1.2,0.9,1.8,2.4,1.6c1.1-0.1,2-0.4,2.7-0.9c0.7-0.5,1-1.2,0.9-2.1c0-0.1,0-0.1-0.1-0.2
		l-2.3,0.3c0,0,0,0,0,0c0,0,0,0,0,0l2.3-0.2c-0.1-0.3-0.2-0.5-0.5-0.7c-0.3-0.1-1.1-0.2-2.2,0c-0.7,0.1-1.5,0.1-2.1,0.1
		C143.8,96,143.5,96.7,143.6,97.7z"/>
	<path class="st0" d="M66,97.6c0.4,0.3,0.8,0.4,1.3,0.3c0.6-0.1,1.1-0.3,1.5-0.8c0.4-0.5,0.5-1,0.5-1.7c-0.1-0.6-0.3-1-0.7-1.3
		c-0.4-0.3-0.8-0.4-1.3-0.3c-0.6,0.1-1.1,0.3-1.5,0.8c-0.4,0.5-0.5,1-0.5,1.7C65.4,96.9,65.6,97.3,66,97.6z"/>
	<path class="st0" d="M69.9,103.6c-0.3-0.1-1.1-0.2-2.2,0c-0.7,0.1-1.5,0.1-2.1,0.1c-0.8,0.6-1.1,1.3-1,2.2c0.1,1.2,0.9,1.8,2.4,1.6
		c1.1-0.1,2-0.4,2.7-0.9c0.7-0.5,1-1.2,0.9-2.1C70.5,104,70.3,103.7,69.9,103.6z"/>
	<path class="st0" d="M107.4,90.5c-0.5,0.5-0.8,1.2-0.9,2.1c3.1-0.4,4.6-1.1,4.5-2.1c-0.1-0.7-0.7-1-1.8-0.9
		C108.5,89.7,107.9,90,107.4,90.5z"/>
	<path class="st0" d="M153.7,79.4c-0.7-0.3-1.6-0.4-2.5-0.3c-0.8,0.1-2.3,0.4-3.3,1.9c-0.5,0-1.1,0-1.6,0c-2,0.2-3.6,0.9-5,2
		c-0.3,0.2-0.5,0.4-0.7,0.7c-1.1-1.2-2.7-1.8-4.6-1.6c-1,0.1-1.9,0.4-2.7,0.8c-0.5-0.3-1.1-0.3-1.7-0.2l-1.3,0.3c0-0.3,0-0.6,0-0.9
		c0,0,0,0,0,0c-0.3-2.4-2.1-3.9-4.5-3.6c-1.3,0.1-2.4,0.7-3.2,1.7c-0.1,0.1-0.1,0.2-0.2,0.3v-5.9c0.8-0.5,1.5-1.1,2.1-1.9
		c1.2-1.7,1.6-3.9,0.9-5.9c-1.7-5.2-3.6-11.8-3.9-13.7l8.6-7.4c0.8-0.7,1.5-1.6,1.8-2.6c0.9,0.2,1.8,0.3,2.8,0.3
		c8,0,14.6-6.5,14.6-14.6c0-8-6.5-14.6-14.6-14.6c-3.2,0-6.1,1-8.5,2.8c0.1-0.8,0.2-1.7,0.2-2.5c0-8-6.5-14.6-14.6-14.6
		c-8,0-14.6,6.5-14.6,14.6c0,1.1,0.1,2.2,0.4,3.2c-2.5-2.1-5.8-3.4-9.4-3.4c-8,0-14.6,6.5-14.6,14.6c0,8,6.5,14.6,14.6,14.6
		c1,0,2-0.1,2.9-0.3c0.3,0.7,0.7,1.3,1.2,1.8c0.2,0.2,0.3,0.3,0.5,0.5l2.3,2l-3.4,0.5c-0.9-0.6-2.2-1.2-4.2-1
		c-1.2,0.1-2.3,0.5-3.2,1c-0.6-0.3-1.2-0.5-1.9-0.3l-3.2,0.7c-0.7,0.1-1.3,0.6-1.7,1.1c0,0,0,0,0,0.1c-0.1-0.1-0.3-0.2-0.4-0.3
		c-1.3-0.8-3-1-4.9-0.8c-2.4,0.3-4.5,1.3-6.2,3l-2.2,0.3c-0.1-0.1-0.1-0.1-0.1-0.2c-0.8-0.9-2.3-1.8-4.9-1.5c-1.6,0.2-2.9,0.7-4,1.6
		c-1.1-0.7-2.3-0.9-3.8-0.8c-1.2,0.1-2.2,0.4-3.1,1c-0.6-0.3-1.2-0.4-1.9-0.3l-3.2,0.7c-0.7,0.1-1.3,0.6-1.7,1.1
		c-0.2,0.4-0.4,0.8-0.4,1.2c-0.1-0.1-0.2-0.2-0.4-0.3c-1.7-1.4-3.8-2-5.9-1.7c-2.2,0.2-4,1-5.5,2.3c0.5-1.9,0.5-2.6,0.5-3.2
		c-0.1-0.7-0.4-1.3-1-1.8c-0.5-0.4-1.2-0.7-1.9-0.6l-3.7,0.4c-1.4,0.1-2.5,1.5-2.3,2.9c0,0.1,0,0.8-0.5,3c-0.5-1.9-0.6-2.7-0.6-2.9
		c-0.1-0.7-0.4-1.3-1-1.8c-0.5-0.4-1.2-0.6-1.9-0.6l-3.6,0.4c-1.4,0.1-2.5,1.4-2.4,2.8c0,0.2-0.1,0.9-0.6,3
		c-0.5-1.9-0.6-2.6-0.6-2.8c-0.1-0.7-0.4-1.3-1-1.8S7,51.1,6.3,51.1l-3.9,0.4C0.9,51.7-0.1,53,0,54.4c0.1,0.8,0.5,2.5,2.7,8.7
		c1.6,4.3,2.2,6.4,2.4,7.3c-0.6,0.3-1.1,0.6-1.5,1.1c-0.7,0.9-1.1,2-0.9,3.2c0,0.3,0.1,0.6,0.2,0.9c-0.3,0.5-0.4,1.1-0.2,1.7
		c0,0.2,0.1,0.4,0.1,0.7c0.1,0.9,0.1,1.8,0.1,2.8c0,2-0.1,3.5-0.1,4.2c0,0.8,0.3,1.5,0.9,2.1c0.5,0.4,1.1,0.7,1.8,0.7
		c0.1,0,0.2,0,0.4,0L8,87.5c0.3,0,0.5-0.1,0.8-0.2l0.3,6.1c-1.4,0.6-2.5,1.4-3.3,2.5c-1.2,1.7-1.8,3.6-1.5,5.7
		c0.2,1.5,0.6,2.7,1.4,3.6c0.9,1,2.1,1.6,3.5,1.6c0.2,0,0.4,0,0.6,0c0.7-0.1,1.4-0.3,2-0.5c0.1,0,0.2,0,0.3,0.1
		c0.1,1.4,0.1,2.8,0.1,4.2c0,1.4,0,2.7,0.1,3.8c-0.9,0.5-1.4,1.5-1.3,2.5c0.1,0.7,0.1,1.5,0.1,2.4c0,1.5,0,2.5-0.1,2.9
		c0,0.8,0.3,1.5,0.8,2c0.5,0.5,1.1,0.7,1.8,0.7c0.1,0,0.2,0,0.3,0l1-0.1c0.4,0,0.8-0.2,1.2-0.4c0.4,0.1,0.8,0.2,1.2,0.2l1-0.1
		c0.2,0,0.4-0.1,0.6-0.1c0.4,0.1,0.7,0.1,1.1,0.1c0.3,0,0.6,0,0.9,0c0.9-0.1,1.6-0.3,2.3-0.6c0.2,0.1,0.5,0.1,0.8,0.1
		c0.1,0,0.2,0,0.3,0l3.5-0.4c0.2,0,0.3-0.1,0.5-0.1c0.1,0,0.1,0,0.2,0c0.1,0,0.2,0,0.3,0l1.2-0.1c0.4,0,0.7-0.1,1-0.3
		c0.3,0.1,0.7,0.1,1,0.1l1.2-0.1c0.4,0,0.8-0.2,1.1-0.4c0.4,0.1,0.9,0.2,1.5,0.2c0.2,0,0.5,0,0.7,0c0.5-0.1,1.1-0.2,1.7-0.4
		c0.6-0.2,1-0.5,1.3-1c0.7,0.4,1.5,0.7,2.7,0.7c0.2,0,0.5,0,0.7,0c0.5,0,1-0.2,1.5-0.3c0.1,0,0.2,0,0.2,0c0.1,0,0.2,0,0.3,0l1.2-0.1
		c0.3,0,0.7-0.1,1-0.3c0.3,0.1,0.7,0.1,1,0.1l1.2-0.1c0.1,0,0.2,0,0.3-0.1c0,0,0.1,0,0.1,0c0.1,0,0.2,0,0.3,0l1.2-0.1
		c0.5-0.1,0.9-0.2,1.3-0.5c0.4,0.2,0.9,0.3,1.4,0.2l1.3-0.1c0.1,0,0.2,0,0.3-0.1c0,0,0.1,0,0.1,0c0.1,0,0.2,0,0.3,0l1.2-0.1
		c0.2,0,0.4-0.1,0.6-0.2c0.1,0,0.3,0,0.4,0c0.1,0,0.2,0,0.3,0l1.2-0.1c0.4,0,0.7-0.1,1-0.3c0.3,0.1,0.7,0.1,1,0.1l1.2-0.1
		c0.8-0.1,1.5-0.5,2-1.2c0.3-0.5,0.4-1,0.4-1.5c0.5,0.4,1,0.5,1.6,0.5c0.1,0,0.2,0,0.4,0l1.1-0.2c0.2,0.3,0.4,0.7,0.7,0.9
		c0.5,0.4,1.1,0.7,1.7,0.7c0.1,0,0.2,0,0.3,0l1.2-0.1c0.5-0.1,0.9-0.2,1.3-0.5c0.4,0.2,0.9,0.3,1.4,0.2l1.3-0.1
		c0.3,0,0.5-0.1,0.7-0.2c0.2,0,0.4,0.1,0.5,0.1c0.1,0,0.2,0,0.3,0l1.2-0.1c0.4,0,0.8-0.2,1.1-0.4c0.3,0.1,0.6,0.2,0.9,0.2
		c0.1,0,0.2,0,0.3,0l3.4-0.4c0,0,0,0,0,0c0,0,0.1,0,0.1,0l1.2-0.1c0.5-0.1,0.9-0.2,1.3-0.5c0.4,0.2,0.9,0.3,1.4,0.2l1.3-0.1
		c0.1,0,0.2,0,0.3-0.1c0,0,0.1,0,0.1,0c0.1,0,0.2,0,0.3,0l1-0.1c0.4,0,0.8-0.2,1.2-0.4c0.4,0.2,0.8,0.2,1.2,0.2l1-0.1
		c0.4,0,0.8-0.2,1.2-0.4c0.3,0.1,0.6,0.2,1,0.2c0.1,0,0.2,0,0.3,0l1.2-0.1c0.4,0,0.8-0.2,1.1-0.4c0.3,0.1,0.6,0.2,0.9,0.2
		c0.1,0,0.2,0,0.3,0l1.2-0.1c0.5-0.1,1-0.2,1.3-0.5c0.5,0.2,1.1,0.3,1.8,0.3c0.2,0,0.5,0,0.7,0c0.5-0.1,1.1-0.2,1.7-0.4
		c0.3-0.1,0.6-0.2,0.8-0.4c0.4,0.2,0.8,0.3,1.2,0.3c0.1,0,0.2,0,0.3,0l1.2-0.1c0.4,0,0.7-0.1,1-0.3c0.3,0.1,0.7,0.1,1,0.1l1.2-0.1
		c0.1,0,0.2-0.1,0.4-0.1c0.1,0,0.1,0,0.2,0c0.1,0,0.2,0,0.3,0l3.5-0.4c0.4,0,0.8-0.2,1.2-0.4c0.5,0.1,1,0.2,1.6,0.2
		c0.2,0,0.5,0,0.7,0c0.6-0.1,1.2-0.2,1.9-0.5c0.2,0,0.4,0.1,0.6,0.1c0.1,0,0.2,0,0.3,0l1.2-0.1c0.5,0,0.9-0.2,1.2-0.5
		c0.5,0.2,1.1,0.3,1.7,0.3c0.2,0,0.4,0,0.5,0c0.8-0.1,1.6-0.3,2.3-0.8c0.3,0.2,0.7,0.2,1.1,0.2c0.1,0,0.2,0,0.3,0l1-0.1
		c0.4,0,0.8-0.2,1.2-0.4c0.4,0.2,0.8,0.2,1.2,0.2l1-0.1c1.4-0.1,2.4-1.3,2.4-2.7c0-0.8-0.1-1.8,0-2.8c0-1.4,0-2.3,0.1-2.6
		c0-0.2,0-0.4,0-0.6c0.3-0.3,0.6-0.6,0.9-1c0.2,0.1,0.4,0.2,0.6,0.3c0.9,0.5,2.1,0.7,3.4,0.7c0.4,0,0.9,0,1.4-0.1
		c2.4-0.2,4.5-1.1,6.1-2.6c1.9-1.7,2.8-3.8,2.5-6.2c-0.2-1.5-0.9-3-2.4-3.9c0.9-1.2,1.3-2.7,1.2-4.4c0.8-0.4,1.3-1.2,1.4-2l0.2-2.1
		C155.5,81,154.8,79.9,153.7,79.4z M124.4,82.1c0.4-0.4,0.8-0.7,1.4-0.8c1-0.1,1.5,0.3,1.6,1.3c0.1,0.6-0.1,1.1-0.5,1.6
		c-0.4,0.5-0.8,0.7-1.4,0.8c-0.5,0-0.8-0.1-1.1-0.3c-0.3-0.3-0.4-0.6-0.5-1C123.9,83.1,124.1,82.6,124.4,82.1z M102.1,21.2
		c0.3-0.5,1.3-3,3.1-7.5c0.2-0.4,0.3-0.7,0.4-0.9c0.2-0.7,0.4-3.1,0.5-4.5c-0.7-0.6-1.2-1.5-1.2-2.5c0-2.8,3.2-2.9,6.9-3l0.2,0
		c5.6-0.1,6.6,1.2,6.8,2.7c0.1,1-0.3,2.1-1.1,2.8c0.1,0.4,0.1,1,0.2,1.7c0.1,0.9,0.2,2.3,0.3,2.8c0.5,1.5,2.6,7.7,3.1,8.7l0.1,0.1
		c0.6,0.9,1.5,2.4,0.8,4.1c-0.7,1.8-2.7,2.3-3.4,2.5c-1.8,0.5-4.3,0.8-6.8,0.8c-2.8,0-5.5-0.3-7.3-0.8c-2.2-0.6-3-2-3.2-2.7
		C100.9,24,101.1,22.5,102.1,21.2z M92.1,73.1c0.2,2.2-2.1,3.6-6.9,4.2c0.1,1,0.4,1.7,0.8,2.2c0.4,0.4,1.1,0.6,2,0.5
		c1.2-0.1,2.5-0.6,3.8-1.6l-0.1,2.3c-1,0.9-2.4,1.4-4.2,1.6c-1.5,0.2-2.7-0.2-3.6-1c-0.8-0.8-1.3-2-1.5-3.5
		c-0.2-1.9,0.3-3.6,1.4-4.9c1.1-1.3,2.5-2,4.2-2.2c1.2-0.1,2.1,0,2.8,0.4C91.6,71.5,92,72.2,92.1,73.1z M82.8,50.4
		c0.1,0.7,0.3,1.6,0.4,2.6l0.2,0c0.8-1.9,2.3-3,4.3-3.2c2.3-0.2,3.6,0.9,3.8,3.5c0.1,0.8,0.1,2.2,0.1,4.3c0,2.1,0,3.7,0.1,4.7
		l-3.4,0.5c0-0.4,0-1.7,0.1-3.8c0.1-2.1,0.1-3.6,0-4.4c-0.1-0.9-0.3-1.5-0.6-1.8c-0.3-0.3-0.8-0.5-1.4-0.4c-0.8,0.1-1.5,0.7-2.1,1.8
		c-0.6,1.1-0.9,2.4-0.9,3.9c0,1.9,0,3.6,0.1,5.1l-3.3,0.5c0.1-4.6,0.1-7.7,0-9.2c-0.1-0.9-0.3-2-0.6-3.3L82.8,50.4z M78.4,71.8
		c0.9-0.1,1.7-0.1,2.3,0l-0.4,2.3C79.8,74,79,74,78.2,74c-1,0.1-1.7,0.6-2.2,1.4c-0.5,0.8-0.7,1.7-0.6,2.7c0.2,2.1,1.1,3,2.7,2.9
		c0.9-0.1,1.9-0.5,2.9-1.3L81,82c-0.9,0.8-1.9,1.2-3.3,1.3c-1.6,0.2-2.8-0.2-3.6-1.1c-0.8-0.9-1.3-2-1.5-3.5
		c-0.2-1.7,0.3-3.3,1.3-4.6C75,72.8,76.5,72,78.4,71.8z M75.2,93.1c-0.1-0.5-0.1-0.9-0.2-1.2l3-0.6c0,0.2,0,1,0,2.3
		c0,1.4-0.1,2.4-0.1,3.3c0,1.6,0,3.4,0.1,5.4l-2.9,0.4c0.1-1,0.1-2.8,0.2-5.5C75.4,95.6,75.3,94.3,75.2,93.1z M76.7,90
		c-0.5,0-0.8-0.1-1.1-0.3c-0.3-0.3-0.4-0.6-0.5-1c-0.1-0.6,0.1-1.1,0.5-1.6c0.4-0.4,0.8-0.7,1.4-0.8c1-0.1,1.5,0.3,1.6,1.3
		c0.1,0.6-0.1,1.1-0.5,1.6C77.8,89.7,77.3,90,76.7,90z M67.4,53.8c1.3-1.5,2.9-2.4,4.9-2.6c1.4-0.1,2.5,0,3.3,0.5
		c0.9,0.5,1.4,1.3,1.5,2.3c0.3,2.6-2.4,4.2-8.1,4.9c0.1,1.1,0.4,2,0.9,2.5c0.5,0.5,1.3,0.7,2.4,0.6c1.4-0.1,2.9-0.8,4.4-1.8
		l-0.1,2.6c-1.2,1-2.8,1.7-4.9,1.9c-1.8,0.2-3.2-0.2-4.2-1.2c-1-1-1.5-2.3-1.7-4.1C65.6,57.2,66.1,55.3,67.4,53.8z M63.4,75.7l0.2,0
		c0.7-1.7,1.9-2.6,3.7-2.7c2-0.2,3.1,0.8,3.3,3c0.1,0.7,0.1,1.9,0.1,3.7c0,1.8,0,3.2,0.1,4l-2.9,0.4c0-0.4,0-1.4,0-3.2
		c0.1-1.8,0.1-3.1,0-3.8c-0.1-0.8-0.2-1.3-0.5-1.6c-0.3-0.3-0.7-0.4-1.2-0.3c-0.7,0.1-1.2,0.6-1.8,1.5c-0.5,1-0.8,2.1-0.8,3.4
		c0,1.6,0,3.1,0.1,4.4l-2.8,0.4c0.1-3.9,0.1-6.6,0-7.9c-0.1-0.8-0.2-1.7-0.5-2.8l2.8-0.6C63.2,74.1,63.3,74.9,63.4,75.7z M46.4,54.2
		c0.1,0.7,0.3,1.5,0.4,2.6l0.2,0c0.8-1.9,2.2-3,4.2-3.2c1-0.1,1.8,0.1,2.4,0.5c0.6,0.4,0.9,1.1,1,1.9l0.2,0c0.9-1.9,2.3-3,4.3-3.2
		c1.2-0.1,2.1,0.1,2.7,0.7c0.6,0.6,0.9,1.5,1,2.8c0.1,0.9,0.1,2.4,0.1,4.5c0,2.1,0,3.6,0.1,4.5l-3.4,0.5c-0.1-0.6,0-1.9,0-3.9
		c0.1-2.1,0.1-3.5,0-4.2c-0.1-0.9-0.3-1.6-0.5-1.9c-0.3-0.3-0.7-0.5-1.2-0.4c-0.8,0.1-1.5,0.7-2.1,1.7c-0.6,1.1-0.9,2.4-0.9,4
		c0,2,0.1,3.7,0.2,5.1l-3.4,0.5c0-0.5,0-1.7,0-3.9c0.1-2.1,0.1-3.6,0-4.3c-0.1-0.9-0.3-1.6-0.5-1.9c-0.3-0.3-0.7-0.5-1.2-0.4
		c-0.8,0.1-1.5,0.7-2.1,1.8c-0.6,1.1-0.9,2.4-0.9,3.9c0,2,0,3.7,0.1,5.1l-3.3,0.5c0.1-4.6,0.1-7.7,0-9.2c-0.1-0.9-0.3-2-0.6-3.3
		L46.4,54.2z M44,77.1c-0.1-0.5-0.1-0.9-0.2-1.2l3-0.6c0,0.2,0,1,0,2.3c0,1.3-0.1,2.4-0.1,3.3c0,1.6,0,3.4,0.1,5.4l-2.9,0.4
		c0-1,0.1-2.8,0.2-5.5C44.2,79.6,44.2,78.3,44,77.1z M45.5,74.1c-0.5,0-0.8-0.1-1.1-0.3c-0.3-0.3-0.4-0.6-0.5-1
		c-0.1-0.6,0.1-1.1,0.5-1.6c0.4-0.4,0.8-0.7,1.4-0.8c1-0.1,1.5,0.3,1.6,1.3c0.1,0.6-0.1,1.1-0.5,1.6C46.6,73.8,46.1,74,45.5,74.1z
		 M29.4,57.9c1.2-1.6,2.9-2.5,5.1-2.7c1.5-0.2,2.8,0.2,4,1.2c1.2,0.9,1.9,2.3,2,4.1c0.2,2.1-0.3,4-1.5,5.6c-1.2,1.6-2.9,2.6-5.1,2.8
		c-1.5,0.2-2.8-0.3-4-1.2c-1.2-1-1.9-2.4-2.1-4.1C27.7,61.3,28.2,59.5,29.4,57.9z M27.7,73.2c1.4-0.1,2.6-0.1,3.5,0l-0.4,2.6
		c-1-0.3-2-0.3-3.1-0.2c-1.8,0.2-2.7,0.8-2.6,1.9c0,0.4,0.3,0.8,0.7,1c0.4,0.2,1.1,0.5,2.1,0.9c2.4,0.8,3.7,2.1,3.9,4
		c0.3,3.1-1.7,4.9-6.1,5.4c-1.4,0.1-2.6,0.1-3.8-0.1l0.5-2.6c1.2,0.3,2.2,0.4,3.3,0.3c1-0.1,1.7-0.3,2.2-0.5
		c0.8-0.3,1.2-0.9,1.1-1.7c-0.1-0.5-0.3-0.9-0.8-1.2c-0.4-0.3-1.2-0.7-2.4-1.1c-2.2-0.8-3.4-2-3.6-3.7c-0.2-1.6,0.3-2.7,1.3-3.5
		C24.6,73.9,26,73.4,27.7,73.2z M5.2,85.5c0-0.8,0.1-2.2,0.1-4.3c0-1.1,0-2.1-0.1-3.1c0-0.4-0.1-0.7-0.1-1l2.4-0.5
		c0,0.2,0,0.8,0,1.8c0,1.1-0.1,1.9-0.1,2.6c0,1.2,0,2.6,0.1,4.2L5.2,85.5z M7.4,75.1c-0.3,0.4-0.7,0.6-1.1,0.6c-0.4,0-0.6,0-0.9-0.2
		c-0.2-0.2-0.3-0.5-0.4-0.8c0-0.5,0.1-0.9,0.4-1.2c0,0,0.1,0,0.1-0.1c0-0.1,0-0.1,0.1-0.2C5.7,73.1,5.8,73,6,73
		c-0.1,0.1-0.3,0.2-0.4,0.3c0,0,0,0.1-0.1,0.1c0.3-0.2,0.6-0.4,1-0.5c0.7-0.1,1.2,0.3,1.2,1C7.8,74.4,7.7,74.8,7.4,75.1z M7.6,71
		c-0.1-1.3-1-4.1-2.6-8.6c-1.6-4.5-2.5-7.1-2.6-8.1L6.4,54c0.1,0.9,0.6,3,1.5,6.4c0.9,3.4,1.4,5.7,1.6,6.8l0.2,0
		c0-0.7,0.6-2.9,1.7-6.8c1.1-3.9,1.6-6.2,1.6-7l3.6-0.4c0.1,0.9,0.6,3.1,1.6,6.5c1,3.4,1.5,5.6,1.6,6.7l0.2,0c0-0.5,0.5-2.7,1.6-6.5
		c1.1-3.8,1.5-6.2,1.4-7.3l3.7-0.4c0.1,0.8-0.8,3.9-2.6,9.1c-1.8,5.2-2.7,8.1-2.7,8.7L17.9,70c-0.1-1-0.7-3-1.7-6
		c-1-3-1.6-5.1-1.8-6.3l-0.2,0c-0.1,1.1-0.7,3.4-1.7,6.9c-1,3.5-1.5,5.5-1.5,6.1L7.6,71z M9.1,76.6l2.2-0.4c0.1,0.5,0.2,1.1,0.2,1.7
		l0.1,0c0.6-1.3,1.5-2,2.9-2.1c1.5-0.2,2.4,0.6,2.6,2.4c0.1,0.5,0.1,1.5,0.1,2.9c0,1.4,0,2.5,0.1,3.1l-2.3,0.3c0-0.3,0-1.1,0-2.5
		c0.1-1.4,0-2.4,0-2.9c-0.1-0.6-0.2-1-0.4-1.2c-0.2-0.2-0.5-0.3-0.9-0.3c-0.5,0.1-1,0.4-1.4,1.2c-0.4,0.7-0.6,1.6-0.6,2.6
		c0,1.3,0,2.4,0.1,3.4L9.5,85c0.1-3,0.1-5.1,0-6.2C9.4,78.2,9.3,77.5,9.1,76.6z M12.3,104c-0.1-0.5-0.2-1-0.2-1.7l-0.1,0
		c-0.5,1.2-1.4,1.9-2.7,2.1c-0.7,0.1-1.3-0.1-1.8-0.6c-0.4-0.5-0.7-1.2-0.8-2.2c-0.1-1.4,0.2-2.7,1.1-3.9c0.9-1.2,2.3-1.9,4.3-2.2
		l0.4-0.3l1.7-0.3c-0.1,3.2-0.2,5.4,0,6.6c0.1,0.6,0.2,1.3,0.4,2L12.3,104z M18.1,122.1l-1,0.1c0-0.1-0.4-0.8-1.2-1.9
		c-0.8-1.2-1.3-1.9-1.4-2.3l-0.1,0c0.1,0.2,0.1,0.4,0.1,0.7c0,0.3,0.1,0.7,0,1.2c0,0.7,0,1.6,0.1,2.6l-1,0.1c0-0.4,0-1.4,0.1-3
		c0-1.1,0-2-0.1-2.7l1.3-0.1c0,0.2,0.4,0.8,1.1,1.9c0.7,1.1,1.2,1.8,1.3,2.2l0.1,0c-0.1-0.2-0.1-0.3-0.1-0.5c0-0.4-0.1-0.9-0.1-1.4
		c0-0.8,0-1.6-0.1-2.4l1.1-0.1c0,0.3,0,1.2-0.1,2.7C18.1,120.3,18.1,121.3,18.1,122.1z M20.7,122c-0.5,0.1-1,0-1.5,0l0.2-1
		c0.4,0.1,0.9,0.2,1.3,0.1c0.4,0,0.7-0.1,0.8-0.2c0.3-0.1,0.4-0.3,0.4-0.6c0-0.2-0.1-0.3-0.3-0.5c-0.2-0.1-0.5-0.3-0.9-0.4
		c-0.8-0.3-1.3-0.8-1.4-1.4c-0.1-0.6,0.1-1,0.5-1.4c0.4-0.3,0.9-0.5,1.6-0.6c0.5-0.1,1-0.1,1.4,0l-0.2,1c-0.4-0.1-0.8-0.1-1.2-0.1
		c-0.7,0.1-1,0.3-1,0.7c0,0.2,0.1,0.3,0.3,0.4c0.1,0.1,0.4,0.2,0.8,0.3c0.9,0.3,1.4,0.8,1.5,1.5C23.1,121.2,22.3,121.9,20.7,122z
		 M21.6,103c0-0.3,0-1.1,0-2.5c0.1-1.4,0-2.4,0-2.9c-0.1-0.6-0.2-1-0.4-1.2C21.1,96,20.8,96,20.4,96c-0.5,0.1-1,0.4-1.4,1.2
		c-0.4,0.7-0.6,1.6-0.6,2.6c0,1.3,0,2.4,0.1,3.4l-2.2,0.3c0.1-3,0.1-5.1,0-6.2c-0.1-0.6-0.2-1.3-0.4-2.2l2.2-0.4
		c0.1,0.5,0.2,1.1,0.2,1.7l0.1,0c0.6-1.3,1.5-2,2.9-2.1c1.5-0.2,2.4,0.6,2.6,2.4c0.1,0.5,0.1,1.5,0.1,2.9c0,1.4,0,2.5,0.1,3.1
		L21.6,103z M27.5,121.2l-3.5,0.4c0-0.4,0-1.4,0.1-3c0-1.1,0-2-0.1-2.7l3.4-0.4l0,1c-0.8,0-1.6,0.1-2.2,0.2c0,0.3,0,0.8,0,1.4
		c0.6-0.1,1.2-0.1,1.8-0.2l0,0.9c-0.6,0-1.3,0.1-1.8,0.1c0,0.6,0,1.1,0,1.7c0.8-0.1,1.6-0.2,2.4-0.3L27.5,121.2z M31.6,120.7
		c-0.3-1-0.6-1.6-0.8-1.8c-0.2-0.2-0.5-0.3-0.9-0.3c-0.1,0-0.3,0-0.4,0.1c0,0.8,0,1.6,0.1,2.2l-1.2,0.1c0-0.4,0-1.4,0.1-3
		c0-1.1,0-2-0.1-2.7l0.8-0.1c0.1,0,0.3,0,0.5-0.1c0.3,0,0.5-0.1,0.7-0.1c0.5-0.1,0.9,0,1.3,0.2c0.4,0.2,0.6,0.5,0.6,0.9
		c0,0.4,0,0.7-0.2,1c-0.2,0.3-0.5,0.5-0.8,0.7l0,0.1c0.3,0.1,0.5,0.3,0.8,0.6c0.2,0.4,0.5,1,0.9,1.9L31.6,120.7z M31.9,101.9
		c-0.1-0.5-0.2-1-0.3-1.7l-0.1,0c-0.6,1.3-1.5,2-2.9,2.1c-0.9,0.1-1.6-0.1-2.1-0.7c-0.5-0.6-0.8-1.4-1-2.4c-0.2-1.5,0.1-2.8,0.8-4
		c0.7-1.1,1.7-1.8,3.1-1.9c0.8-0.1,1.4,0,1.9,0.4l0.1,0c0-1.2-0.1-2.6-0.2-4.3l2.3-0.3c0,0.2,0,0.8-0.1,1.9c-0.1,1.1-0.1,2.4-0.1,4
		c0,1.5,0.1,2.9,0.2,4.3c0.1,0.8,0.2,1.5,0.3,2.2L31.9,101.9z M37.3,120.1c-0.5,0.1-0.8,0.2-1.2,0.3c-0.9,0.1-1.6-0.1-2.1-0.5
		c-0.5-0.5-0.8-1-0.8-1.7c-0.1-0.9,0.1-1.7,0.7-2.4c0.6-0.7,1.3-1.1,2.3-1.2c0.3,0,0.7,0,1,0l-0.1,1c-0.3-0.1-0.6-0.1-0.9-0.1
		c-0.6,0.1-1,0.3-1.3,0.8c-0.3,0.5-0.4,1-0.3,1.6c0.1,0.5,0.2,0.9,0.5,1.2c0.3,0.3,0.7,0.4,1.3,0.4c0.3,0,0.7-0.1,1.1-0.3
		L37.3,120.1z M35.2,86.3c-0.8-0.9-1.3-2-1.5-3.5c-0.2-1.7,0.3-3.3,1.3-4.6c1.1-1.3,2.6-2.1,4.5-2.3c0.9-0.1,1.7-0.1,2.3,0l-0.4,2.3
		c-0.7-0.1-1.4-0.2-2.2-0.1c-1,0.1-1.7,0.6-2.2,1.4c-0.5,0.8-0.7,1.7-0.6,2.7c0.2,2.1,1.1,3,2.7,2.9c0.9-0.1,1.9-0.5,2.9-1.3L42,86
		c-0.9,0.8-1.9,1.2-3.3,1.3C37.2,87.5,36,87.1,35.2,86.3z M43.8,119.4c-0.5,0.1-0.8,0.2-1.2,0.3c-0.9,0.1-1.6-0.1-2.1-0.5
		c-0.5-0.5-0.8-1-0.8-1.7c-0.1-0.9,0.1-1.7,0.7-2.4c0.6-0.7,1.3-1.1,2.3-1.2c0.3,0,0.7,0,1,0l-0.1,1c-0.3-0.1-0.6-0.1-0.9-0.1
		c-0.6,0.1-1,0.3-1.3,0.8c-0.3,0.5-0.4,1-0.3,1.6c0.1,0.5,0.2,0.9,0.5,1.2c0.3,0.3,0.7,0.4,1.3,0.4c0.3,0,0.7-0.1,1.1-0.3
		L43.8,119.4z M39.1,106.2c0.1-1,0.1-3.6,0.2-7.7c0-2.7-0.1-5.1-0.2-7l8.8-0.9L47.7,93c-2.1,0.1-4.1,0.2-5.8,0.4
		c0,0.8,0.1,2,0.1,3.7c1.5-0.2,3.1-0.4,4.8-0.6l0,2.4c-1.7,0.1-3.3,0.2-4.8,0.4c0,1.5,0,3,0.1,4.3c2-0.2,4.1-0.5,6.3-0.8l-0.1,2.5
		L39.1,106.2z M47.9,119c0-0.5,0-1.3,0-2.5l-2.1,0.2c0,0.6,0,1.5,0.1,2.5l-1.2,0.1c0-0.4,0-1.4,0.1-3c0-1,0-1.9-0.1-2.7l1.2-0.1
		c0,0.4,0,1.1-0.1,2.3l2.1-0.2c0-0.7,0-1.4-0.1-2.3l1.2-0.1c0,0.3,0,1.2-0.1,2.7c0,1.1,0,2.1,0.1,3L47.9,119z M49,81.2
		c-0.2-1.9,0.3-3.6,1.4-4.9c1.1-1.3,2.5-2,4.2-2.2c1.2-0.1,2.1,0,2.8,0.4c0.7,0.4,1.2,1.1,1.3,2c0.2,2.2-2.1,3.6-6.9,4.2
		c0.1,1,0.4,1.7,0.8,2.2c0.4,0.4,1.1,0.6,2,0.5c1.2-0.1,2.5-0.6,3.8-1.6l-0.1,2.3c-1,0.9-2.4,1.4-4.2,1.6c-1.5,0.2-2.7-0.2-3.6-1
		C49.7,83.9,49.2,82.7,49,81.2z M53.7,118.4c0-0.3-0.2-0.8-0.4-1.6l-1.9,0.2c-0.1,0.3-0.1,0.5-0.2,0.7c-0.1,0.5-0.2,0.8-0.2,1
		l-1.2,0.1c0-0.1,0.3-1.1,1-2.9c0.7-1.8,1-2.8,1-3l1.6-0.2c0,0.3,0.3,1.2,0.9,2.7c0.5,1.5,0.8,2.4,0.9,2.8L53.7,118.4z M55.7,118.2
		c0-0.4,0-1.4,0.1-3c0-1.1,0-2-0.1-2.7l1.2-0.1c0,0.3,0,1.2-0.1,2.7c0,1,0,2,0.1,3L55.7,118.2z M57.6,104.4c0-0.4,0-1.4,0-3.2
		c0.1-1.8,0.1-3.1,0-3.8c-0.1-0.8-0.3-1.3-0.5-1.6c-0.3-0.3-0.7-0.4-1.2-0.3c-0.7,0.1-1.2,0.6-1.8,1.5c-0.5,1-0.8,2.1-0.8,3.4
		c0,1.6,0,3.1,0.1,4.4l-2.8,0.4c0.1-3.9,0.1-6.6,0-7.9c-0.1-0.8-0.2-1.7-0.5-2.8l2.8-0.6c0.1,0.6,0.2,1.4,0.3,2.2l0.2,0
		c0.7-1.7,1.9-2.6,3.7-2.7c2-0.2,3.1,0.8,3.3,3c0.1,0.7,0.1,1.9,0.1,3.7c0,1.8,0,3.2,0.1,4L57.6,104.4z M61.4,117.6
		c-0.3-1-0.6-1.6-0.8-1.8c-0.2-0.2-0.5-0.3-0.9-0.3c-0.1,0-0.3,0-0.4,0.1c0,0.8,0,1.6,0.1,2.2l-1.2,0.1c0-0.4,0-1.4,0.1-3
		c0-1.1,0-2-0.1-2.7l0.8-0.1c0.1,0,0.3,0,0.5-0.1c0.3,0,0.5-0.1,0.7-0.1c0.5-0.1,0.9,0,1.3,0.2c0.4,0.2,0.6,0.5,0.6,0.9
		c0,0.4,0,0.7-0.2,1c-0.2,0.3-0.5,0.5-0.8,0.7l0,0.1c0.3,0.1,0.5,0.3,0.8,0.6c0.2,0.4,0.5,1,0.9,1.9L61.4,117.6z M68.5,115l-1.8,0.2
		l0-0.8l1.8-0.3L68.5,115z M66.9,109.2c-1.5,0.2-2.6,0-3.4-0.4c-0.8-0.4-1.2-1.1-1.3-2c-0.1-1.3,0.5-2.4,1.9-3.3l0-0.2
		c-0.5-0.2-0.8-0.7-0.9-1.4c-0.1-0.8,0.3-1.7,1.2-2.5l0-0.2c-0.4-0.2-0.8-0.5-1.2-0.9c-0.4-0.4-0.6-1-0.6-1.5
		c-0.1-1.3,0.3-2.4,1.2-3.2c1-0.8,2.2-1.2,3.6-1.4c1.1-0.1,2,0,2.8,0.5l0.1,0c0.2-1.5,0.9-2.3,2-2.4c0.5,0,0.9,0,1.2,0.1l-0.2,2.1
		c-1.1,0.1-1.8,0.4-2.1,0.7l0,0.1c0.4,0.5,0.6,1,0.7,1.6c0.1,1.3-0.2,2.3-1.1,3.1c-0.9,0.8-2,1.3-3.4,1.4c-0.7,0.1-1.3,0.1-1.8,0
		c-0.3,0.3-0.5,0.7-0.5,1.1c0,0.4,0.2,0.6,0.6,0.7c0.3,0.1,1.6,0,3.8-0.2c2.3-0.2,3.5,0.5,3.7,2.2c0.2,1.6-0.4,2.9-1.6,4
		C70.3,108.3,68.7,109,66.9,109.2z M74.6,116.3c0-0.3-0.2-0.8-0.4-1.6l-1.9,0.2c-0.1,0.3-0.1,0.5-0.2,0.7c-0.1,0.5-0.2,0.8-0.2,1
		l-1.2,0.1c0-0.1,0.3-1.1,1-2.9c0.7-1.8,1-2.8,1-3l1.6-0.2c0,0.3,0.3,1.2,0.9,2.7c0.5,1.5,0.8,2.4,0.9,2.8L74.6,116.3z M80.2,111
		c-0.6,0-1.1,0-1.6,0.1c0,0.3,0,0.9,0,1.8c0,1.1,0,2.1,0.1,3l-1.2,0.1c0-0.4,0-1.4,0.1-3c0-0.7,0-1.3,0-1.8c-0.4,0-0.9,0.1-1.6,0.2
		l0-0.9l4.2-0.4L80.2,111z M84.4,115.2l-3.4,0.4c0-0.3,0-1.3,0.1-3c0-1.1,0-2-0.1-2.7l1.2-0.1c0,0.3,0,1.2-0.1,2.7
		c0,0.9,0,1.6,0,2.1c0.7-0.1,1.5-0.2,2.4-0.3L84.4,115.2z M88.5,114.8c0-0.3-0.2-0.8-0.4-1.6l-1.9,0.2c-0.1,0.3-0.1,0.5-0.2,0.7
		c-0.1,0.5-0.2,0.8-0.2,1l-1.2,0.1c0-0.1,0.3-1.1,1-2.9c0.7-1.8,1-2.8,1-3l1.6-0.2c0,0.3,0.3,1.2,0.9,2.7c0.5,1.5,0.8,2.4,0.9,2.8
		L88.5,114.8z M87.7,101.3c0-0.4,0-1.4,0-3.2c0.1-1.8,0.1-3.1,0-3.8c-0.1-0.8-0.2-1.3-0.5-1.6c-0.3-0.3-0.7-0.4-1.2-0.3
		c-0.7,0.1-1.2,0.6-1.8,1.5c-0.5,1-0.8,2.1-0.8,3.4c0,1.6,0,3.1,0.1,4.4l-2.8,0.4c0.1-3.9,0.1-6.6,0-7.9c-0.1-0.8-0.2-1.7-0.5-2.8
		l2.8-0.6c0.1,0.6,0.2,1.4,0.3,2.2l0.2,0c0.7-1.7,1.9-2.6,3.7-2.7c2-0.2,3.1,0.8,3.3,3c0.1,0.7,0.1,1.9,0.1,3.7c0,1.8,0,3.2,0.1,4
		L87.7,101.3z M94.9,114.2l-1,0.1c0-0.1-0.4-0.8-1.2-1.9c-0.8-1.2-1.3-1.9-1.4-2.3l-0.1,0c0.1,0.2,0.1,0.4,0.1,0.7
		c0,0.3,0.1,0.7,0,1.2c0,0.7,0,1.6,0.1,2.6l-1,0.1c0-0.4,0-1.4,0.1-3c0-1.1,0-2-0.1-2.7l1.3-0.1c0,0.2,0.4,0.8,1.1,1.9
		c0.7,1.1,1.2,1.8,1.3,2.2l0.1,0c-0.1-0.2-0.1-0.3-0.1-0.5c0-0.4-0.1-0.9-0.1-1.4c0-0.8,0-1.6-0.1-2.4l1.1-0.1c0,0.3,0,1.2-0.1,2.7
		C94.9,112.3,94.9,113.3,94.9,114.2z M100,108.9c-0.6,0-1.1,0-1.6,0.1c0,0.3,0,0.9,0,1.8c0,1.1,0,2.1,0.1,3l-1.2,0.1
		c0-0.4,0-1.4,0.1-3c0-0.7,0-1.3,0-1.8c-0.4,0-0.9,0.1-1.6,0.2l0-0.9l4.2-0.4L100,108.9z M100.9,113.5c0-0.4,0-1.4,0.1-3
		c0-1.1,0-2-0.1-2.7l1.2-0.1c0,0.3,0,1.2-0.1,2.7c0,1,0,2,0.1,3L100.9,113.5z M95.3,95.5c0.1,1,0.4,1.7,0.8,2.2
		c0.4,0.5,1.1,0.6,2,0.5c1.2-0.1,2.5-0.6,3.8-1.6l-0.1,2.3c-1,0.9-2.4,1.4-4.2,1.6c-1.5,0.2-2.7-0.2-3.6-1c-0.8-0.8-1.3-2-1.5-3.5
		C92.4,94,92.8,92.3,94,91c1.1-1.3,2.5-2,4.2-2.2c1.2-0.1,2.1,0,2.8,0.4c0.7,0.4,1.2,1.1,1.3,2C102.5,93.5,100.2,94.9,95.3,95.5z
		 M107.1,112.9c-0.5,0.1-0.8,0.2-1.2,0.3c-0.9,0.1-1.6-0.1-2.1-0.5c-0.5-0.5-0.8-1-0.8-1.7c-0.1-0.9,0.1-1.7,0.7-2.4
		c0.6-0.7,1.3-1.1,2.3-1.2c0.3,0,0.7,0,1,0l-0.1,1c-0.3-0.1-0.6-0.1-0.9-0.1c-0.6,0.1-1,0.3-1.3,0.8c-0.3,0.5-0.4,1-0.3,1.6
		c0.1,0.5,0.2,0.9,0.5,1.2c0.3,0.3,0.7,0.4,1.3,0.4c0.3,0,0.7-0.1,1.1-0.3L107.1,112.9z M113,112.3c-0.3-1-0.6-1.6-0.8-1.8
		c-0.2-0.2-0.5-0.3-0.9-0.3c-0.1,0-0.3,0-0.4,0.1c0,0.8,0,1.6,0.1,2.2l-1.2,0.1c0-0.4,0-1.4,0.1-3c0-1.1,0-2-0.1-2.7l0.8-0.1
		c0.1,0,0.3,0,0.5-0.1c0.3,0,0.5-0.1,0.7-0.1c0.5-0.1,0.9,0,1.3,0.2c0.4,0.2,0.6,0.5,0.6,0.9c0,0.4,0,0.7-0.2,1
		c-0.2,0.3-0.5,0.5-0.8,0.7l0,0.1c0.3,0.1,0.5,0.3,0.8,0.6c0.2,0.4,0.5,1,0.9,1.9L113,112.3z M118.6,111.7l-3.5,0.4
		c0-0.4,0-1.4,0.1-3c0-1.1,0-2-0.1-2.7l3.4-0.4l0,1c-0.8,0-1.6,0.1-2.2,0.2c0,0.3,0,0.8,0,1.4c0.6-0.1,1.2-0.1,1.8-0.2l0,0.9
		c-0.6,0-1.3,0.1-1.8,0.1c0,0.6,0,1.1,0,1.6c0.8-0.1,1.6-0.2,2.4-0.3L118.6,111.7z M118.3,91.8c0,2.3,0,4.3,0.1,6.2l-2.8,0.4
		c0.1-3.9,0.1-6.6,0-7.9c-0.1-0.7-0.2-1.6-0.4-2.6c-0.3,0.1-0.6,0.2-1,0.2H114c-0.9,0-1.6-0.4-2.2-0.9c-0.2,0.2-0.5,0.4-0.8,0.6
		c0.4,0.1,0.8,0.2,1.1,0.4c0.7,0.4,1.2,1.1,1.3,2c0.2,2.2-2.1,3.6-6.9,4.2c0.1,1,0.4,1.7,0.8,2.2c0.4,0.5,1.1,0.6,2,0.5
		c1.2-0.1,2.5-0.6,3.8-1.6l-0.1,2.3c-1,0.9-2.4,1.4-4.2,1.6c-1.5,0.2-2.7-0.2-3.6-1c-0.8-0.8-1.3-2-1.5-3.5
		c-0.2-1.9,0.3-3.6,1.4-4.9c0.9-1.1,2-1.7,3.3-2c-1-0.4-1.7-1.4-1.7-2.5V69.8h-4.1l0.6-1.9c0-0.1,3.6-11.2,4-15.1
		c0.2-1.8-0.5-2.9-0.6-3.2L93.1,38.2c-1.5,0.7-3.1,1.2-4.8,1.2c-5.9,0-10.7-4.8-10.7-10.7c0-5.9,4.8-10.7,10.7-10.7
		c5.9,0,10.7,4.8,10.7,10.7c0,1.9-0.5,3.7-1.4,5.2l8.8,6.9c-0.1-0.4-0.2-0.9-0.2-1.4c0-3.1,2.5-5.6,5.6-5.6c3.1,0,5.6,2.5,5.6,5.6
		c0,0.5-0.1,0.9-0.2,1.3l9-7.2c-0.5-0.2-0.9-0.4-1.2-0.7c-0.7-0.6-1.1-1.4-1.1-2.2v0c0-1.7,1.4-3.1,3.3-4.2
		c-0.4-0.8-0.7-1.6-0.8-2.3c-0.1-1.3,0.3-2.1,0.7-2.6c0.4-0.5,1.1-1.1,2.4-1.2c0.7-0.1,1.5,0,2.4,0.3c0.6-2.1,1.7-3.8,3.4-4.1
		c0.8-0.2,1.7,0.1,2.4,0.7c1.3,1.1,2.2,3.4,2.6,6c2.6-0.1,5.1,0.3,6.4,1.3c0.7,0.6,1.1,1.4,1.1,2.2c0,1.7-1.4,3.1-3.3,4.2
		c0.9,1.9,1.1,3.6,0.1,4.9c-0.7,0.9-1.7,1.2-2.9,1.2c-0.6,0-1.3-0.1-1.9-0.3c-0.6,2.1-1.7,3.8-3.4,4.1c-0.2,0-0.3,0-0.5,0
		c-0.7,0-1.3-0.2-1.9-0.7c-0.8-0.6-1.4-1.7-1.9-3.1l-15.2,12.7c-0.2,0.4-0.5,1.3-0.5,2.9c0,1.7,2.6,10.2,4.2,15.2l0.6,1.9h-2H117
		v15.5c0,0.8-0.4,1.5-1,2l1.9-0.4c0.1,0.5,0.2,1,0.2,1.5l0.2,0c0.7-1.2,1.5-1.8,2.6-1.9c0.5-0.1,1.1,0,1.7,0.1l-0.6,2.7
		c-0.5-0.1-1.1-0.1-1.6-0.1C119,89.5,118.3,90.3,118.3,91.8z M122.1,111.5c-0.9,0.1-1.5-0.1-2-0.5c-0.5-0.4-0.8-1-0.8-1.7
		c-0.1-0.9,0.1-1.7,0.7-2.4c0.6-0.7,1.3-1.1,2.3-1.2c0.4,0,0.8,0,1.2,0l-0.1,1c-0.4-0.1-0.8-0.1-1.2-0.1c-0.6,0.1-1.1,0.3-1.4,0.8
		c-0.3,0.5-0.4,1-0.4,1.6c0.1,0.5,0.2,0.9,0.5,1.2c0.3,0.3,0.7,0.4,1.2,0.4c0.2,0,0.3-0.1,0.6-0.1c0-0.1,0-0.1,0-0.3
		c0-0.1,0-0.4,0-0.8c0-0.4,0-0.7-0.1-0.9l1.2-0.1c0,0.2,0,0.7,0,1.4c0,0.3,0,0.8,0.1,1.3C123.1,111.3,122.5,111.4,122.1,111.5z
		 M124.8,111.1c0-0.4,0-1.4,0.1-3c0-1.1,0-2-0.1-2.7l1.2-0.1c0,0.3,0,1.2-0.1,2.7c0,1,0,2,0.1,3L124.8,111.1z M124.1,97.5
		c0.1-1,0.1-2.8,0.2-5.5c0-1.4-0.1-2.8-0.2-4c-0.1-0.5-0.1-0.9-0.2-1.2l3.1-0.6c0,0.2,0,1,0,2.3c0,1.4-0.1,2.4-0.1,3.3
		c0,1.6,0,3.4,0.1,5.4L124.1,97.5z M131.6,109.5c-0.5,0.7-1.2,1.1-2.1,1.2c-0.7,0.1-1.2-0.1-1.7-0.6c-0.5-0.4-0.8-1-0.8-1.8
		c-0.1-0.9,0.1-1.7,0.6-2.4c0.5-0.7,1.2-1.1,2.1-1.2c0.7-0.1,1.2,0.1,1.7,0.5c0.5,0.4,0.8,1,0.8,1.8
		C132.3,108,132.1,108.8,131.6,109.5z M137.6,109.7l-1,0.1c0-0.1-0.4-0.8-1.2-1.9c-0.8-1.2-1.3-1.9-1.4-2.3l-0.1,0
		c0.1,0.2,0.1,0.4,0.1,0.7c0,0.3,0.1,0.7,0,1.2c0,0.7,0,1.6,0.1,2.6l-1,0.1c0-0.4,0-1.4,0.1-3c0-1.1,0-2-0.1-2.7l1.3-0.1
		c0,0.2,0.4,0.8,1.1,1.9c0.7,1.1,1.2,1.8,1.3,2.2l0.1,0c-0.1-0.2-0.1-0.3-0.1-0.5c0-0.4-0.1-0.9-0.1-1.4c0-0.8,0-1.6-0.1-2.4
		l1.1-0.1c0,0.3,0,1.2-0.1,2.7C137.5,107.9,137.5,108.9,137.6,109.7z M136.6,96.2c0-0.4,0-1.4,0-3.2c0.1-1.8,0.1-3.1,0-3.8
		c-0.1-0.8-0.2-1.3-0.5-1.6c-0.3-0.3-0.7-0.4-1.2-0.3c-0.7,0.1-1.2,0.6-1.8,1.5c-0.5,1-0.8,2.1-0.8,3.4c0,1.6,0,3.1,0.1,4.4
		l-2.8,0.4c0.1-3.9,0.1-6.6,0-7.9c-0.1-0.8-0.2-1.7-0.5-2.8l2.8-0.6c0.1,0.6,0.2,1.4,0.3,2.2l0.2,0c0.7-1.7,1.9-2.6,3.7-2.7
		c2-0.2,3.1,0.8,3.3,3c0.1,0.7,0.1,1.9,0.1,3.7c0,1.8,0,3.2,0.1,4L136.6,96.2z M152.3,84.2c-1.1,0.1-1.8,0.4-2.1,0.7l0,0.1
		c0.4,0.5,0.6,1,0.7,1.6c0.1,1.3-0.2,2.3-1.1,3.1c-0.9,0.8-2,1.3-3.4,1.4c-0.7,0.1-1.3,0.1-1.8,0c-0.3,0.3-0.5,0.7-0.5,1.1
		c0,0.4,0.2,0.6,0.6,0.7c0.3,0.1,1.6,0,3.8-0.2c2.3-0.2,3.5,0.5,3.7,2.2c0.2,1.6-0.4,2.9-1.6,4c-1.2,1.1-2.8,1.7-4.7,1.9
		c-1.5,0.2-2.6,0-3.4-0.4c-0.8-0.4-1.2-1.1-1.3-2c-0.1-1.3,0.5-2.4,1.9-3.3l0-0.2c-0.5-0.2-0.8-0.7-0.9-1.4
		c-0.1-0.8,0.3-1.7,1.2-2.5l0-0.2c-0.4-0.2-0.8-0.5-1.2-0.9c-0.4-0.4-0.6-1-0.6-1.5c-0.1-1.3,0.3-2.4,1.2-3.2c1-0.8,2.2-1.3,3.6-1.4
		c1.1-0.1,2,0,2.8,0.5l0.1,0c0.2-1.5,0.9-2.3,2-2.4c0.5,0,0.9,0,1.2,0.1L152.3,84.2z"/>
	<path class="st0" d="M32.2,65.5c0.5,0.6,1.2,0.9,2.1,0.8c1.1-0.1,1.9-0.7,2.4-1.8c0.5-1.1,0.7-2.3,0.6-3.5c-0.1-1.1-0.4-1.9-1-2.6
		c-0.5-0.6-1.2-0.9-2-0.8c-1,0.1-1.8,0.7-2.4,1.8c-0.5,1.1-0.7,2.3-0.6,3.5C31.3,64,31.6,64.9,32.2,65.5z"/>
	<path class="st0" d="M9.5,98.2C9,99,8.8,100,8.9,101.2c0.1,1.1,0.5,1.6,1.2,1.5c0.5-0.1,1-0.5,1.3-1.3c0.4-0.8,0.6-1.6,0.6-2.3
		c0-0.7,0.1-1.4,0-2.2C10.8,97,10,97.5,9.5,98.2z"/>
	<path class="st0" d="M135.5,29.4c0.1,0,0.2,0,0.3-0.1c0.3-0.1,0.7-0.1,1-0.2c0-0.3,0-0.5,0-0.8c0-0.1,0-0.3,0-0.4c0,0,0,0,0,0
		c-0.1-0.1-0.2-0.1-0.2-0.2c0,0-0.1,0-0.1,0c-0.4,0.1-0.7,0.1-1,0.2c0,0.4,0,0.8,0,1.3c0,0,0,0,0,0
		C135.4,29.3,135.4,29.4,135.5,29.4z"/>
	<path class="st0" d="M5.6,73.4C5.6,73.4,5.5,73.4,5.6,73.4c-0.1,0.1-0.2,0.2-0.2,0.3C5.4,73.6,5.5,73.5,5.6,73.4z"/>
	<path class="st0" d="M109.3,87.7c-0.3,0-0.6,0.1-0.9,0.2c0.3,0.1,0.7,0.2,1.1,0.2h0.1c0.5,0,1-0.1,1.4-0.4
		C110.6,87.6,110,87.6,109.3,87.7z"/>
	<path class="st0" d="M115,87.6c0,0.1,0,0.2,0.1,0.3c0.3-0.1,0.6-0.3,0.9-0.5L115,87.6z"/>
	<polygon class="st0" points="149.6,96 149.6,96 149.4,96 149.4,96 	"/>
	<polygon class="st0" points="148.2,87 148.2,87 148.5,87 	"/>
</g>
<g>
	<path class="st1" d="M105,26.5c1.6,0.4,4.2,0.7,6.9,0.7c2.4,0,4.8-0.2,6.3-0.7c1.3-0.3,2.1-0.8,2.3-1.5c0.4-0.9-0.2-1.9-0.7-2.6
		l-0.1-0.1c-0.6-1-3.1-8.5-3.3-9.1c0-0.2-0.2-1.8-0.3-3c-0.2-2.1-0.3-2.6-0.4-2.9c0.1,0.1,0.1,0.2,0.1,0.2c0.8-0.2,1.4-1,1.3-1.7
		c-0.1-0.9-1.8-1.3-5.1-1.2l-0.2,0c-4,0.1-5.2,0.3-5.2,1.3c0,0.7,0.6,1.3,1.2,1.6c0,1.2-0.4,5.2-0.6,5.8c0,0.1-0.2,0.5-0.4,1
		c-1.9,4.8-3,7.5-3.3,7.9c-0.6,0.9-0.9,1.8-0.6,2.6C103.1,25.3,103.6,26.1,105,26.5z M104.6,23c0.4-0.5,1.4-2.9,3.5-8.2
		c0.2-0.5,0.4-0.9,0.4-1c0,0,1.1-6.4,0.6-7.2l-0.2-0.3h-0.3c-0.1,0-0.1-0.1-0.2-0.1c0.7-0.1,1.8-0.2,3.5-0.2l0.2,0
		c1,0,2.4,0.1,3.2,0.2c-0.5,0.2-0.7,0.7-0.8,1.1c0,0.2,0,0.4,0,0.6c0,0.3,0.2,1.5,0.3,2.4c0.3,2.7,0.3,3,0.4,3.2
		c0,0.1,2.7,8.3,3.5,9.5l0.1,0.1c0.3,0.4,0.7,1.1,0.6,1.3c0,0.1-0.2,0.4-1.4,0.7l0,0c-3,0.9-9.5,0.8-12.4,0c-0.6-0.2-1-0.5-1.2-0.8
		C104.1,24,104.2,23.5,104.6,23z"/>
	<path class="st1" d="M111.7,24.7c3.3,0,6-0.8,6-1.8c0-1-2.7-1.8-6-1.8c-3.3,0-6,0.8-6,1.8C105.7,23.9,108.4,24.7,111.7,24.7z"/>
	<path class="st1" d="M107.8,39.3c0,2.3,1.9,4.2,4.2,4.2c2.3,0,4.2-1.9,4.2-4.2c0-2.3-1.9-4.2-4.2-4.2
		C109.7,35.1,107.8,37,107.8,39.3z"/>
	<path class="st1" d="M146.2,26.8c0-1.5-3.1-2.1-7.3-1.7c-0.5-4.2-1.8-7-3.2-6.8c-1,0.2-1.9,2-2.5,4.7c-2.2-1-4-1.1-4.7-0.2
		c-0.7,0.9-0.2,2.6,1.2,4.6c-2.5,1.1-4.1,2.3-4.1,3.4c0,1.1,1.6,1.7,4.1,1.8L115,44.3c-3,2-6,0-6,0L94.5,33.2c0,0,0,0,0,0l1.2,0.6
		c0.1,0,0.1,0,0.3-0.1l0.4-0.8c0.1-0.1,0.1-0.3,0-0.3l-1.1-0.8c0.1-0.2,0.1-0.3,0.2-0.5c0.1-0.2,0.1-0.4,0.2-0.6l1.4,0.1
		c0.1,0.1,0.1,0,0.1-0.1l0.3-1c0-0.1-0.1-0.1-0.1-0.3L96,29c0-0.3,0-0.6,0-0.9l1.4-0.4c0.1,0,0.1-0.1,0.1-0.1l-0.1-1
		c0-0.1-0.1-0.3-0.3-0.3l-1.4,0.1c-0.1-0.3-0.2-0.6-0.3-0.8l1.2-0.8c0.1-0.1,0.1-0.1,0-0.3l-0.4-0.8c-0.1-0.1-0.1-0.1-0.3-0.1
		l-1.3,0.6c-0.2-0.3-0.4-0.6-0.7-0.9l0.7-1.1c0.1-0.1,0.1-0.1,0-0.3L94,21.3c-0.1,0-0.3,0-0.4,0l-0.9,1c-0.3-0.2-0.6-0.4-1-0.6
		l0.4-1.3c0-0.1,0-0.1-0.1-0.1l-1-0.4c-0.1,0-0.3,0-0.3,0.1l-0.5,1.2c-0.3-0.1-0.7-0.1-1-0.2l-0.1-1.4c0-0.1-0.1-0.1-0.3-0.1h-1
		c-0.1,0-0.1,0-0.3,0.1L87.5,21c-0.3,0-0.5,0.1-0.8,0.1l-0.6-1.3c-0.1-0.1-0.1-0.1-0.3-0.1l-1,0.4c-0.1,0-0.1,0.1-0.1,0.3l0.4,1.3
		c-0.3,0.1-0.6,0.3-0.8,0.5l-0.9-1c-0.1-0.1-0.3-0.1-0.3,0l-0.8,0.7c-0.1,0-0.1,0.1,0,0.3l0.7,1.1c-0.3,0.3-0.5,0.6-0.8,0.9L81,23.5
		c-0.1,0-0.3,0-0.3,0.1l-0.5,0.8c0,0.1,0,0.1,0.1,0.3l1.1,0.7c-0.1,0.2-0.1,0.3-0.2,0.5c-0.1,0.2-0.1,0.3-0.2,0.5l-1.4-0.1
		c-0.1,0-0.3,0.1-0.3,0.1l-0.1,1c0,0.3,0,0.3,0.1,0.3l1.3,0.4c0,0.3,0,0.5,0,0.8l-1.4,0.4c-0.1,0.1-0.1,0.1-0.1,0.3l0.3,1
		c0,0.1,0,0.1,0.1,0.3l1.4-0.1c0.1,0.3,0.2,0.5,0.3,0.8l-1.2,0.8c0,0,0,0.1,0,0.3l0.5,0.8c0,0.1,0.1,0.1,0.3,0.1l1.2-0.6
		c0.2,0.3,0.4,0.6,0.7,0.8L82,35c-0.1,0,0,0.1,0,0.3l0.8,0.5c0.1,0.1,0.1,0.1,0.3,0l0.9-0.9c0.3,0.2,0.7,0.4,1,0.6l-0.3,1.3
		c-0.1,0.1,0,0.3,0.1,0.3l0.8,0.3c0.1,0.1,0.3,0,0.3,0l0.6-1.3c0.3,0.1,0.7,0.1,1,0.2l0.2,1.4c0,0.1,0,0.3,0.1,0.3h1
		c0.1,0,0.3-0.1,0.3-0.3l0.1-1.3c0.3,0,0.6-0.1,0.9-0.1l0.6,1.4c0,0,0.1,0.1,0.1,0l1-0.3c0.1,0,0.1-0.1,0.1-0.3l-0.3-1.4
		c0.1-0.1,0.2-0.1,0.3-0.2l-0.1,0.1l15.8,13.1c0,0,1.3,1.5,1,4.3c-0.4,4-4,15.4-4,15.4h3.5v17c0,0.7,0.6,1.3,1.4,1.3h0.1
		c0.8,0,1.4-0.6,1.4-1.3v-17h1.4v17c0,0.7,0.6,1.3,1.4,1.3h0.1c0.8,0,1.4-0.6,1.4-1.3v-17h3.9c0,0-4.3-13.1-4.3-15.6
		c0-2.5,0.8-3.8,0.8-3.8l17.3-14.5c0.6,3.1,1.7,5.1,2.9,4.8c1-0.2,1.9-2,2.5-4.7c2.2,1,4,1.1,4.7,0.2c0.7-0.9,0.2-2.6-1.2-4.6
		C144.7,29.1,146.3,27.8,146.2,26.8z M86.9,32.6c-2.2-0.8-3.4-3.2-2.5-5.5c0.8-2.1,3.2-3.3,5.4-2.5c2.1,0.9,3.3,3.3,2.5,5.4
		C91.5,32.3,89.1,33.4,86.9,32.6z M135.9,20.3c1-0.2,2,1.8,2.4,4.8c-0.4,0-0.7,0.1-1.1,0.1c-1-0.8-2.1-1.4-3.1-1.9
		C134.6,21.6,135.2,20.4,135.9,20.3z M139.2,28.1c0-0.1,0-0.3,0-0.4c0.7,0.7,1.3,1.4,1.8,2c-0.6,0.2-1.2,0.5-1.9,0.7
		C139.2,29.6,139.2,28.9,139.2,28.1z M138.6,28.3c0,0.8,0,1.5,0,2.2c-0.8,0.2-1.6,0.4-2.4,0.6c-0.4,0.1-0.8,0.1-1.1,0.2
		c-0.2-0.2-0.4-0.3-0.6-0.5c-0.3-0.2-0.5-0.5-0.8-0.7c0-0.3,0-0.6,0-0.9c0-0.9,0-1.8,0.1-2.7c0.8-0.2,1.6-0.4,2.4-0.6
		c0.3-0.1,0.6-0.1,0.9-0.2c0.3,0.2,0.6,0.4,0.9,0.7c0.2,0.2,0.4,0.4,0.7,0.6C138.6,27.5,138.6,27.9,138.6,28.3z M138.5,31.4
		c-0.1,0.7-0.1,1.3-0.2,1.9c-0.7-0.3-1.5-0.8-2.3-1.3c0,0,0.1,0,0.1,0C136.9,31.8,137.7,31.6,138.5,31.4z M133.8,31.4
		C133.8,31.5,133.7,31.5,133.8,31.4C133.7,31.4,133.7,31.4,133.8,31.4C133.7,31.4,133.7,31.4,133.8,31.4
		C133.8,31.4,133.8,31.4,133.8,31.4z M132.8,29.3C132.8,29.3,132.8,29.3,132.8,29.3c-0.6-0.6-1.2-1.2-1.6-1.9
		c0.5-0.2,1.1-0.4,1.7-0.6C132.8,27.6,132.8,28.5,132.8,29.3z M133.7,25.9c0.1-0.7,0.2-1.3,0.3-1.9c0.7,0.3,1.5,0.8,2.3,1.3
		c-0.1,0-0.3,0-0.4,0.1C135.1,25.6,134.4,25.8,133.7,25.9z M138.2,26c-0.1-0.1-0.2-0.2-0.3-0.2c0.2,0,0.3,0,0.5-0.1
		c0,0.2,0,0.3,0.1,0.5C138.4,26.1,138.3,26,138.2,26z M130.1,23.8c0.5-0.6,1.6-0.6,3-0.1c-0.1,0.8-0.2,1.6-0.3,2.4
		c-0.7,0.2-1.5,0.5-2.1,0.7C129.9,25.5,129.6,24.4,130.1,23.8z M127.7,30.1c0-0.7,0.9-1.5,2.5-2.3c0.7,0.9,1.6,1.9,2.6,2.8
		c0,0.3,0,0.6,0.1,0.9c-0.1,0-0.2,0-0.3,0l-0.7-0.8l-1,0.8C129,31.4,127.8,31,127.7,30.1z M136.2,37.3c-0.9,0.2-1.7-1.3-2.2-3.6
		l0.2-0.1l-0.3-0.3c-0.1-0.3-0.1-0.6-0.1-0.9c0.3,0,0.6-0.1,0.9-0.1c1.1,0.8,2.3,1.5,3.3,2C137.6,36,137,37.2,136.2,37.3z
		 M142.2,33.6c-0.5,0.6-1.8,0.6-3.3-0.1c0.1-0.7,0.2-1.5,0.3-2.3c0.9-0.2,1.7-0.5,2.4-0.8C142.4,31.8,142.7,32.9,142.2,33.6z
		 M141.7,29.4c-0.7-0.9-1.6-1.8-2.5-2.7c0-0.4-0.1-0.8-0.1-1.1c3.2-0.2,5.4,0.3,5.4,1.4C144.5,27.7,143.4,28.6,141.7,29.4z"/>
	<path class="st1" d="M136,27c-0.9,0-1.7,0.8-1.7,1.7c0,0.9,0.8,1.7,1.7,1.7c0.9,0,1.7-0.8,1.7-1.7C137.7,27.8,136.9,27,136,27z"/>
</g>
</svg>
