<?xml version="1.0" encoding="utf-8"?>
<!-- Generator: Adobe Illustrator 24.3.0, SVG Export Plug-In . SVG Version: 6.00 Build 0)  -->
<svg version="1.1" id="Layer_1" xmlns="http://www.w3.org/2000/svg" xmlns:xlink="http://www.w3.org/1999/xlink" x="0px" y="0px"
	 viewBox="0 0 175 170" style="enable-background:new 0 0 175 170;" xml:space="preserve">
<style type="text/css">
	.st0{fill:#68E8AA;}
	.st1{clip-path:url(#SVGID_2_);}
	.st2{fill:#1A1A1A;}
	.st3{fill:none;stroke:#1A1A1A;stroke-width:1.1491;stroke-linecap:round;stroke-linejoin:round;stroke-miterlimit:10;}
	.st4{fill:none;stroke:#1A1A1A;stroke-width:1.1298;stroke-linecap:round;stroke-linejoin:round;stroke-miterlimit:10;}
	.st5{fill:none;stroke:#1A1A1A;stroke-width:1.1491;stroke-miterlimit:10;}
	.st6{fill:#68E8AA;stroke:#1A1A1A;stroke-width:1.1298;stroke-miterlimit:10;}
	.st7{fill:none;stroke:#1A1A1A;stroke-width:1.0878;stroke-linecap:round;stroke-linejoin:round;stroke-miterlimit:10;}
	.st8{fill:#68E8AA;stroke:#1A1A1A;stroke-width:1.1491;stroke-miterlimit:10;}
	.st9{fill:none;stroke:#1A1A1A;stroke-width:0.5745;stroke-linecap:round;stroke-linejoin:round;stroke-miterlimit:10;}
</style>
<rect x="0.7" y="0.2" class="st0" width="173.8" height="156.4"/>
<g>
	<defs>
		<rect id="SVGID_1_" x="24.3" y="17.5" width="128" height="152"/>
	</defs>
	<clipPath id="SVGID_2_">
		<use xlink:href="#SVGID_1_"  style="overflow:visible;"/>
	</clipPath>
	<g class="st1">
		<path class="st2" d="M132.6,58.7c-5.4-6.5-9.8-14-13.6-24.4c-3.9-11.3-17-6.7-17-6.7s-10.8-14-27.1-9.1
			C58.5,23.3,52.8,35,52.6,48.9C52.2,62.8,41.4,65,33,81c-14.8,28.3,10.1,52.1,55.4,45.6l0.1-0.5c4.5,1.4,9.9,2,16.6,1.5
			C159.4,124.4,154.1,84.2,132.6,58.7z"/>
		<path class="st2" d="M54.9,127.7c0,0-29.9,15.1-29.9,41.1h61.2h5.5h60c0-25.9-31.1-41.1-31.1-41.1"/>
		<path class="st3" d="M54.9,127.7c0,0-29.9,15.1-29.9,41.1h61.2h5.5h60c0-25.9-31.1-41.1-31.1-41.1"/>
		<path class="st0" d="M75.3,99.9v17.4c0,0-5.6,7.8-20.6,10.5c0,0,9,5.9,33.6,5.9c17.3,0,32.2-5.9,32.2-5.9s-19-4-20.4-10.6V99.9"/>
		<path class="st4" d="M75.3,99.9v17.4c0,0-5.6,7.8-20.6,10.5c0,0,9,5.9,33.6,5.9c17.3,0,32.2-5.9,32.2-5.9s-19-4-20.4-10.6V99.9"/>
		<path class="st5" d="M62.7,125.6c0,0,22.8,6.7,50.3,0"/>
		<path class="st2" d="M75.8,100.7c0,0,5.2,11.5,15.6,10.8c0,0,7.5-0.1,9.2-7.5l-0.7-3.3C99.9,100.7,90.5,107.4,75.8,100.7z"/>
		<path class="st6" d="M114.3,55.6c0,0,3.3,47.9-26.6,47.9c-29.8,0-27.5-47.9-27.5-47.9s-1.4-28.4,28.5-28.4
			C116.6,27.3,114.3,55.6,114.3,55.6z"/>
		<path class="st2" d="M76.5,66.9c1.4,0,2.5-1.1,2.5-2.5c0-1.4-1.1-2.5-2.5-2.5c-1.4,0-2.5,1.1-2.5,2.5
			C73.9,65.8,75.1,66.9,76.5,66.9z"/>
		<path class="st2" d="M99.6,66.9c1.4,0,2.5-1.1,2.5-2.5c0-1.4-1.1-2.5-2.5-2.5c-1.4,0-2.5,1.1-2.5,2.5
			C97.1,65.8,98.2,66.9,99.6,66.9z"/>
		<path class="st7" d="M79.7,82c0,0,3.7,2.3,8.6,2.3s8.6-2.3,8.6-2.3"/>
		<path class="st2" d="M82.5,53.5c-0.1,0.2-0.7,3.2-0.7,3.2l-13.6,1.5l3.2-2.3c0.8-0.6,1.7-0.9,2.8-1L82.5,53.5z"/>
		<path class="st2" d="M92.1,53.5c0.1,0.2,0.7,3.2,0.7,3.2l13.6,1.5l-3.2-2.3c-0.8-0.6-1.7-0.9-2.8-1L92.1,53.5z"/>
		<path class="st8" d="M112.2,79.8c2.1,2.8,5.9,0.9,8.2-2.7c2.3-3.6,3.3-10.8,0-12.8c-3.3-2-6.1,2.1-6.1,2.1s-0.8,7.4-1.4,10
			L112.2,79.8z"/>
		<path class="st9" d="M113.4,73.2c2.6-5.5,6.7-4.3,6.7-4.3"/>
		<path class="st9" d="M115.5,70.4c0,0,4,2.2,1.4,5.4"/>
		<path class="st8" d="M62.7,79.8c-2.1,2.8-5.9,0.9-8.2-2.7c-2.3-3.6-3.3-10.8,0-12.8c3.3-2,6.1,2.1,6.1,2.1s0.8,7.4,1.4,10
			L62.7,79.8z"/>
		<path class="st9" d="M61.5,73.2c-2.6-5.5-6.7-4.3-6.7-4.3"/>
		<path class="st9" d="M59.5,70.4c0,0-4,2.2-1.4,5.4"/>
		<path class="st2" d="M114.3,53.3c-0.1-2.2-0.3-5.8-1.4-9c-0.2-0.8-0.5-1.6-0.7-2.3l1.3,0.3c-0.9-7.6-18.2-26.6-39.9-15.8
			c-21.7,11-13.5,39.6-13.5,39.6l0.2-1.4c0.9-1.3,4.7-6.8,6-14c15.1,2.5,26.6-6,32.4-11.9c0.8,3,3.1,9.1,9.5,13.6
			c2,8.2,6,13.3,6,13.3C114.7,61,114.5,56.9,114.3,53.3z"/>
	</g>
</g>
</svg>
