<svg width="57" height="911" viewBox="0 0 57 911" fill="none" xmlns="http://www.w3.org/2000/svg">
<path d="M3.11719 3.02893V581.618L46.3158 642.096V908.199" stroke="white" stroke-width="2"/>
<circle cx="3.04946" cy="3.47033" r="2.58328" fill="white"/>
<circle cx="3.04946" cy="3.47033" r="2.58328" fill="white"/>
<circle cx="3.04946" cy="3.47033" r="2.58328" fill="white"/>
<circle cx="3.04946" cy="3.47033" r="2.58328" fill="white"/>
<circle cx="11.1172" cy="46.9279" r="2.58328" fill="white"/>
<circle cx="11.1172" cy="46.9279" r="2.58328" fill="white"/>
<circle cx="11.1172" cy="46.9279" r="2.58328" fill="white"/>
<circle cx="11.1172" cy="46.9279" r="2.58328" fill="white"/>
<circle cx="46.3158" cy="908.199" r="2.58328" fill="white"/>
<circle cx="46.3158" cy="908.199" r="2.58328" fill="white"/>
<circle cx="46.3158" cy="908.199" r="2.58328" fill="white"/>
<circle cx="46.3158" cy="908.199" r="2.58328" fill="white"/>
<circle cx="54.3158" cy="875.485" r="2.58328" fill="white"/>
<circle cx="54.3158" cy="875.485" r="2.58328" fill="white"/>
<circle cx="54.3158" cy="875.485" r="2.58328" fill="white"/>
<circle cx="54.3158" cy="875.485" r="2.58328" fill="white"/>
<path d="M11.1172 48.0289V578.618L54.3158 639.096V875.199" stroke="white" stroke-width="2"/>
</svg>
